<?xml version="1.0" encoding="utf-8"?>
<!-- Generator: Adobe Illustrator 23.0.3, SVG Export Plug-In . SVG Version: 6.00 Build 0)  -->
<svg version="1.1" id="Layer_2" xmlns="http://www.w3.org/2000/svg" xmlns:xlink="http://www.w3.org/1999/xlink" x="0px" y="0px"
	 viewBox="0 0 1080 1080" style="enable-background:new 0 0 1080 1080;" xml:space="preserve">
<style type="text/css">
	.st0{fill:#FFFFFF;stroke:#FFFFFF;stroke-width:4;stroke-linecap:round;stroke-linejoin:round;stroke-miterlimit:10;}
</style>
<g>
	<path class="st0" d="M503.4,998.6V890c-62.3-1.1-126.9-20.4-164.5-47.3l25.8-72c38.7,25.8,94.6,46.2,154.8,46.2
		c76.3,0,127.9-44.1,127.9-105.4c0-59.1-41.9-95.7-121.5-127.9c-109.7-43-177.4-92.5-177.4-186c0-89.2,63.4-157,162.3-173.1V116
		h66.7v104.3c64.5,2.1,108.6,19.3,139.8,37.6l-26.9,71c-22.6-12.9-66.7-36.6-135.5-36.6c-82.8,0-114,49.5-114,92.5
		c0,55.9,39.8,83.9,133.3,122.6C685.1,552.5,741,608.4,741,704c0,84.9-59.1,164.5-169.9,182.8v111.8H503.4z"/>
</g>
</svg>
