<?xml version="1.0" encoding="utf-8"?>
<!-- Generator: Adobe Illustrator 23.0.3, SVG Export Plug-In . SVG Version: 6.00 Build 0)  -->
<svg version="1.1" id="Layer_2" xmlns="http://www.w3.org/2000/svg" xmlns:xlink="http://www.w3.org/1999/xlink" x="0px" y="0px"
	 viewBox="0 0 1080 1080" style="enable-background:new 0 0 1080 1080;" xml:space="preserve">
<style type="text/css">
	.st0{fill:#FFFFFF;stroke:#FFFFFF;stroke-width:2;stroke-linecap:round;stroke-linejoin:round;stroke-miterlimit:10;}
</style>
<g>
	<circle class="st0" cx="317.8" cy="589.7" r="65.3"/>
	<circle class="st0" cx="317.8" cy="772.7" r="65.3"/>
	<path class="st0" d="M879.8,772.7c0-34.6-26.9-62.9-61-65.1v-0.2H566.1v0.2c-34.1,2.3-61,30.5-61,65.1c0,34.6,26.9,62.9,61,65.1
		v0.2h252.7v-0.2C852.9,835.6,879.8,807.3,879.8,772.7z"/>
	<path class="st0" d="M879.8,589.7c0-34.6-26.9-62.9-61-65.1v-0.2H566.1v0.2c-34.1,2.3-61,30.5-61,65.1s26.9,62.9,61,65.1v0.2h252.7
		v-0.2C852.9,652.6,879.8,624.3,879.8,589.7z"/>
	<path class="st0" d="M879.8,406.7c0-34.6-26.9-62.9-61-65.1v-0.2H566.1v0.2c-34.1,2.3-61,30.5-61,65.1s26.9,62.9,61,65.1v0.2h252.7
		v-0.2C852.9,469.6,879.8,441.3,879.8,406.7z"/>
	<path class="st0" d="M458.6,278.4l0.2-0.3l-0.1,0c1.8-4.7,2.8-9.8,2.8-15.1c0-24.1-19.5-43.6-43.6-43.6c-16.7,0-31.1,9.5-38.4,23.3
		l-0.2-0.1l-73.3,139.6l-1.4-1.6L281,354c-2.8-4.7-6.5-8.8-10.8-12.1l-0.4-0.5l-0.1,0.1c-7.3-5.4-16.2-8.8-26-8.8
		c-24.1,0-43.6,19.5-43.6,43.6c0,9.8,3.4,18.8,8.8,26.1l-0.1,0.1l2.4,2.8c0.6,0.7,1.2,1.5,1.9,2.2l59.6,68.1c0.4,0.5,0.8,1,1.3,1.5
		l0.1,0.1l0,0c7.9,7.7,18.6,12.5,30.5,12.5c11.9,0,22.6-4.8,30.5-12.5l0,0l0-0.1c4.7-4.7,8.3-10.5,10.5-16.9l104.2-167.7
		C453.7,288.4,456.6,283.7,458.6,278.4z"/>
</g>
</svg>
