<?xml version="1.0" encoding="utf-8"?>
<!-- Generator: Adobe Illustrator 24.2.3, SVG Export Plug-In . SVG Version: 6.00 Build 0)  -->
<svg version="1.1" id="Camada_1" xmlns="http://www.w3.org/2000/svg" xmlns:xlink="http://www.w3.org/1999/xlink" x="0px" y="0px"
	 viewBox="0 0 900 481" style="enable-background:new 0 0 900 481;" xml:space="preserve">
<style type="text/css">
	.st0{fill:#001E29;}
	.st1{fill:#02DFF3;}
</style>
<g>
	<g>
		<path class="st0" d="M106.9,255.2l63.8-174H207l-80.6,205.5H86.6L6,81.2h36.8L106.9,255.2z"/>
		<path class="st0" d="M278.1,277c-15.6-8.8-27.9-21.2-36.8-37.3c-8.9-16.1-13.3-34.8-13.3-56.1c0-21,4.6-39.6,13.7-55.7
			c9.1-16.1,21.6-28.5,37.3-37.1c15.8-8.6,33.4-12.9,52.9-12.9c19.5,0,37.1,4.3,52.9,12.9c15.8,8.6,28.2,20.9,37.3,36.9
			c9.1,16,13.7,34.6,13.7,55.9c0,21.3-4.7,39.9-14.1,56.1c-9.4,16.1-22.1,28.6-38.1,37.3c-16,8.8-33.8,13.1-53.3,13.1
			C311.2,290.1,293.7,285.7,278.1,277z M364.9,251.5c10.7-5.7,19.4-14.4,26.1-25.9c6.6-11.5,9.9-25.5,9.9-42s-3.3-30.5-9.8-42
			c-6.5-11.5-15-20.1-25.5-25.7c-10.5-5.6-21.9-8.4-34.1-8.4c-12.5,0-23.9,2.8-34.3,8.4c-10.4,5.6-18.7,14.2-24.9,25.7
			c-6.3,11.5-9.4,25.5-9.4,42c0,16.8,3.1,30.9,9.2,42.4c6.1,11.5,14.3,20.1,24.6,25.7c10.2,5.6,21.5,8.4,33.8,8.4
			C342.7,260.1,354.2,257.2,364.9,251.5z"/>
		<path class="st0" d="M480.8,127.9c8.5-15.9,20.3-28.2,35.4-36.9c15.1-8.8,32.4-13.1,51.9-13.1c25.3,0,46.1,6.1,62.4,18.4
			c16.4,12.3,27.2,29.3,32.4,51h-36.8c-3.5-12.5-10.3-22.4-20.4-29.6c-10.1-7.2-22.7-10.9-37.7-10.9c-19.5,0-35.3,6.7-47.3,20.1
			c-12,13.4-18,32.3-18,56.8c0,24.8,6,43.9,18,57.4c12,13.5,27.8,20.3,47.3,20.3c15,0,27.5-3.5,37.5-10.5c10-7,16.9-17,20.6-30h36.8
			c-5.5,21-16.5,37.8-33,50.4c-16.5,12.6-37.1,18.9-61.9,18.9c-19.5,0-36.8-4.4-51.9-13.1c-15.1-8.8-26.9-21.1-35.4-37.1
			c-8.5-16-12.8-34.7-12.8-56.3C468.1,162.3,472.3,143.8,480.8,127.9z"/>
		<path class="st0" d="M894.9,196.7H730.6c1.2,20.2,8.2,36.1,20.8,47.4c12.6,11.4,27.9,17.1,45.9,17.1c14.8,0,27.1-3.4,36.9-10.3
			c9.9-6.9,16.8-16.1,20.8-27.6h36.8c-5.5,19.8-16.5,35.8-33,48.2c-16.5,12.4-37,18.6-61.5,18.6c-19.5,0-36.9-4.4-52.3-13.1
			c-15.4-8.8-27.4-21.2-36.2-37.3c-8.8-16.1-13.1-34.8-13.1-56.1c0-21.2,4.2-39.9,12.8-55.9c8.5-16,20.4-28.3,35.8-36.9
			c15.4-8.6,33.1-12.9,53.1-12.9c19.5,0,36.8,4.3,51.8,12.8c15,8.5,26.6,20.2,34.7,35.1c8.1,14.9,12.2,31.7,12.2,50.4
			C896,182.6,895.6,189.5,894.9,196.7z M852.1,135.4c-5.8-9.4-13.6-16.5-23.4-21.4c-9.9-4.9-20.8-7.3-32.8-7.3
			c-17.3,0-31.9,5.5-44.1,16.5c-12.1,11-19.1,26.3-20.8,45.8h129.8C860.7,156,857.9,144.8,852.1,135.4z M796.2,31l-52.1,31.9v-27
			l52.1-31.1L848,35.8v27L796.2,31z"/>
	</g>
	<g>
		<g>
			<path class="st1" d="M435.8,389.5h0.5c1.3,0,2.4,1.1,2.4,2.4v76c0,1.3-1.1,2.4-2.4,2.4h-15.4c-1.3,0-2.4-1.1-2.4-2.4v-68.1
				c0-0.9,0.5-1.7,1.3-2.1l14.9-7.9C435,389.6,435.4,389.5,435.8,389.5z"/>
			<path class="st1" d="M418.4,366v12.4c0,1.8,1.9,2.9,3.5,2.1l15.4-8c0.8-0.4,1.3-1.2,1.3-2.1V366c0-1.3-1.1-2.4-2.4-2.4h-15.4
				C419.5,363.6,418.4,364.7,418.4,366z"/>
			<path class="st1" d="M514.9,448.3c-0.9-0.5-2-0.3-2.8,0.4c-4.6,4.4-10.4,7.5-18.5,7.5c-11.3,0-20.4-7.2-21.7-19.2h59.2
				c1.3,0,2.4-1.1,2.4-2.4v-3.2c0-28.1-15.3-43.9-37.9-43.9c-24.4,0-43.9,17-43.9,42.4c0,25.4,19.5,42.4,43.9,42.4
				c11.9,0,23-3.9,32.1-13.8c1.1-1.2,0.8-3-0.6-3.7L514.9,448.3z M492.7,402.6c12.6,0,20.4,7.4,20.5,19.2h-41.4
				C473.4,410.2,480.8,402.6,492.7,402.6z"/>
			<path class="st1" d="M176.8,429.6c0,25.2,19.3,42,43.5,42c24.2,0,43.5-16.8,43.5-42c0-12.2-4.4-23.1-11-29.9
				c-20.4-20.7-38.1-9-42.5,1.3c-0.9,2-0.4,3.8,2.3,5.2l35.4,22.2c1.6,0.8,1.6,3.1,0,4l-43,21.1c-1.5,0.8-3.3-0.3-3.3-2
				c0,0,0-28.6,0-36.9c0-13.8,1.6-18.9,2.8-22.2c0.9-2.5-0.4-3.4-2.2-2.5C199.1,391.4,176.8,406.1,176.8,429.6z"/>
			<path class="st1" d="M372.9,387.5c-13.7,0-23.7,5.8-29.1,10.3c-4.7-7-12.4-10.3-22.8-10.3c-9.2,0-18.3,2.7-24.7,10.3H296v0
				c0,0-11.3-6-15.1-8c-0.7-0.4-1.7-0.3-1.7-0.3c-1.3,0-2.4,1.1-2.4,2.4v76c0,1.3,1.1,2.4,2.4,2.4h15.4c1.3,0,2.4-1.1,2.4-2.4v-41.7
				c0-10.8,5.2-20.5,18.5-20.5c9.8,0,13.8,6.6,13.8,16.5v45.7c0,1.3,1.1,2.4,2.4,2.4h15.4c1.3,0,2.4-1.1,2.4-2.4v-41.4
				c0-10.4,4.7-20.9,17.3-20.9c11.9,0,15,8.8,15,18.8v43.4c0,1.3,1.1,2.4,2.4,2.4h15.4c1.3,0,2.4-1.1,2.4-2.4v-45.7
				C402,402.8,394.4,387.5,372.9,387.5z"/>
		</g>
	</g>
	<g>
		<path class="st0" d="M99.1,472.3c-0.9,0-1.7-0.2-2.5-0.7l-1.2-0.7c-1.4-0.8-13.5-8.3-25.6-19.6c-16.5-15.4-24.9-30.3-24.9-44.2
			c0-17.2,14-31.1,31.1-31.1c8.9,0,17.3,3.8,23.1,10.3c5.8-6.5,14.2-10.3,23.1-10.3c17.2,0,31.1,14,31.1,31.1
			c0,13.9-8.4,28.8-24.9,44.2c-12.1,11.3-24.3,18.8-25.6,19.6l-1.2,0.7C100.8,472.1,100,472.3,99.1,472.3z M76,385.7
			c-11.8,0-21.5,9.6-21.5,21.5c0,24.8,37.1,49.9,44.5,54.7c7.4-4.8,44.5-29.9,44.5-54.7c0-11.8-9.6-21.5-21.5-21.5
			c-7.9,0-15.1,4.3-18.8,11.2c-0.8,1.5-2.5,2.5-4.2,2.5s-3.4-1-4.2-2.5C91.1,389.9,83.9,385.7,76,385.7z"/>
	</g>
</g>
</svg>
