<svg id="Camada_1" data-name="Camada 1" xmlns="http://www.w3.org/2000/svg" xmlns:xlink="http://www.w3.org/1999/xlink" viewBox="0 0 91.82 73.17"><defs><style>.cls-1,.cls-2,.cls-3{fill:none;stroke-miterlimit:10;stroke-width:2px;}.cls-1{stroke:url(#linear-gradient);}.cls-2{stroke:url(#linear-gradient-2);}.cls-3{stroke:url(#linear-gradient-3);}.cls-4{fill:url(#linear-gradient-4);}.cls-5{fill:url(#linear-gradient-5);}.cls-6{fill:url(#linear-gradient-6);}.cls-7{fill:url(#linear-gradient-7);}.cls-8{fill:url(#linear-gradient-8);}</style><linearGradient id="linear-gradient" x1="2.19" y1="73.2" x2="21.93" y2="73.2" gradientTransform="translate(12.42 -0.99) rotate(9.63)" gradientUnits="userSpaceOnUse"><stop offset="0" stop-color="#2c6bb2"/><stop offset="0.23" stop-color="#2b64a9"/><stop offset="0.6" stop-color="#285291"/><stop offset="1" stop-color="#24386f"/></linearGradient><linearGradient id="linear-gradient-2" x1="16.61" y1="60.17" x2="70.9" y2="60.17" gradientTransform="matrix(1, 0, 0, 1, 0, 0)" xlink:href="#linear-gradient"/><linearGradient id="linear-gradient-3" x1="20.27" y1="65.51" x2="94" y2="65.51" gradientTransform="matrix(1, 0, 0, 1, 0, 0)" xlink:href="#linear-gradient"/><linearGradient id="linear-gradient-4" x1="44.73" y1="29.14" x2="65.81" y2="29.14" gradientTransform="matrix(1, 0, 0, 1, 0, 0)" xlink:href="#linear-gradient"/><linearGradient id="linear-gradient-5" x1="50.79" y1="49.11" x2="59.74" y2="49.11" gradientTransform="matrix(1, 0, 0, 1, 0, 0)" xlink:href="#linear-gradient"/><linearGradient id="linear-gradient-6" x1="47.33" y1="22.81" x2="55.84" y2="22.81" gradientTransform="matrix(1, 0, 0, 1, 0, 0)" xlink:href="#linear-gradient"/><linearGradient id="linear-gradient-7" x1="49.58" y1="43.33" x2="60.96" y2="43.33" gradientTransform="matrix(1, 0, 0, 1, 0, 0)" xlink:href="#linear-gradient"/><linearGradient id="linear-gradient-8" x1="49.58" y1="46.01" x2="60.96" y2="46.01" gradientTransform="matrix(1, 0, 0, 1, 0, 0)" xlink:href="#linear-gradient"/></defs><rect class="cls-1" x="4.92" y="57.86" width="14.28" height="30.69" rx="4.79" transform="translate(-14.26 -13.57) rotate(-9.63)"/><path class="cls-2" d="M17.31,61.32s10.3-9.92,23.23-5c3.89,1.46,4.23,1.77,16.55-1.39,0,0,10.82-2.87,12.65,7.2L49.41,65.83" transform="translate(-2.19 -16.62)"/><path class="cls-3" d="M68.86,58.94l13.61-9.81s5.22-4,10.11.79L67.32,74.83s-5.81,6.12-17.91,5c0,0-14-1.06-18.62-1.45-2.77-.24-6.25-.58-9.64,5.52" transform="translate(-2.19 -16.62)"/><path class="cls-4" d="M65.76,26.13a10.53,10.53,0,0,0-8.51-9.32,10.14,10.14,0,0,0-2-.19,10.54,10.54,0,0,0-9.16,15.76c.6,1.06,1.38,2,2,3a8.75,8.75,0,0,1,.74,1.72,7.4,7.4,0,0,1,.27,2c0,.31,0,.63,0,1a1.61,1.61,0,0,0,.2.77,1.55,1.55,0,0,0,1.33.78c1.33,0,2.66,0,4,0h3.24c.69,0,1.39,0,2.08,0a1.54,1.54,0,0,0,1.27-.82,1.72,1.72,0,0,0,.17-.8l0-.93a6.9,6.9,0,0,1,.29-2,11.51,11.51,0,0,1,1.72-3.2c.35-.5.7-1,1-1.53a10.35,10.35,0,0,0,.87-2A10.58,10.58,0,0,0,65.76,26.13Zm-1.92,3.6a9.4,9.4,0,0,1-.82,1.9c-.32.55-.7,1.05-1.06,1.57a13.67,13.67,0,0,0-1.64,3,8.08,8.08,0,0,0-.44,1.87c0,.35,0,.71-.05,1.07v.65s0,.2,0,.22-.15,0-.17,0H50.76s0,0,0,0a.54.54,0,0,1,0-.18V39.1c0-.35,0-.7-.05-1.05a9.26,9.26,0,0,0-1.23-3.52c-.27-.47-.57-.93-.88-1.38s-.74-1-1-1.56a8.74,8.74,0,0,1-1.16-4A8.95,8.95,0,0,1,54,18.31a9.36,9.36,0,0,1,1.3-.09,9,9,0,0,1,8.57,11.51Z" transform="translate(-2.19 -16.62)"/><path class="cls-5" d="M59.29,47.73h-8c-.57,0-.59.4-.14.8L53,50.18a8.38,8.38,0,0,0,2.34.31,7.22,7.22,0,0,0,2.3-.31l1.84-1.65C59.88,48.13,59.86,47.73,59.29,47.73Z" transform="translate(-2.19 -16.62)"/><path class="cls-6" d="M55,19.39a7.87,7.87,0,0,0-6.06,3,8.82,8.82,0,0,0-1.59,2.85.78.78,0,0,0,.53,1,.59.59,0,0,0,.23,0,.81.81,0,0,0,.77-.56A6.78,6.78,0,0,1,55.06,21a.8.8,0,1,0,0-1.6Z" transform="translate(-2.19 -16.62)"/><path class="cls-7" d="M60,42.36H50.55a1,1,0,0,0,0,1.94H60a1,1,0,0,0,0-1.94Z" transform="translate(-2.19 -16.62)"/><path class="cls-8" d="M60,45H50.55a1,1,0,0,0,0,1.94H60A1,1,0,0,0,60,45Z" transform="translate(-2.19 -16.62)"/></svg>