<svg id="Camada_1" data-name="Camada 1" xmlns="http://www.w3.org/2000/svg" xmlns:xlink="http://www.w3.org/1999/xlink" viewBox="0 0 80.41 80.41"><defs><style>.cls-1,.cls-10,.cls-11,.cls-12,.cls-13,.cls-14,.cls-15,.cls-2,.cls-3,.cls-4,.cls-5,.cls-6,.cls-7,.cls-8,.cls-9{fill:none;stroke-miterlimit:10;stroke-width:2px;}.cls-1{stroke:url(#linear-gradient);}.cls-2{stroke:url(#linear-gradient-2);}.cls-3{stroke:url(#linear-gradient-3);}.cls-4{stroke:url(#linear-gradient-4);}.cls-5{stroke:url(#linear-gradient-5);}.cls-6{stroke:url(#linear-gradient-6);}.cls-7{stroke:url(#linear-gradient-7);}.cls-8{stroke:url(#linear-gradient-8);}.cls-9{stroke:url(#linear-gradient-9);}.cls-10{stroke:url(#linear-gradient-10);}.cls-11{stroke:url(#linear-gradient-11);}.cls-12{stroke:url(#linear-gradient-12);}.cls-13{stroke:url(#linear-gradient-13);}.cls-14{stroke:url(#linear-gradient-14);}.cls-15{stroke:url(#linear-gradient-15);}</style><linearGradient id="linear-gradient" x1="10.86" y1="39.19" x2="91.27" y2="39.19" gradientUnits="userSpaceOnUse"><stop offset="0" stop-color="#2c6bb2"/><stop offset="0.23" stop-color="#2b64a9"/><stop offset="0.6" stop-color="#285291"/><stop offset="1" stop-color="#24386f"/></linearGradient><linearGradient id="linear-gradient-2" x1="23.93" y1="84.92" x2="78.2" y2="84.92" xlink:href="#linear-gradient"/><linearGradient id="linear-gradient-3" x1="31.36" y1="65.03" x2="49.04" y2="65.03" xlink:href="#linear-gradient"/><linearGradient id="linear-gradient-4" x1="9.66" y1="21.14" x2="49.84" y2="21.14" xlink:href="#linear-gradient"/><linearGradient id="linear-gradient-5" x1="10.45" y1="36.5" x2="49.04" y2="36.5" xlink:href="#linear-gradient"/><linearGradient id="linear-gradient-6" x1="18.72" y1="21.14" x2="40.78" y2="21.14" xlink:href="#linear-gradient"/><linearGradient id="linear-gradient-7" x1="28.75" y1="42.05" x2="30.75" y2="42.05" xlink:href="#linear-gradient"/><linearGradient id="linear-gradient-8" x1="48.04" y1="11.45" x2="71.57" y2="11.45" xlink:href="#linear-gradient"/><linearGradient id="linear-gradient-9" x1="55.89" y1="40.2" x2="71.57" y2="40.2" xlink:href="#linear-gradient"/><linearGradient id="linear-gradient-10" x1="55.89" y1="21.91" x2="63.73" y2="21.91" xlink:href="#linear-gradient"/><linearGradient id="linear-gradient-11" x1="66.34" y1="21.91" x2="71.57" y2="21.91" xlink:href="#linear-gradient"/><linearGradient id="linear-gradient-12" x1="63.73" y1="29.75" x2="71.57" y2="29.75" xlink:href="#linear-gradient"/><linearGradient id="linear-gradient-13" x1="55.89" y1="29.75" x2="61.11" y2="29.75" xlink:href="#linear-gradient"/><linearGradient id="linear-gradient-14" x1="1" y1="48.04" x2="14.07" y2="48.04" xlink:href="#linear-gradient"/><linearGradient id="linear-gradient-15" x1="45.43" y1="48.04" x2="79.41" y2="48.04" xlink:href="#linear-gradient"/></defs><path class="cls-1" d="M82.43,67.93H19.7a7.84,7.84,0,0,1-7.84-7.84V18.28a7.84,7.84,0,0,1,7.84-7.84H82.43a7.84,7.84,0,0,1,7.84,7.84V60.09A7.84,7.84,0,0,1,82.43,67.93Z" transform="translate(-10.86 -9.44)"/><path class="cls-2" d="M77.2,88.84H24.93A7.84,7.84,0,0,1,32.77,81H69.36a7.84,7.84,0,0,1,7.84,7.84Z" transform="translate(-10.86 -9.44)"/><rect class="cls-3" x="32.36" y="58.5" width="15.68" height="13.07"/><polygon class="cls-4" points="11.45 21.14 29.75 8.84 48.05 21.14 29.75 33.44 11.45 21.14"/><polyline class="cls-5" points="11.45 21.14 11.45 38.36 29.75 50.66 48.05 38.36 48.05 21.14"/><line class="cls-6" x1="19.3" y1="28.52" x2="40.2" y2="13.76"/><line class="cls-7" x1="29.75" y1="33.44" x2="29.75" y2="50.66"/><line class="cls-8" x1="48.04" y1="11.45" x2="71.57" y2="11.45"/><line class="cls-9" x1="55.89" y1="40.2" x2="71.57" y2="40.2"/><line class="cls-10" x1="55.89" y1="21.91" x2="63.73" y2="21.91"/><line class="cls-11" x1="66.34" y1="21.91" x2="71.57" y2="21.91"/><line class="cls-12" x1="71.57" y1="29.75" x2="63.73" y2="29.75"/><line class="cls-13" x1="61.11" y1="29.75" x2="55.89" y2="29.75"/><line class="cls-14" x1="1" y1="48.04" x2="14.07" y2="48.04"/><line class="cls-15" x1="45.43" y1="48.04" x2="79.41" y2="48.04"/></svg>