<svg id="Camada_1" data-name="Camada 1" xmlns="http://www.w3.org/2000/svg" xmlns:xlink="http://www.w3.org/1999/xlink" viewBox="0 0 100 100"><defs><style>.cls-1,.cls-2,.cls-3,.cls-4,.cls-5,.cls-6,.cls-7,.cls-8,.cls-9{fill:none;stroke-miterlimit:10;stroke-width:2px;}.cls-1{stroke:url(#linear-gradient);}.cls-2{stroke:url(#linear-gradient-2);}.cls-3{stroke:url(#linear-gradient-3);}.cls-4{stroke:url(#linear-gradient-4);}.cls-5{stroke:url(#linear-gradient-5);}.cls-6{stroke:url(#linear-gradient-6);}.cls-7{stroke:url(#linear-gradient-7);}.cls-8{stroke:url(#linear-gradient-8);}.cls-9{stroke:url(#linear-gradient-9);}</style><linearGradient id="linear-gradient" x1="26.18" y1="33.13" x2="82.47" y2="33.13" gradientUnits="userSpaceOnUse"><stop offset="0" stop-color="#2c6bb2"/><stop offset="0.23" stop-color="#2b64a9"/><stop offset="0.6" stop-color="#285291"/><stop offset="1" stop-color="#24386f"/></linearGradient><linearGradient id="linear-gradient-2" x1="21.87" y1="40.69" x2="27.18" y2="40.69" xlink:href="#linear-gradient"/><linearGradient id="linear-gradient-3" x1="17.56" y1="48.24" x2="22.87" y2="48.24" xlink:href="#linear-gradient"/><linearGradient id="linear-gradient-4" x1="12.16" y1="61.12" x2="18.32" y2="61.12" xlink:href="#linear-gradient"/><linearGradient id="linear-gradient-5" x1="81.47" y1="43.82" x2="88.61" y2="43.82" xlink:href="#linear-gradient"/><linearGradient id="linear-gradient-6" x1="12.6" y1="73.07" x2="97.48" y2="73.07" xlink:href="#linear-gradient"/><linearGradient id="linear-gradient-7" x1="35.28" y1="24.87" x2="51.37" y2="24.87" xlink:href="#linear-gradient"/><linearGradient id="linear-gradient-8" x1="35.28" y1="33.46" x2="74.33" y2="33.46" xlink:href="#linear-gradient"/><linearGradient id="linear-gradient-9" x1="35.28" y1="42.24" x2="74.33" y2="42.24" xlink:href="#linear-gradient"/></defs><polyline class="cls-1" points="27.18 55.05 27.18 12.22 81.47 12.22 81.47 50.83"/><polyline class="cls-2" points="22.87 67.08 22.87 15.29 27.18 15.29"/><polyline class="cls-3" points="18.56 79.11 18.56 18.37 22.87 18.37"/><path class="cls-4" d="M13.89,94.48a3.29,3.29,0,0,1-.73-2V31A2.86,2.86,0,0,1,16,28.1h2.3"/><path class="cls-5" d="M81.47,37.8h3.28a2.87,2.87,0,0,1,2.86,2.85V50.83"/><path class="cls-6" d="M78.54,95.32H15.61c-1.57,0-2.39-1.29-1.83-2.85L27.67,53.68a4.48,4.48,0,0,1,3.87-2.85H94.47c1.57,0,2.39,1.28,1.83,2.85L82.41,92.47A4.5,4.5,0,0,1,78.54,95.32Z"/><line class="cls-7" x1="35.28" y1="24.87" x2="51.37" y2="24.87"/><line class="cls-8" x1="35.28" y1="33.46" x2="74.33" y2="33.46"/><line class="cls-9" x1="35.28" y1="42.24" x2="74.33" y2="42.24"/></svg>