<svg id="Camada_1" data-name="Camada 1" xmlns="http://www.w3.org/2000/svg" xmlns:xlink="http://www.w3.org/1999/xlink" viewBox="0 0 82.74 70.28"><defs><style>.cls-1{fill:url(#linear-gradient);}.cls-2{fill:url(#linear-gradient-2);}.cls-3{fill:url(#linear-gradient-3);}.cls-4{fill:url(#linear-gradient-4);}.cls-5{fill:url(#linear-gradient-5);}.cls-6{fill:url(#linear-gradient-6);}</style><linearGradient id="linear-gradient" x1="44.43" y1="68" x2="55.68" y2="68" gradientUnits="userSpaceOnUse"><stop offset="0" stop-color="#2c6bb2"/><stop offset="0.23" stop-color="#2b64a9"/><stop offset="0.6" stop-color="#285291"/><stop offset="1" stop-color="#24386f"/></linearGradient><linearGradient id="linear-gradient-2" x1="62.11" y1="63.1" x2="73.35" y2="63.1" xlink:href="#linear-gradient"/><linearGradient id="linear-gradient-3" x1="79.78" y1="56.83" x2="91.03" y2="56.83" xlink:href="#linear-gradient"/><linearGradient id="linear-gradient-4" x1="26.46" y1="71.22" x2="37.71" y2="71.22" xlink:href="#linear-gradient"/><linearGradient id="linear-gradient-5" x1="8.63" y1="75.31" x2="19.88" y2="75.31" xlink:href="#linear-gradient"/><linearGradient id="linear-gradient-6" x1="8.74" y1="36.36" x2="91.37" y2="36.36" xlink:href="#linear-gradient"/></defs><path class="cls-1" d="M54.23,52.62H45.88a1.44,1.44,0,0,0-1.45,1.44V82.19a1.21,1.21,0,0,0,1.21,1.2h8.83a1.21,1.21,0,0,0,1.21-1.2V54.06A1.44,1.44,0,0,0,54.23,52.62ZM53.27,81H46.84V55h6.43Z" transform="translate(-8.63 -13.25)"/><path class="cls-2" d="M72.35,42.72a1.61,1.61,0,0,0-.44-.06H63.55a1.61,1.61,0,0,0-.44.06,1.21,1.21,0,0,0-1,1.19V82.33a1.19,1.19,0,0,0,1.2,1.2h8.84a1.2,1.2,0,0,0,1.2-1.2V43.91A1.21,1.21,0,0,0,72.35,42.72ZM70.94,81.13H64.51V45.07h6.43Z" transform="translate(-8.63 -13.25)"/><path class="cls-3" d="M89.58,30.13H81.23a1.44,1.44,0,0,0-1.45,1.44V82.33a1.2,1.2,0,0,0,1.2,1.2h8.84A1.2,1.2,0,0,0,91,82.33V31.57A1.44,1.44,0,0,0,89.58,30.13Zm-1,51H82.19V32.54h6.43Z" transform="translate(-8.63 -13.25)"/><path class="cls-4" d="M36.26,59H27.9a1.45,1.45,0,0,0-1.44,1.45v21.7a1.2,1.2,0,0,0,1.2,1.2H36.5a1.21,1.21,0,0,0,1.21-1.2V60.49A1.45,1.45,0,0,0,36.26,59ZM35.3,81H28.87V61.45H35.3Z" transform="translate(-8.63 -13.25)"/><path class="cls-5" d="M18.43,67.23H10.08a1.45,1.45,0,0,0-1.45,1.45V82.19a1.2,1.2,0,0,0,1.2,1.2h8.84a1.21,1.21,0,0,0,1.21-1.2V68.68A1.45,1.45,0,0,0,18.43,67.23ZM17.47,81H11V69.64h6.43Z" transform="translate(-8.63 -13.25)"/><path class="cls-6" d="M91.07,14.41a1.23,1.23,0,0,0-.39-.84,1.2,1.2,0,0,0-.86-.32l-7.39.31a1.2,1.2,0,0,0,.1,2.4l4.17-.17C58.62,41.23,23.6,53.12,9.61,57.1a1.21,1.21,0,0,0,.33,2.37,1.26,1.26,0,0,0,.33,0c14.23-4.05,50-16.19,78.5-42.25L89,21.89a1.21,1.21,0,0,0,1.2,1.16h0a1.21,1.21,0,0,0,1.16-1.26Z" transform="translate(-8.63 -13.25)"/></svg>