<svg id="Camada_1" data-name="Camada 1" xmlns="http://www.w3.org/2000/svg" xmlns:xlink="http://www.w3.org/1999/xlink" viewBox="0 0 66.02 83.53"><defs><style>.cls-1,.cls-2,.cls-4,.cls-5,.cls-6,.cls-7,.cls-8{fill:none;stroke-miterlimit:10;stroke-width:2px;}.cls-1{stroke:url(#linear-gradient);}.cls-2{stroke:url(#linear-gradient-2);}.cls-3{fill:url(#linear-gradient-3);}.cls-4{stroke:url(#linear-gradient-4);}.cls-5{stroke:url(#linear-gradient-5);}.cls-6{stroke:url(#linear-gradient-6);}.cls-7{stroke:url(#linear-gradient-7);}.cls-8{stroke:url(#linear-gradient-8);}</style><linearGradient id="linear-gradient" x1="23.16" y1="36.3" x2="54.81" y2="36.3" gradientUnits="userSpaceOnUse"><stop offset="0" stop-color="#2f6cb3"/><stop offset="0.2" stop-color="#2b65a9"/><stop offset="0.54" stop-color="#2a5392"/><stop offset="0.95" stop-color="#253b73"/><stop offset="1" stop-color="#253970"/></linearGradient><linearGradient id="linear-gradient-2" x1="0" y1="41.94" x2="65.9" y2="41.94" xlink:href="#linear-gradient"/><linearGradient id="linear-gradient-3" x1="43.69" y1="11.02" x2="66.02" y2="11.02" xlink:href="#linear-gradient"/><linearGradient id="linear-gradient-4" x1="8.7" y1="34.57" x2="19.54" y2="34.57" xlink:href="#linear-gradient"/><linearGradient id="linear-gradient-5" x1="23.16" y1="51.87" x2="54.81" y2="51.87" xlink:href="#linear-gradient"/><linearGradient id="linear-gradient-6" x1="8.7" y1="50.14" x2="19.54" y2="50.14" xlink:href="#linear-gradient"/><linearGradient id="linear-gradient-7" x1="23.16" y1="67.44" x2="54.81" y2="67.44" xlink:href="#linear-gradient"/><linearGradient id="linear-gradient-8" x1="8.7" y1="65.71" x2="19.54" y2="65.71" xlink:href="#linear-gradient"/></defs><line class="cls-1" x1="23.16" y1="36.3" x2="54.81" y2="36.3"/><polygon class="cls-2" points="64.89 82.53 1 82.53 1 1.34 44.43 1.34 54.82 11.61 64.89 21.49 64.89 82.53"/><polygon class="cls-3" points="44.42 0 43.69 0 44.77 22.04 66.02 22.04 66.02 21.96 44.42 0"/><polyline class="cls-4" points="9.38 35.08 12.53 38.02 18.76 30.27"/><line class="cls-5" x1="23.16" y1="51.87" x2="54.81" y2="51.87"/><polyline class="cls-6" points="9.38 50.65 12.53 53.59 18.76 45.84"/><line class="cls-7" x1="23.16" y1="67.44" x2="54.81" y2="67.44"/><polyline class="cls-8" points="9.38 66.22 12.53 69.17 18.76 61.41"/></svg>