<svg id="Camada_1" data-name="Camada 1" xmlns="http://www.w3.org/2000/svg" xmlns:xlink="http://www.w3.org/1999/xlink" viewBox="0 0 78.53 81.7"><defs><style>.cls-1{fill:url(#linear-gradient);}.cls-2{fill:url(#linear-gradient-2);}.cls-3{fill:url(#linear-gradient-3);}.cls-4{fill:url(#linear-gradient-4);}.cls-5{fill:url(#linear-gradient-5);}.cls-6{fill:url(#linear-gradient-6);}.cls-7{fill:url(#linear-gradient-7);}.cls-8{fill:url(#linear-gradient-8);}.cls-9{fill:url(#linear-gradient-9);}.cls-10{fill:url(#linear-gradient-10);}.cls-11{fill:url(#linear-gradient-11);}.cls-12{fill:url(#linear-gradient-12);}</style><linearGradient id="linear-gradient" x1="34.6" y1="52.53" x2="66.17" y2="52.53" gradientUnits="userSpaceOnUse"><stop offset="0" stop-color="#2f6cb3"/><stop offset="0.2" stop-color="#2b65a9"/><stop offset="0.54" stop-color="#2a5392"/><stop offset="0.95" stop-color="#253b73"/><stop offset="1" stop-color="#253970"/></linearGradient><linearGradient id="linear-gradient-2" x1="59.9" y1="65.75" x2="67.29" y2="65.75" gradientTransform="translate(65.12 -25.71) rotate(45)" xlink:href="#linear-gradient"/><linearGradient id="linear-gradient-3" x1="64.01" y1="79.19" x2="90.07" y2="79.19" xlink:href="#linear-gradient"/><linearGradient id="linear-gradient-4" x1="11.55" y1="58.82" x2="64.96" y2="58.82" xlink:href="#linear-gradient"/><linearGradient id="linear-gradient-5" x1="2.32" y1="12.31" x2="51.1" y2="12.31" xlink:href="#linear-gradient"/><linearGradient id="linear-gradient-6" x1="4.65" y1="3.33" x2="48.77" y2="3.33" xlink:href="#linear-gradient"/><linearGradient id="linear-gradient-7" x1="21.3" y1="39.45" x2="39.18" y2="39.45" xlink:href="#linear-gradient"/><linearGradient id="linear-gradient-8" x1="21.3" y1="48.04" x2="33.17" y2="48.04" xlink:href="#linear-gradient"/><linearGradient id="linear-gradient-9" x1="21.3" y1="56.64" x2="33.05" y2="56.64" xlink:href="#linear-gradient"/><linearGradient id="linear-gradient-10" x1="21.3" y1="65.23" x2="38.72" y2="65.23" xlink:href="#linear-gradient"/><linearGradient id="linear-gradient-11" x1="9.75" y1="63.3" x2="43.66" y2="63.3" xlink:href="#linear-gradient"/><linearGradient id="linear-gradient-12" x1="31.06" y1="42.69" x2="46.61" y2="42.69" xlink:href="#linear-gradient"/></defs><path class="cls-1" d="M50.38,68.32A15.79,15.79,0,1,1,61.55,63.7,15.71,15.71,0,0,1,50.38,68.32Zm0-29.26A13.48,13.48,0,1,0,59.9,43,13.34,13.34,0,0,0,50.38,39.06Z" transform="translate(-11.55 -10.52)"/><rect class="cls-2" x="62.44" y="61.69" width="2.32" height="8.13" transform="translate(-39.41 53.71) rotate(-45)"/><path class="cls-3" d="M83.57,92.22a6.4,6.4,0,0,1-4.75-2.1L65.44,75.42a5.49,5.49,0,0,1,.18-7.59l.06,0a5.43,5.43,0,0,1,3.89-1.62,5.49,5.49,0,0,1,3.7,1.43L88,81a6.42,6.42,0,0,1,.22,9.29l-.08.08A6.38,6.38,0,0,1,83.57,92.22Zm-14-23.74a3.17,3.17,0,0,0-2.25.94l0,0a3.18,3.18,0,0,0-.11,4.39l13.37,14.7a4.14,4.14,0,0,0,3,1.34,4.08,4.08,0,0,0,2.9-1.2l.08-.08a4.11,4.11,0,0,0-.14-5.94L71.71,69.31A3.21,3.21,0,0,0,69.57,68.48Z" transform="translate(-11.55 -10.52)"/><path class="cls-4" d="M63.19,39.72A17.29,17.29,0,0,1,65,41.79V28.48H11.55V89.15H65V78.35L63.73,77a8.39,8.39,0,0,1-1.09-1.53V86.83H13.87v-56H62.64v8.4Z" transform="translate(-11.55 -10.52)"/><polygon class="cls-5" points="51.09 15.63 48.77 15.63 48.77 11.3 4.64 11.3 4.64 15.63 2.32 15.63 2.32 8.98 51.09 8.98 51.09 15.63"/><polygon class="cls-6" points="48.77 6.66 46.45 6.66 46.45 2.32 6.97 2.32 6.97 6.66 4.64 6.66 4.64 0 48.77 0 48.77 6.66"/><path class="cls-7" d="M39.18,38.29a18.09,18.09,0,0,0-1.61,1.43c-.29.29-.57.59-.83.89H21.3V38.29Z" transform="translate(-11.55 -10.52)"/><path class="cls-8" d="M21.3,46.88H33.17a17.15,17.15,0,0,0-.59,2.32H21.3Z" transform="translate(-11.55 -10.52)"/><path class="cls-9" d="M32.51,55.48a19,19,0,0,0,.54,2.32H21.3V55.48Z" transform="translate(-11.55 -10.52)"/><path class="cls-10" d="M38.72,66.39H21.3V64.07H36.42a17.12,17.12,0,0,0,1.15,1.27C37.94,65.71,38.32,66.06,38.72,66.39Z" transform="translate(-11.55 -10.52)"/><rect class="cls-11" x="9.75" y="62.14" width="33.91" height="2.32"/><polygon class="cls-12" points="37.53 49.84 31.06 40.6 32.96 39.27 37.53 45.79 44.7 35.54 46.61 36.87 37.53 49.84"/></svg>