<svg id="Camada_1" data-name="Camada 1" xmlns="http://www.w3.org/2000/svg" xmlns:xlink="http://www.w3.org/1999/xlink" viewBox="0 0 82 51.39"><defs><style>.cls-1,.cls-10,.cls-2,.cls-3,.cls-4,.cls-5,.cls-6,.cls-7,.cls-8,.cls-9{fill:none;stroke-linecap:round;stroke-linejoin:round;stroke-width:2px;}.cls-1{stroke:url(#linear-gradient);}.cls-2{stroke:url(#linear-gradient-2);}.cls-3{stroke:url(#linear-gradient-3);}.cls-4{stroke:url(#linear-gradient-4);}.cls-5{stroke:url(#linear-gradient-5);}.cls-6{stroke:url(#linear-gradient-6);}.cls-7{stroke:url(#linear-gradient-7);}.cls-8{stroke:url(#linear-gradient-8);}.cls-9{stroke:url(#linear-gradient-9);}.cls-10{stroke:url(#linear-gradient-10);}</style><linearGradient id="linear-gradient" x1="72.14" y1="41.12" x2="91.35" y2="41.12" gradientUnits="userSpaceOnUse"><stop offset="0" stop-color="#2f6cb3"/><stop offset="0.2" stop-color="#2b65a9"/><stop offset="0.54" stop-color="#2a5392"/><stop offset="0.95" stop-color="#253b73"/><stop offset="1" stop-color="#253970"/></linearGradient><linearGradient id="linear-gradient-2" x1="29.6" y1="40.19" x2="80.66" y2="40.19" xlink:href="#linear-gradient"/><linearGradient id="linear-gradient-3" x1="46.96" y1="63.7" x2="76.48" y2="63.7" xlink:href="#linear-gradient"/><linearGradient id="linear-gradient-4" x1="20.06" y1="56.08" x2="25.94" y2="56.08" xlink:href="#linear-gradient"/><linearGradient id="linear-gradient-5" x1="26.36" y1="31.5" x2="34.83" y2="31.5" xlink:href="#linear-gradient"/><linearGradient id="linear-gradient-6" x1="22.24" y1="65.91" x2="48.98" y2="65.91" xlink:href="#linear-gradient"/><linearGradient id="linear-gradient-7" x1="9.35" y1="41.12" x2="28.57" y2="41.12" xlink:href="#linear-gradient"/><linearGradient id="linear-gradient-8" x1="53.01" y1="34.06" x2="61.13" y2="34.06" xlink:href="#linear-gradient"/><linearGradient id="linear-gradient-9" x1="47.66" y1="40.01" x2="54.57" y2="40.01" xlink:href="#linear-gradient"/><linearGradient id="linear-gradient-10" x1="43.07" y1="45.59" x2="48.75" y2="45.59" xlink:href="#linear-gradient"/></defs><path class="cls-1" d="M80.64,25.77l-5.85,1.77a2.38,2.38,0,0,0-1.57,2.89l6.52,24.39a2.39,2.39,0,0,0,3,1.66l5.91-1.74a2.39,2.39,0,0,0,1.59-2.9L83.69,27.42A2.38,2.38,0,0,0,80.64,25.77Z" transform="translate(-9.35 -24.11)"/><path class="cls-2" d="M79.66,54.5a16.36,16.36,0,0,1-2.11.71A2.48,2.48,0,0,1,75,54.33c-.89-1.11-2.39-3-4.13-5.12-10-12.2-16.2-15.08-23.94-14-3.38.5-4.77,1.64-7.87,2.86s-8.33,1.16-8.47-2.3c-.09-2.22,4.2-4.24,9-7.36,7.28-4.69,11.5-3.67,18-1.68,7.26,2.23,12.26,3.87,15.82,4.44" transform="translate(-9.35 -24.11)"/><path class="cls-3" d="M48,73c7.14,3.33,9.14-1.1,9.14-1.1s4.94-.29,5.82-5c3,.26,6.7-1.92,6.56-5.27,4.23.07,8.15-4.5,4.63-8.43" transform="translate(-9.35 -24.11)"/><path class="cls-4" d="M21.06,54.71s1.92,1.48,3.88,2.74" transform="translate(-9.35 -24.11)"/><path class="cls-5" d="M33.83,32.1c-3.51-.6-6.47-1.2-6.47-1.2" transform="translate(-9.35 -24.11)"/><path class="cls-6" d="M39.47,72.52a1.13,1.13,0,0,0-.9-.49,4.42,4.42,0,0,1-4.51-2.89,1.25,1.25,0,0,0-1.55-.73C30.36,69,28.1,67,28,64.75a1.07,1.07,0,0,0-1-1c-3.14-.22-4.9-3.86-2.9-5.8,1.19-1.17,4.4-.73,5.36,1.53a.86.86,0,0,0,1.2.42,3.4,3.4,0,0,1,4.77,2.17,1,1,0,0,0,1.07.65c3.15-.37,4.54,1.54,4.82,4.15A1.24,1.24,0,0,0,42.53,68c2.08,0,3.42,1,3.64,2.16A4,4,0,0,0,48,73C48.37,74.22,41.86,75.88,39.47,72.52Z" transform="translate(-9.35 -24.11)"/><path class="cls-7" d="M20.07,25.77l5.85,1.77a2.38,2.38,0,0,1,1.57,2.89L21,54.82a2.4,2.4,0,0,1-3,1.66L12,54.74a2.38,2.38,0,0,1-1.59-2.9L17,27.42A2.38,2.38,0,0,1,20.07,25.77Z" transform="translate(-9.35 -24.11)"/><line class="cls-8" x1="60.13" y1="37.52" x2="54.01" y2="30.6"/><line class="cls-9" x1="53.57" y1="42.79" x2="48.66" y2="37.23"/><line class="cls-10" x1="47.75" y1="47.76" x2="44.07" y2="43.41"/></svg>