<?xml version="1.0" encoding="utf-8"?>
<!-- Generator: Adobe Illustrator 24.3.0, SVG Export Plug-In . SVG Version: 6.00 Build 0)  -->
<svg version="1.1" id="Camada_1" xmlns="http://www.w3.org/2000/svg" xmlns:xlink="http://www.w3.org/1999/xlink" x="0px" y="0px"
	 viewBox="0 0 80 94" style="enable-background:new 0 0 80 94;" xml:space="preserve">
<style type="text/css">
	.st0{fill:none;stroke:url(#SVGID_1_);stroke-width:2;stroke-miterlimit:10;}
	.st1{fill:none;stroke:url(#SVGID_2_);stroke-width:2;stroke-miterlimit:10;}
	.st2{fill:none;stroke:url(#SVGID_3_);stroke-width:2;stroke-miterlimit:10;}
	.st3{fill:none;stroke:url(#SVGID_4_);stroke-width:2;stroke-miterlimit:10;}
	.st4{fill:none;stroke:url(#SVGID_5_);stroke-width:2;stroke-miterlimit:10;}
	.st5{fill:none;stroke:url(#SVGID_6_);stroke-width:2;stroke-miterlimit:10;}
	.st6{fill:none;stroke:url(#SVGID_7_);stroke-width:2;stroke-miterlimit:10;}
	.st7{fill:none;stroke:url(#SVGID_8_);stroke-width:2;stroke-miterlimit:10;}
	.st8{fill:none;stroke:url(#SVGID_9_);stroke-width:2;stroke-miterlimit:10;}
	.st9{fill:none;stroke:url(#SVGID_10_);stroke-width:2;stroke-miterlimit:10;}
	.st10{fill:none;stroke:url(#SVGID_11_);stroke-width:2;stroke-miterlimit:10;}
	.st11{fill:#FFFFFF;stroke:url(#SVGID_12_);stroke-width:2;stroke-miterlimit:10;}
	.st12{fill:#FFFFFF;stroke:url(#SVGID_13_);stroke-width:2;stroke-miterlimit:10;}
	.st13{fill:none;stroke:url(#SVGID_14_);stroke-width:2;stroke-miterlimit:10;}
	.st14{fill:none;stroke:url(#SVGID_15_);stroke-width:2;stroke-miterlimit:10;}
	.st15{fill:none;stroke:url(#SVGID_16_);stroke-width:2;stroke-miterlimit:10;}
	.st16{fill:none;stroke:url(#SVGID_17_);stroke-width:2;stroke-miterlimit:10;}
	.st17{fill:none;stroke:url(#SVGID_18_);stroke-width:2;stroke-miterlimit:10;}
	.st18{fill:none;stroke:url(#SVGID_19_);stroke-width:2;stroke-miterlimit:10;}
	.st19{fill:#FFFFFF;stroke:url(#SVGID_20_);stroke-width:2;stroke-miterlimit:10;}
	.st20{fill:#FFFFFF;stroke:url(#SVGID_21_);stroke-width:2;stroke-miterlimit:10;}
	.st21{fill:none;stroke:url(#SVGID_22_);stroke-width:2;stroke-miterlimit:10;}
	.st22{fill:none;stroke:url(#SVGID_23_);stroke-width:2;stroke-miterlimit:10;}
	.st23{fill:none;stroke:url(#SVGID_24_);stroke-width:2;stroke-miterlimit:10;}
</style>
<linearGradient id="SVGID_1_" gradientUnits="userSpaceOnUse" x1="58.2202" y1="214.7937" x2="60.9594" y2="214.7937" gradientTransform="matrix(1 0 0 -1 0 266)">
	<stop  offset="0" style="stop-color:#2F6CB3"/>
	<stop  offset="0.2" style="stop-color:#2B65A9"/>
	<stop  offset="0.54" style="stop-color:#2A5392"/>
	<stop  offset="0.95" style="stop-color:#253B73"/>
	<stop  offset="1" style="stop-color:#253970"/>
</linearGradient>
<line class="st0" x1="59.2" y1="64" x2="60" y2="38.4"/>
<linearGradient id="SVGID_2_" gradientUnits="userSpaceOnUse" x1="29.3478" y1="187.1613" x2="88.1714" y2="187.1613" gradientTransform="matrix(1 0 0 -1 -10.47 257.7)">
	<stop  offset="0" style="stop-color:#2F6CB3"/>
	<stop  offset="0.2" style="stop-color:#2B65A9"/>
	<stop  offset="0.54" style="stop-color:#2A5392"/>
	<stop  offset="0.95" style="stop-color:#253B73"/>
	<stop  offset="1" style="stop-color:#253970"/>
</linearGradient>
<path class="st1" d="M57.2,65.6l10.7-7.7c0,0,3.9-3.3,8.2-0.6L57.2,76c0,0-6.7,7.3-13.6,6.5L28,81.4c-3.2-0.2-6.4,1.2-8.3,3.8"/>
<linearGradient id="SVGID_3_" gradientUnits="userSpaceOnUse" x1="39.9598" y1="211.5687" x2="41.9598" y2="211.5687" gradientTransform="matrix(1 0 0 -1 0 266)">
	<stop  offset="0" style="stop-color:#2F6CB3"/>
	<stop  offset="0.2" style="stop-color:#2B65A9"/>
	<stop  offset="0.54" style="stop-color:#2A5392"/>
	<stop  offset="0.95" style="stop-color:#253B73"/>
	<stop  offset="1" style="stop-color:#253970"/>
</linearGradient>
<line class="st2" x1="41" y1="46.8" x2="41" y2="62"/>
<linearGradient id="SVGID_4_" gradientUnits="userSpaceOnUse" x1="39.8798" y1="210.9887" x2="41.8798" y2="210.9887" gradientTransform="matrix(1 0 0 -1 0 266)">
	<stop  offset="0" style="stop-color:#2F6CB3"/>
	<stop  offset="0.2" style="stop-color:#2B65A9"/>
	<stop  offset="0.54" style="stop-color:#2A5392"/>
	<stop  offset="0.95" style="stop-color:#253B73"/>
	<stop  offset="1" style="stop-color:#253970"/>
</linearGradient>
<line class="st3" x1="40.9" y1="46.8" x2="40.9" y2="63.2"/>
<linearGradient id="SVGID_5_" gradientUnits="userSpaceOnUse" x1="47.0202" y1="220.5987" x2="49.9394" y2="220.5987" gradientTransform="matrix(1 0 0 -1 0 266)">
	<stop  offset="0" style="stop-color:#2F6CB3"/>
	<stop  offset="0.2" style="stop-color:#2B65A9"/>
	<stop  offset="0.54" style="stop-color:#2A5392"/>
	<stop  offset="0.95" style="stop-color:#253B73"/>
	<stop  offset="1" style="stop-color:#253970"/>
</linearGradient>
<line class="st4" x1="48" y1="61.4" x2="48.9" y2="29.4"/>
<linearGradient id="SVGID_6_" gradientUnits="userSpaceOnUse" x1="36.0898" y1="225.7039" x2="66.6898" y2="225.7039" gradientTransform="matrix(1 0 0 -1 -10.47 257.7)">
	<stop  offset="0" style="stop-color:#2F6CB3"/>
	<stop  offset="0.2" style="stop-color:#2B65A9"/>
	<stop  offset="0.54" style="stop-color:#2A5392"/>
	<stop  offset="0.95" style="stop-color:#253B73"/>
	<stop  offset="1" style="stop-color:#253970"/>
</linearGradient>
<path class="st5" d="M48.6,42.4c0.3,1.9,3.1,1.7,3.1,1.7c3.1,0,3.1-3.5,3.1-3.5l0.5-14.1c0-6.6-5.8-6.6-5.8-6.6H47
	c-1.5,2.5-5.1,2.3-6.1,2.3l0,0c-1.1,0-4.6,0.2-6.1-2.3h-2.4c0,0-5.8,0-5.8,6.6l0.4,14.1c0,0,0,3.5,3.1,3.5c0,0,2.8,0.2,3.1-1.7"/>
<linearGradient id="SVGID_7_" gradientUnits="userSpaceOnUse" x1="34.6698" y1="255.0587" x2="47.1698" y2="255.0587" gradientTransform="matrix(1 0 0 -1 0 266)">
	<stop  offset="0" style="stop-color:#2F6CB3"/>
	<stop  offset="0.2" style="stop-color:#2B65A9"/>
	<stop  offset="0.54" style="stop-color:#2A5392"/>
	<stop  offset="0.95" style="stop-color:#253B73"/>
	<stop  offset="1" style="stop-color:#253970"/>
</linearGradient>
<ellipse class="st6" cx="40.9" cy="10.9" rx="5.2" ry="5.8"/>
<linearGradient id="SVGID_8_" gradientUnits="userSpaceOnUse" x1="33.3698" y1="226.4787" x2="48.4798" y2="226.4787" gradientTransform="matrix(1 0 0 -1 0 266)">
	<stop  offset="0" style="stop-color:#2F6CB3"/>
	<stop  offset="0.2" style="stop-color:#2B65A9"/>
	<stop  offset="0.54" style="stop-color:#2A5392"/>
	<stop  offset="0.95" style="stop-color:#253B73"/>
	<stop  offset="1" style="stop-color:#253970"/>
</linearGradient>
<line class="st7" x1="33.4" y1="39.5" x2="48.5" y2="39.5"/>
<linearGradient id="SVGID_9_" gradientUnits="userSpaceOnUse" x1="53.2698" y1="209.7537" x2="55.2698" y2="209.7537" gradientTransform="matrix(1 0 0 -1 0 266)">
	<stop  offset="0" style="stop-color:#2F6CB3"/>
	<stop  offset="0.2" style="stop-color:#2B65A9"/>
	<stop  offset="0.54" style="stop-color:#2A5392"/>
	<stop  offset="0.95" style="stop-color:#253B73"/>
	<stop  offset="1" style="stop-color:#253970"/>
</linearGradient>
<line class="st8" x1="54.3" y1="50.8" x2="54.3" y2="61.7"/>
<linearGradient id="SVGID_10_" gradientUnits="userSpaceOnUse" x1="47.5202" y1="216.1987" x2="50.1794" y2="216.1987" gradientTransform="matrix(1 0 0 -1 0 266)">
	<stop  offset="0" style="stop-color:#2F6CB3"/>
	<stop  offset="0.2" style="stop-color:#2B65A9"/>
	<stop  offset="0.54" style="stop-color:#2A5392"/>
	<stop  offset="0.95" style="stop-color:#253B73"/>
	<stop  offset="1" style="stop-color:#253970"/>
</linearGradient>
<line class="st9" x1="49.2" y1="61.2" x2="48.5" y2="38.4"/>
<linearGradient id="SVGID_11_" gradientUnits="userSpaceOnUse" x1="53.2098" y1="209.1037" x2="55.2098" y2="209.1037" gradientTransform="matrix(1 0 0 -1 0 266)">
	<stop  offset="0" style="stop-color:#2F6CB3"/>
	<stop  offset="0.2" style="stop-color:#2B65A9"/>
	<stop  offset="0.54" style="stop-color:#2A5392"/>
	<stop  offset="0.95" style="stop-color:#253B73"/>
	<stop  offset="1" style="stop-color:#253970"/>
</linearGradient>
<line class="st10" x1="54.2" y1="50.8" x2="54.2" y2="63"/>
<linearGradient id="SVGID_12_" gradientUnits="userSpaceOnUse" x1="53.4998" y1="217.4604" x2="75.9198" y2="217.4604" gradientTransform="matrix(1 0 0 -1 -10.47 257.7)">
	<stop  offset="0" style="stop-color:#2F6CB3"/>
	<stop  offset="0.2" style="stop-color:#2B65A9"/>
	<stop  offset="0.54" style="stop-color:#2A5392"/>
	<stop  offset="0.95" style="stop-color:#253B73"/>
	<stop  offset="1" style="stop-color:#253970"/>
</linearGradient>
<path class="st11" d="M59.7,47.7c0.2,1.4,2.2,1.2,2.2,1.2c2.2,0,2.2-2.5,2.2-2.5l0.3-10c0-4.7-4.2-4.7-4.2-4.7h-1.7
	c-1.1,1.8-3.6,1.6-4.4,1.6l0,0c-0.8,0-3.3,0.1-4.4-1.6h-1.7c0,0-4.2,0-4.2,4.7l0.3,10c0,0,0,2.5,2.2,2.5c0,0,2,0.2,2.2-1.2"/>
<linearGradient id="SVGID_13_" gradientUnits="userSpaceOnUse" x1="49.4898" y1="240.7887" x2="58.9898" y2="240.7887" gradientTransform="matrix(1 0 0 -1 0 266)">
	<stop  offset="0" style="stop-color:#2F6CB3"/>
	<stop  offset="0.2" style="stop-color:#2B65A9"/>
	<stop  offset="0.54" style="stop-color:#2A5392"/>
	<stop  offset="0.95" style="stop-color:#253B73"/>
	<stop  offset="1" style="stop-color:#253970"/>
</linearGradient>
<ellipse class="st12" cx="54.2" cy="25.2" rx="3.8" ry="4.2"/>
<linearGradient id="SVGID_14_" gradientUnits="userSpaceOnUse" x1="48.8498" y1="220.3887" x2="59.6298" y2="220.3887" gradientTransform="matrix(1 0 0 -1 0 266)">
	<stop  offset="0" style="stop-color:#2F6CB3"/>
	<stop  offset="0.2" style="stop-color:#2B65A9"/>
	<stop  offset="0.54" style="stop-color:#2A5392"/>
	<stop  offset="0.95" style="stop-color:#253B73"/>
	<stop  offset="1" style="stop-color:#253970"/>
</linearGradient>
<line class="st13" x1="48.8" y1="45.6" x2="59.6" y2="45.6"/>
<linearGradient id="SVGID_15_" gradientUnits="userSpaceOnUse" x1="30.1402" y1="216.7937" x2="32.8794" y2="216.7937" gradientTransform="matrix(1 0 0 -1 0 266)">
	<stop  offset="0" style="stop-color:#2F6CB3"/>
	<stop  offset="0.2" style="stop-color:#2B65A9"/>
	<stop  offset="0.54" style="stop-color:#2A5392"/>
	<stop  offset="0.95" style="stop-color:#253B73"/>
	<stop  offset="1" style="stop-color:#253970"/>
</linearGradient>
<line class="st14" x1="31.9" y1="62.1" x2="31.1" y2="36.3"/>
<linearGradient id="SVGID_16_" gradientUnits="userSpaceOnUse" x1="25.0898" y1="207.1187" x2="27.0898" y2="207.1187" gradientTransform="matrix(1 0 0 -1 0 266)">
	<stop  offset="0" style="stop-color:#2F6CB3"/>
	<stop  offset="0.2" style="stop-color:#2B65A9"/>
	<stop  offset="0.54" style="stop-color:#2A5392"/>
	<stop  offset="0.95" style="stop-color:#253B73"/>
	<stop  offset="1" style="stop-color:#253970"/>
</linearGradient>
<line class="st15" x1="26.1" y1="54.5" x2="26.1" y2="63.3"/>
<linearGradient id="SVGID_17_" gradientUnits="userSpaceOnUse" x1="20.4402" y1="211.7637" x2="22.9994" y2="211.7637" gradientTransform="matrix(1 0 0 -1 0 266)">
	<stop  offset="0" style="stop-color:#2F6CB3"/>
	<stop  offset="0.2" style="stop-color:#2B65A9"/>
	<stop  offset="0.54" style="stop-color:#2A5392"/>
	<stop  offset="0.95" style="stop-color:#253B73"/>
	<stop  offset="1" style="stop-color:#253970"/>
</linearGradient>
<line class="st16" x1="22" y1="64" x2="21.4" y2="44.5"/>
<linearGradient id="SVGID_18_" gradientUnits="userSpaceOnUse" x1="25.0398" y1="207.1187" x2="27.0398" y2="207.1187" gradientTransform="matrix(1 0 0 -1 0 266)">
	<stop  offset="0" style="stop-color:#2F6CB3"/>
	<stop  offset="0.2" style="stop-color:#2B65A9"/>
	<stop  offset="0.54" style="stop-color:#2A5392"/>
	<stop  offset="0.95" style="stop-color:#253B73"/>
	<stop  offset="1" style="stop-color:#253970"/>
</linearGradient>
<line class="st17" x1="26" y1="54.5" x2="26" y2="63.3"/>
<linearGradient id="SVGID_19_" gradientUnits="userSpaceOnUse" x1="29.1502" y1="212.3287" x2="31.6794" y2="212.3287" gradientTransform="matrix(1 0 0 -1 0 266)">
	<stop  offset="0" style="stop-color:#2F6CB3"/>
	<stop  offset="0.2" style="stop-color:#2B65A9"/>
	<stop  offset="0.54" style="stop-color:#2A5392"/>
	<stop  offset="0.95" style="stop-color:#253B73"/>
	<stop  offset="1" style="stop-color:#253970"/>
</linearGradient>
<line class="st18" x1="30.1" y1="62.9" x2="30.7" y2="44.5"/>
<linearGradient id="SVGID_20_" gradientUnits="userSpaceOnUse" x1="27.2798" y1="211.7322" x2="45.7698" y2="211.7322" gradientTransform="matrix(1 0 0 -1 -10.47 257.7)">
	<stop  offset="0" style="stop-color:#2F6CB3"/>
	<stop  offset="0.2" style="stop-color:#2B65A9"/>
	<stop  offset="0.54" style="stop-color:#2A5392"/>
	<stop  offset="0.95" style="stop-color:#253B73"/>
	<stop  offset="1" style="stop-color:#253970"/>
</linearGradient>
<path class="st19" d="M30.5,51.9c0.2,1.1,1.8,1,1.8,1c1.8,0,1.8-2,1.8-2l0.2-8.1c0.2-1.9-1.2-3.6-3-3.8c-0.1,0-0.2,0-0.3,0h-1.4
	c-0.9,1.4-2.9,1.3-3.5,1.3l0,0c-0.6,0-2.6,0.1-3.5-1.3h-1.4c-1.9,0.1-3.4,1.6-3.3,3.5c0,0.1,0,0.2,0,0.3l0.3,8.1c0,0,0,2,1.8,2
	c0,0,1.6,0.1,1.8-1"/>
<linearGradient id="SVGID_21_" gradientUnits="userSpaceOnUse" x1="22.0298" y1="232.1987" x2="30.0898" y2="232.1987" gradientTransform="matrix(1 0 0 -1 0 266)">
	<stop  offset="0" style="stop-color:#2F6CB3"/>
	<stop  offset="0.2" style="stop-color:#2B65A9"/>
	<stop  offset="0.54" style="stop-color:#2A5392"/>
	<stop  offset="0.95" style="stop-color:#253B73"/>
	<stop  offset="1" style="stop-color:#253970"/>
</linearGradient>
<ellipse class="st20" cx="26.1" cy="33.8" rx="3" ry="3.4"/>
<linearGradient id="SVGID_22_" gradientUnits="userSpaceOnUse" x1="21.6998" y1="215.7187" x2="30.4198" y2="215.7187" gradientTransform="matrix(1 0 0 -1 0 266)">
	<stop  offset="0" style="stop-color:#2F6CB3"/>
	<stop  offset="0.2" style="stop-color:#2B65A9"/>
	<stop  offset="0.54" style="stop-color:#2A5392"/>
	<stop  offset="0.95" style="stop-color:#253B73"/>
	<stop  offset="1" style="stop-color:#253970"/>
</linearGradient>
<line class="st21" x1="21.7" y1="50.3" x2="30.4" y2="50.3"/>
<linearGradient id="SVGID_23_" gradientUnits="userSpaceOnUse" x1="26.4477" y1="191.9016" x2="69.8226" y2="191.9016" gradientTransform="matrix(1 0 0 -1 -10.47 257.7)">
	<stop  offset="0" style="stop-color:#2F6CB3"/>
	<stop  offset="0.2" style="stop-color:#2B65A9"/>
	<stop  offset="0.54" style="stop-color:#2A5392"/>
	<stop  offset="0.95" style="stop-color:#253B73"/>
	<stop  offset="1" style="stop-color:#253970"/>
</linearGradient>
<path class="st22" d="M16.7,67.9c0,0,4.3-4.5,10.2-5.5c2-0.4,4-0.3,6,0.2c4.1,1,8.4,1,12.5,0c0,0,10.2-2.8,12.7,4.7l-15,2.3"/>
<linearGradient id="SVGID_24_" gradientUnits="userSpaceOnUse" x1="14.0686" y1="181.3394" x2="31.6449" y2="181.3394" gradientTransform="matrix(1 0 0 -1 -10.463 257.7026)">
	<stop  offset="0" style="stop-color:#2F6CB3"/>
	<stop  offset="0.2" style="stop-color:#2B65A9"/>
	<stop  offset="0.54" style="stop-color:#2A5392"/>
	<stop  offset="0.95" style="stop-color:#253B73"/>
	<stop  offset="1" style="stop-color:#253970"/>
</linearGradient>
<rect x="6.7" y="64.4" transform="matrix(0.9856 -0.169 0.169 0.9856 -12.7275 3.1931)" class="st23" width="11.4" height="23.9"/>
</svg>
