<svg id="Camada_1" data-name="Camada 1" xmlns="http://www.w3.org/2000/svg" xmlns:xlink="http://www.w3.org/1999/xlink" viewBox="0 0 76.67 72.96"><defs><style>.cls-1,.cls-2,.cls-3,.cls-4,.cls-5,.cls-6,.cls-7,.cls-8,.cls-9{fill:none;stroke-linecap:round;stroke-linejoin:round;}.cls-1,.cls-2,.cls-3,.cls-4,.cls-5,.cls-6,.cls-7{stroke-width:2px;}.cls-1{stroke:url(#linear-gradient);}.cls-2{stroke:url(#linear-gradient-2);}.cls-3{stroke:url(#linear-gradient-3);}.cls-4{stroke:url(#linear-gradient-4);}.cls-5{stroke:url(#linear-gradient-5);}.cls-6{stroke:url(#linear-gradient-6);}.cls-7{stroke:url(#linear-gradient-7);}.cls-8{stroke:url(#linear-gradient-8);}.cls-9{stroke:url(#linear-gradient-9);}</style><linearGradient id="linear-gradient" x1="25.7" y1="60.68" x2="71.86" y2="60.68" gradientUnits="userSpaceOnUse"><stop offset="0" stop-color="#2f6cb3"/><stop offset="0.2" stop-color="#2b65a9"/><stop offset="0.54" stop-color="#2a5392"/><stop offset="0.95" stop-color="#253b73"/><stop offset="1" stop-color="#253970"/></linearGradient><linearGradient id="linear-gradient-2" x1="17.57" y1="66.06" x2="31.37" y2="66.06" xlink:href="#linear-gradient"/><linearGradient id="linear-gradient-3" x1="49.41" y1="66.06" x2="63.21" y2="66.06" xlink:href="#linear-gradient"/><linearGradient id="linear-gradient-4" x1="62.75" y1="33.04" x2="64.75" y2="33.04" xlink:href="#linear-gradient"/><linearGradient id="linear-gradient-5" x1="11.15" y1="19.45" x2="52.2" y2="19.45" xlink:href="#linear-gradient"/><linearGradient id="linear-gradient-6" x1="14.55" y1="37.71" x2="79.3" y2="37.71" xlink:href="#linear-gradient"/><linearGradient id="linear-gradient-7" x1="47.74" y1="14.47" x2="76.67" y2="14.47" xlink:href="#linear-gradient"/><linearGradient id="linear-gradient-8" x1="69.49" y1="11.2" x2="72.66" y2="11.2" xlink:href="#linear-gradient"/><linearGradient id="linear-gradient-9" x1="51.76" y1="14.47" x2="72.66" y2="14.47" xlink:href="#linear-gradient"/></defs><path class="cls-1" d="M70.86,72.17H33.4a6.72,6.72,0,0,1-6.7-6.7V49.18" transform="translate(-14.55 -12.01)"/><circle class="cls-2" cx="24.47" cy="66.06" r="5.9"/><circle class="cls-3" cx="56.31" cy="66.06" r="5.9"/><line class="cls-4" x1="63.75" y1="27.93" x2="63.75" y2="38.15"/><line class="cls-5" x1="12.15" y1="16.76" x2="51.2" y2="22.14"/><path class="cls-6" d="M78.3,50.16v2.53a6.72,6.72,0,0,1-6.7,6.7H33.4a6.73,6.73,0,0,1-6.7-6.7V20.84L15.55,16" transform="translate(-14.55 -12.01)"/><circle class="cls-7" cx="62.21" cy="14.47" r="13.47"/><polyline class="cls-8" points="69.99 10.12 72.16 10.11 72.16 12.28"/><polyline class="cls-9" points="52.26 18.82 55.53 15.55 57.55 17.57 61.63 13.48 65.21 17.06 72.16 10.11"/></svg>