<svg id="Camada_1" data-name="Camada 1" xmlns="http://www.w3.org/2000/svg" xmlns:xlink="http://www.w3.org/1999/xlink" viewBox="0 0 57.93 59.62"><defs><style>.cls-1,.cls-2,.cls-3,.cls-4,.cls-5,.cls-6,.cls-7{fill:none;stroke-miterlimit:10;stroke-width:2px;}.cls-1{stroke:url(#linear-gradient);}.cls-2{stroke:url(#linear-gradient-2);}.cls-3{stroke:url(#linear-gradient-3);}.cls-4{stroke:url(#linear-gradient-4);}.cls-5{stroke:url(#linear-gradient-5);}.cls-6{stroke:url(#linear-gradient-6);}.cls-7{stroke:url(#linear-gradient-7);}</style><linearGradient id="linear-gradient" x1="216.55" y1="293.33" x2="274.48" y2="293.33" gradientUnits="userSpaceOnUse"><stop offset="0" stop-color="#2c6bb2"/><stop offset="0.23" stop-color="#2b64a9"/><stop offset="0.6" stop-color="#285291"/><stop offset="1" stop-color="#24386f"/></linearGradient><linearGradient id="linear-gradient-2" x1="17.9" y1="14.61" x2="50.9" y2="14.61" xlink:href="#linear-gradient"/><linearGradient id="linear-gradient-3" x1="17.9" y1="20.68" x2="50.9" y2="20.68" xlink:href="#linear-gradient"/><linearGradient id="linear-gradient-4" x1="17.9" y1="26.75" x2="50.9" y2="26.75" xlink:href="#linear-gradient"/><linearGradient id="linear-gradient-5" x1="17.9" y1="32.83" x2="50.9" y2="32.83" xlink:href="#linear-gradient"/><linearGradient id="linear-gradient-6" x1="17.9" y1="38.9" x2="50.9" y2="38.9" xlink:href="#linear-gradient"/><linearGradient id="linear-gradient-7" x1="17.9" y1="44.97" x2="50.9" y2="44.97" xlink:href="#linear-gradient"/></defs><path class="cls-1" d="M227.2,294.27h-9.65v23.19a4.7,4.7,0,0,0,4.69,4.68h.7a4.7,4.7,0,0,0,4.68-4.68V264.52h45.86v52.94h0a4.7,4.7,0,0,1-4.68,4.68H222.58" transform="translate(-216.55 -263.52)"/><line class="cls-2" x1="17.9" y1="14.61" x2="50.9" y2="14.61"/><line class="cls-3" x1="17.9" y1="20.68" x2="50.9" y2="20.68"/><line class="cls-4" x1="17.9" y1="26.75" x2="50.9" y2="26.75"/><line class="cls-5" x1="17.9" y1="32.83" x2="50.9" y2="32.83"/><line class="cls-6" x1="17.9" y1="38.9" x2="50.9" y2="38.9"/><line class="cls-7" x1="17.9" y1="44.97" x2="50.9" y2="44.97"/></svg>