<?xml version="1.0" encoding="utf-8"?>
<!-- Generator: Adobe Illustrator 24.3.0, SVG Export Plug-In . SVG Version: 6.00 Build 0)  -->
<svg version="1.1" id="Camada_1" xmlns="http://www.w3.org/2000/svg" xmlns:xlink="http://www.w3.org/1999/xlink" x="0px" y="0px"
	 viewBox="0 0 94.1 96.5" style="enable-background:new 0 0 94.1 96.5;" xml:space="preserve">
<style type="text/css">
	.st0{fill:url(#SVGID_1_);}
	.st1{fill:url(#SVGID_2_);}
</style>
<linearGradient id="SVGID_1_" gradientUnits="userSpaceOnUse" x1="22.0835" y1="220.4293" x2="105.7639" y2="220.4293" gradientTransform="matrix(1 0 0 -1 -12.95 268.8986)">
	<stop  offset="0" style="stop-color:#2F6CB3"/>
	<stop  offset="0.2" style="stop-color:#2B65A9"/>
	<stop  offset="0.54" style="stop-color:#2A5392"/>
	<stop  offset="0.95" style="stop-color:#253B73"/>
	<stop  offset="1" style="stop-color:#253970"/>
</linearGradient>
<path class="st0" d="M63,79c0.4,0,0.8,0.4,0.8,0.8c0,0.4-0.4,0.8-0.8,0.8H35.5c-0.4,0-0.8-0.4-0.8-0.8c0-0.4,0.4-0.8,0.8-0.8H63z
	 M35.5,28H63c0.4,0,0.8-0.4,0.8-0.8c0-0.4-0.4-0.8-0.8-0.8H35.5c-0.4,0-0.8,0.4-0.8,0.8C34.7,27.7,35,28,35.5,28z M35.5,22.9h32.2
	c0.4,0,0.8-0.4,0.8-0.8c0-0.4-0.4-0.8-0.8-0.8H35.5c-0.4,0-0.8,0.4-0.8,0.8C34.7,22.6,35,22.9,35.5,22.9z M68.5,74.7
	c0-0.4-0.4-0.8-0.8-0.8H35.5c-0.4,0-0.8,0.4-0.8,0.8c0,0.4,0.4,0.8,0.8,0.8h32.2C68.1,75.5,68.5,75.2,68.5,74.7L68.5,74.7z
	 M14.5,7.8c-2.1,0-3.8,1.7-3.8,3.8l0,0v73.7c0,2.1,1.7,3.8,3.8,3.8h57.7c2.1,0,3.8-1.7,3.8-3.8l0,0v-8.8h1.6v8.8
	c0,3-2.4,5.4-5.4,5.4H14.5c-3,0-5.4-2.4-5.4-5.4V11.6c0-3,2.4-5.4,5.4-5.4l0,0 M72.1,6.2c3,0,5.4,2.4,5.4,5.4v30.6h-1.6V11.6
	c0-2.1-1.7-3.8-3.8-3.8 M35.5,56.4V58h24.2v-0.6c0-0.4,0.1-0.7,0.3-1H35.5c-0.4,0-0.8,0.4-0.8,0.8c0,0.4,0.4,0.8,0.8,0.8V56.4z
	 M28.7,72.4c-0.4-0.2-0.9,0-1.1,0.4L24.2,80l-3-4c-0.3-0.4-0.8-0.4-1.1-0.2c-0.4,0.2-0.5,0.7-0.3,1.1c0,0.1,0.1,0.1,0.1,0.1l3.8,5
	c0.2,0.2,0.4,0.3,0.6,0.3h0.1c0.3,0,0.5-0.2,0.6-0.5l4-8.4C29.3,73.1,29.2,72.6,28.7,72.4C28.8,72.4,28.7,72.4,28.7,72.4z
	 M28.7,37.3c-0.4-0.2-0.9,0-1.1,0.4c0,0,0,0,0,0l-3.4,7.2l-3-4c-0.3-0.4-0.8-0.4-1.1-0.2c-0.4,0.3-0.4,0.8-0.2,1.1c0,0,0,0,0,0
	l3.8,5c0.2,0.2,0.4,0.3,0.6,0.3h0.1c0.3,0,0.5-0.2,0.6-0.5l4-8.4C29.3,38,29.1,37.5,28.7,37.3z M35.5,40.5h32.2
	c0.4,0,0.8-0.4,0.8-0.8c0-0.4-0.4-0.8-0.8-0.8H35.5c-0.4,0-0.8,0.4-0.8,0.8C34.7,40.1,35,40.5,35.5,40.5z M28.7,19.8
	c-0.4-0.2-0.9,0-1.1,0.4c0,0,0,0,0,0l-3.4,7.2l-3-4c-0.3-0.4-0.8-0.4-1.1-0.1c-0.4,0.3-0.4,0.8-0.2,1.1c0,0,0,0,0,0l3.8,5
	c0.2,0.2,0.4,0.3,0.6,0.3h0.1c0.3,0,0.5-0.2,0.6-0.5l4-8.4C29.3,20.5,29.1,20,28.7,19.8C28.7,19.8,28.7,19.8,28.7,19.8z M28.7,54.8
	c-0.4-0.2-0.9,0-1.1,0.4l-3.4,7.2l-3-4c-0.3-0.4-0.8-0.4-1.1-0.2c-0.4,0.3-0.4,0.8-0.2,1.1c0,0,0,0,0,0l3.8,5
	c0.2,0.2,0.4,0.3,0.6,0.3h0.1c0.3,0,0.5-0.2,0.6-0.5l4-8.4C29.3,55.5,29.1,55,28.7,54.8z M35.5,45.6H63c0.4,0,0.8-0.4,0.8-0.8
	c0-0.4-0.4-0.8-0.8-0.8H35.5c-0.4,0-0.8,0.4-0.8,0.8C34.7,45.3,35,45.6,35.5,45.6z M35.5,63.1h25.3c-0.6-0.3-1-0.9-1.1-1.6H35.5
	c-0.4,0-0.8,0.4-0.8,0.8C34.7,62.8,35,63.1,35.5,63.1z M92.8,57.4v3.9c0,0.5-0.3,0.9-0.8,1l-4.3,0.9c-0.1,0.4-0.3,0.9-0.5,1.3
	l2.4,3.6c0.3,0.4,0.2,0.9-0.1,1.3l-2.8,2.8c-0.3,0.3-0.9,0.4-1.3,0.1l-3.6-2.4c-0.4,0.2-0.8,0.4-1.3,0.5l-0.9,4.3
	c-0.1,0.5-0.5,0.8-1,0.8h-3.9c-0.5,0-0.9-0.3-1-0.8l-0.9-4.3c-0.4-0.1-0.9-0.3-1.3-0.5L68,72.2c-0.4,0.3-0.9,0.2-1.3-0.1L64,69.3
	c-0.4-0.3-0.4-0.9-0.1-1.3l2.4-3.6c-0.2-0.4-0.4-0.8-0.5-1.3l-4.3-0.9c-0.5-0.1-0.8-0.5-0.8-1v-3.9c0-0.5,0.3-0.9,0.8-1l4.3-0.9
	c0.1-0.4,0.3-0.9,0.5-1.3l-2.4-3.6c-0.3-0.4-0.2-0.9,0.1-1.3l2.8-2.8c0.3-0.3,0.9-0.4,1.3-0.1l3.6,2.4c0.4-0.2,0.8-0.4,1.3-0.5
	l0.9-4.3c0.1-0.5,0.5-0.8,1-0.8h3.9c0.5,0,0.9,0.3,1,0.8l0.9,4.3c0.4,0.1,0.9,0.3,1.3,0.5l3.6-2.4c0.4-0.3,0.9-0.2,1.3,0.1l2.8,2.8
	c0.3,0.3,0.4,0.9,0.1,1.3l-2.4,3.6c0.2,0.4,0.4,0.8,0.5,1.3l4.3,0.9C92.5,56.5,92.8,56.9,92.8,57.4z M82,59.4c0-2.9-2.4-5.2-5.2-5.2
	c-2.9,0-5.2,2.4-5.2,5.3s2.4,5.2,5.2,5.2C79.7,64.7,82,62.3,82,59.4C82,59.4,82,59.4,82,59.4L82,59.4z"/>
<linearGradient id="SVGID_2_" gradientUnits="userSpaceOnUse" x1="26.0635" y1="261.8793" x2="86.7335" y2="261.8793" gradientTransform="matrix(1 0 0 -1 -12.95 268.8986)">
	<stop  offset="0" style="stop-color:#2F6CB3"/>
	<stop  offset="0.2" style="stop-color:#2B65A9"/>
	<stop  offset="0.54" style="stop-color:#2A5392"/>
	<stop  offset="0.95" style="stop-color:#253B73"/>
	<stop  offset="1" style="stop-color:#253970"/>
</linearGradient>
<path class="st1" d="M14.6,7.8h57.8c0.8,0,1.4-0.4,1.4-0.8s-0.6-0.8-1.4-0.8H14.6c-0.8,0-1.5,0.4-1.5,0.8S13.8,7.8,14.6,7.8z"/>
</svg>
