<svg id="Camada_1" data-name="Camada 1" xmlns="http://www.w3.org/2000/svg" xmlns:xlink="http://www.w3.org/1999/xlink" viewBox="0 0 68.22 68.22"><defs><style>.cls-1{fill:url(#linear-gradient);}.cls-2{fill:url(#linear-gradient-2);}</style><linearGradient id="linear-gradient" x1="19.43" y1="59.31" x2="87.65" y2="59.31" gradientUnits="userSpaceOnUse"><stop offset="0" stop-color="#2f6cb3"/><stop offset="0.2" stop-color="#2b65a9"/><stop offset="0.54" stop-color="#2a5392"/><stop offset="0.95" stop-color="#253b73"/><stop offset="1" stop-color="#253970"/></linearGradient><linearGradient id="linear-gradient-2" x1="20.5" y1="32.07" x2="85.51" y2="32.07" xlink:href="#linear-gradient"/></defs><path class="cls-1" d="M86.65,78.6H80.17V39a1,1,0,0,0-1-1H68.49a1,1,0,0,0-1,1V78.6H59.88V50.76a1,1,0,0,0-1-1H48.2a1,1,0,0,0-1,1V78.6H39.59V56.1a1,1,0,0,0-1-1H27.91a1,1,0,0,0-1,1V78.6H20.43a1,1,0,0,0,0,2H86.65a1,1,0,0,0,0-2Zm-49.06,0H28.91V57.1h8.68V78.6Zm20.29,0H49.2V51.76h8.68Zm20.29,0H69.49V40h8.68V78.6Z" transform="translate(-19.43 -12.38)"/><path class="cls-2" d="M84.45,13.17A3.08,3.08,0,0,0,82,12.41l-8.55,1.06A3.18,3.18,0,0,0,70.72,17a3.14,3.14,0,0,0,3.5,2.72l.7-.09a75.65,75.65,0,0,1-31.76,21.6,72.34,72.34,0,0,1-19.62,4.28,3.14,3.14,0,0,0,.09,6.27h.1a76.71,76.71,0,0,0,21.38-4.58,84.52,84.52,0,0,0,18.78-9.44,1,1,0,1,0-1.12-1.66,82.19,82.19,0,0,1-18.33,9.21,74.4,74.4,0,0,1-20.77,4.47h0a1.13,1.13,0,0,1-1.13-1.1,1.14,1.14,0,0,1,1.1-1.17A73.68,73.68,0,0,0,43.83,43.1,77.47,77.47,0,0,0,78.09,18.93a1,1,0,0,0-.9-1.62l-3.22.4a1.13,1.13,0,1,1-.28-2.25l8.55-1.07a1.15,1.15,0,0,1,1.27,1.13v8.54a1.14,1.14,0,1,1-2.27,0V21.47a1,1,0,0,0-1.77-.63A77.24,77.24,0,0,1,66.81,33.16a1,1,0,0,0-.18,1.41,1,1,0,0,0,1.4.18A78.76,78.76,0,0,0,79.24,24.2a3.14,3.14,0,0,0,6.27-.14V15.52A3.1,3.1,0,0,0,84.45,13.17Z" transform="translate(-19.43 -12.38)"/></svg>