<svg id="Camada_1" data-name="Camada 1" xmlns="http://www.w3.org/2000/svg" xmlns:xlink="http://www.w3.org/1999/xlink" viewBox="0 0 70.71 70.71"><defs><style>.cls-1,.cls-2,.cls-3,.cls-4,.cls-5,.cls-6{fill:none;stroke-linecap:round;stroke-linejoin:round;stroke-width:2px;}.cls-1{stroke:url(#linear-gradient);}.cls-2{stroke:url(#linear-gradient-2);}.cls-3{stroke:url(#linear-gradient-3);}.cls-4{stroke:url(#linear-gradient-4);}.cls-5{stroke:url(#linear-gradient-5);}.cls-6{stroke:url(#linear-gradient-6);}</style><linearGradient id="linear-gradient" x1="16.03" y1="26.19" x2="54.67" y2="26.19" gradientUnits="userSpaceOnUse"><stop offset="0" stop-color="#2c6bb2"/><stop offset="0.23" stop-color="#2b64a9"/><stop offset="0.6" stop-color="#285291"/><stop offset="1" stop-color="#24386f"/></linearGradient><linearGradient id="linear-gradient-2" x1="16.03" y1="41.08" x2="54.67" y2="41.08" xlink:href="#linear-gradient"/><linearGradient id="linear-gradient-3" x1="34.35" y1="46.8" x2="36.35" y2="46.8" xlink:href="#linear-gradient"/><linearGradient id="linear-gradient-4" x1="25.19" y1="35.35" x2="45.51" y2="35.35" xlink:href="#linear-gradient"/><linearGradient id="linear-gradient-5" x1="338.37" y1="253.01" x2="409.08" y2="253.01" xlink:href="#linear-gradient"/><linearGradient id="linear-gradient-6" x1="48.09" y1="9.02" x2="52.38" y2="9.02" xlink:href="#linear-gradient"/></defs><polygon class="cls-1" points="17.03 26.19 35.35 14.74 53.67 26.19 35.35 37.64 17.03 26.19"/><polyline class="cls-2" points="17.03 26.19 17.03 44.51 35.35 55.97 53.67 44.51 53.67 26.19"/><line class="cls-3" x1="35.35" y1="37.64" x2="35.35" y2="55.96"/><polyline class="cls-4" points="26.19 51.38 26.19 30.77 44.51 19.32"/><path class="cls-5" d="M373.72,218.66h0A34.35,34.35,0,1,0,408.08,253,35.17,35.17,0,0,0,387.47,221l11.45-2.29" transform="translate(-338.37 -217.66)"/><line class="cls-6" x1="51.38" y1="14.74" x2="49.09" y2="3.29"/></svg>