<svg id="Camada_1" data-name="Camada 1" xmlns="http://www.w3.org/2000/svg" xmlns:xlink="http://www.w3.org/1999/xlink" viewBox="0 0 65.43 62.27"><defs><style>.cls-1,.cls-2,.cls-3,.cls-4,.cls-5,.cls-6{fill:none;stroke-miterlimit:10;stroke-width:2px;}.cls-1{stroke:url(#linear-gradient);}.cls-2{stroke:url(#linear-gradient-2);}.cls-3{stroke:url(#linear-gradient-3);}.cls-4{stroke:url(#linear-gradient-4);}.cls-5{stroke:url(#linear-gradient-5);}.cls-6{stroke:url(#linear-gradient-6);}</style><linearGradient id="linear-gradient" x1="260.55" y1="-377.93" x2="266.85" y2="-377.93" gradientTransform="translate(-208.98 389.73)" gradientUnits="userSpaceOnUse"><stop offset="0" stop-color="#2e6bb1"/><stop offset="0.2" stop-color="#2a65a7"/><stop offset="0.54" stop-color="#295291"/><stop offset="0.95" stop-color="#243b72"/><stop offset="1" stop-color="#243870"/></linearGradient><linearGradient id="linear-gradient-2" x1="216.6" y1="-369.46" x2="266.55" y2="-369.46" xlink:href="#linear-gradient"/><linearGradient id="linear-gradient-3" x1="208.98" y1="-365.32" x2="274.41" y2="-365.32" xlink:href="#linear-gradient"/><linearGradient id="linear-gradient-4" x1="209.98" y1="-352.23" x2="273.41" y2="-352.23" xlink:href="#linear-gradient"/><linearGradient id="linear-gradient-5" x1="509.12" y1="-95.05" x2="545.57" y2="-95.05" gradientTransform="translate(-494.63 150.1)" xlink:href="#linear-gradient"/><linearGradient id="linear-gradient-6" x1="230.43" y1="-333.64" x2="252.96" y2="-333.64" xlink:href="#linear-gradient"/></defs><polyline class="cls-1" points="51.57 9.66 56.86 9.65 56.86 14.95"/><polyline class="cls-2" points="8.33 30.88 16.31 22.91 21.23 27.83 31.18 17.88 39.91 26.61 56.86 9.65"/><rect class="cls-3" x="1" y="1" width="63.43" height="46.82"/><line class="cls-4" x1="1" y1="37.5" x2="64.43" y2="37.5"/><path class="cls-5" d="M39.46,47.82V50.7c0,1.54-.14,5.22,4.75,5.41,0,0,5.73,0,5.73,5.16H15.49c0-5.19,5.74-5.16,5.74-5.16C26.11,55.92,26,52.24,26,50.7V47.82"/><line class="cls-6" x1="21.45" y1="56.09" x2="43.98" y2="56.09"/></svg>