<svg id="Camada_1" data-name="Camada 1" xmlns="http://www.w3.org/2000/svg" xmlns:xlink="http://www.w3.org/1999/xlink" viewBox="0 0 59.48 67.34"><defs><style>.cls-1,.cls-2,.cls-3,.cls-4,.cls-5,.cls-6,.cls-7{fill:none;stroke-linecap:round;stroke-linejoin:round;stroke-width:2px;}.cls-1{stroke:#c7348b;}.cls-2{stroke:url(#linear-gradient);}.cls-3{stroke:url(#linear-gradient-2);}.cls-4{stroke:url(#linear-gradient-3);}.cls-5{stroke:url(#linear-gradient-4);}.cls-6{stroke:url(#linear-gradient-5);}.cls-7{stroke:url(#linear-gradient-6);}</style><linearGradient id="linear-gradient" x1="275.09" y1="390.6" x2="283.88" y2="390.6" gradientUnits="userSpaceOnUse"><stop offset="0" stop-color="#2c6bb2"/><stop offset="0.23" stop-color="#2b64a9"/><stop offset="0.6" stop-color="#285291"/><stop offset="1" stop-color="#24386f"/></linearGradient><linearGradient id="linear-gradient-2" x1="267.9" y1="405.65" x2="298.65" y2="405.65" xlink:href="#linear-gradient"/><linearGradient id="linear-gradient-3" x1="311.39" y1="390.6" x2="320.19" y2="390.6" xlink:href="#linear-gradient"/><linearGradient id="linear-gradient-4" x1="296.63" y1="405.65" x2="327.38" y2="405.65" xlink:href="#linear-gradient"/><linearGradient id="linear-gradient-5" x1="25.11" y1="11.44" x2="33.5" y2="11.44" xlink:href="#linear-gradient"/><linearGradient id="linear-gradient-6" x1="285.76" y1="378.65" x2="308.65" y2="378.65" xlink:href="#linear-gradient"/></defs><path class="cls-1" d="M282.88,398.1" transform="translate(-267.9 -367.21)"/><path class="cls-2" d="M282.88,397.78v-11a3.4,3.4,0,0,0-6.79,0" transform="translate(-267.9 -367.21)"/><path class="cls-3" d="M281.39,403.46a3.4,3.4,0,1,1,4.81-4.81l8.7,8.88a10.61,10.61,0,0,1,2.75,7.56v18.46H279.47v-7.8s.13-2.75-2.67-7.08c0,0-4.27-7-5.87-9.26-1.26-1.79-2-2.53-2-12.15V381.34a3.6,3.6,0,0,1,7.19,0v13.13c0,1.78-.39,3.43,2.65,6.37s9.74,9.76,9.74,9.76" transform="translate(-267.9 -367.21)"/><path class="cls-4" d="M312.39,397.78v-11a3.4,3.4,0,0,1,6.8,0" transform="translate(-267.9 -367.21)"/><path class="cls-5" d="M313.88,403.46a3.4,3.4,0,1,0-4.8-4.81l-8.7,8.88a10.61,10.61,0,0,0-2.75,7.56v18.46h18.18v-7.8s-.13-2.75,2.66-7.08c0,0,4.28-7,5.87-9.26,1.26-1.79,2-2.53,2-12.15V381.34a3.6,3.6,0,0,0-7.19,0v13.13c0,1.78.38,3.43-2.66,6.37s-9.73,9.76-9.73,9.76" transform="translate(-267.9 -367.21)"/><circle class="cls-6" cx="29.3" cy="11.44" r="3.2"/><path class="cls-7" d="M304,376a1.9,1.9,0,0,0,1.2.78l1.92.31a.65.65,0,0,1,.57.64v1.94a.65.65,0,0,1-.57.64l-1.92.31a1.9,1.9,0,0,0-1.2.78l-.07.17a1.89,1.89,0,0,0,.3,1.4l1.14,1.57a.66.66,0,0,1-.06.86l-.68.68-.69.69a.63.63,0,0,1-.85,0l-1.58-1.14a1.87,1.87,0,0,0-1.39-.29l-.18.07a1.88,1.88,0,0,0-.78,1.2l-.3,1.92a.65.65,0,0,1-.65.56h-1.93a.65.65,0,0,1-.65-.56l-.3-1.92a1.88,1.88,0,0,0-.78-1.2l-.18-.07a1.9,1.9,0,0,0-1.4.29l-1.57,1.14a.65.65,0,0,1-.86,0l-.68-.69-.68-.68a.66.66,0,0,1-.06-.86l1.14-1.57a1.89,1.89,0,0,0,.3-1.4l-.08-.17a1.87,1.87,0,0,0-1.19-.78l-1.92-.31a.65.65,0,0,1-.57-.64v-1.94a.65.65,0,0,1,.57-.64l1.92-.31a1.87,1.87,0,0,0,1.19-.78l.08-.17a1.89,1.89,0,0,0-.3-1.4l-1.14-1.58a.65.65,0,0,1,.06-.85l.68-.69.68-.68a.66.66,0,0,1,.86-.06l1.57,1.15a1.9,1.9,0,0,0,1.4.29l.18-.07a1.88,1.88,0,0,0,.78-1.2l.3-1.92a.65.65,0,0,1,.65-.56h1.93a.65.65,0,0,1,.65.56l.3,1.92a1.88,1.88,0,0,0,.78,1.2l.18.07a1.87,1.87,0,0,0,1.39-.29l1.58-1.15a.64.64,0,0,1,.85.06l.69.68.68.69a.65.65,0,0,1,.06.85l-1.14,1.58a1.89,1.89,0,0,0-.3,1.4Z" transform="translate(-267.9 -367.21)"/></svg>