<svg id="Camada_1" data-name="Camada 1" xmlns="http://www.w3.org/2000/svg" xmlns:xlink="http://www.w3.org/1999/xlink" viewBox="0 0 80.01 47.79"><defs><style>.cls-1{fill:none;stroke-miterlimit:10;stroke:url(#linear-gradient);}.cls-1,.cls-2,.cls-3,.cls-4{stroke-width:2px;}.cls-2,.cls-3,.cls-4{fill:#c7348b;stroke-linecap:round;stroke-linejoin:round;}.cls-2{stroke:url(#linear-gradient-2);}.cls-3{stroke:url(#linear-gradient-3);}.cls-4{stroke:url(#linear-gradient-4);}</style><linearGradient id="linear-gradient" x1="10.5" y1="50" x2="90.52" y2="50" gradientUnits="userSpaceOnUse"><stop offset="0" stop-color="#2c6bb2"/><stop offset="0.23" stop-color="#2b64a9"/><stop offset="0.6" stop-color="#285291"/><stop offset="1" stop-color="#24386f"/></linearGradient><linearGradient id="linear-gradient-2" x1="53.66" y1="40.42" x2="56.52" y2="40.42" xlink:href="#linear-gradient"/><linearGradient id="linear-gradient-3" x1="71.56" y1="51.65" x2="75.04" y2="51.65" xlink:href="#linear-gradient"/><linearGradient id="linear-gradient-4" x1="21.46" y1="49.41" x2="27.86" y2="49.41" xlink:href="#linear-gradient"/></defs><path class="cls-1" d="M38.64,72.9h39a11.88,11.88,0,0,0,0-23.75,11.72,11.72,0,0,0-3.62.57,11.33,11.33,0,0,0,.23-2.26,11.86,11.86,0,0,0-19.63-9A17,17,0,0,0,22.46,49.2a11.87,11.87,0,0,0,.92,23.7H38.64" transform="translate(-10.5 -26.1)"/><path class="cls-2" d="M54.66,38.47a16.77,16.77,0,0,1,.86,3.89" transform="translate(-10.5 -26.1)"/><path class="cls-3" d="M74,49.72a12,12,0,0,1-1.48,3.85" transform="translate(-10.5 -26.1)"/><path class="cls-4" d="M22.46,49.19a11.74,11.74,0,0,1,4.4.48" transform="translate(-10.5 -26.1)"/></svg>