<svg id="Camada_1" data-name="Camada 1" xmlns="http://www.w3.org/2000/svg" xmlns:xlink="http://www.w3.org/1999/xlink" viewBox="0 0 65.16 65.16"><defs><style>.cls-1,.cls-2,.cls-4{fill:none;}.cls-1,.cls-2,.cls-3,.cls-4{stroke-miterlimit:10;stroke-width:2px;}.cls-1{stroke:url(#linear-gradient);}.cls-2{stroke:url(#linear-gradient-2);}.cls-3{fill:#f6f6f6;stroke:url(#linear-gradient-3);}.cls-4{stroke:url(#linear-gradient-4);}</style><linearGradient id="linear-gradient" x1="21.91" y1="32.58" x2="43.26" y2="32.58" gradientUnits="userSpaceOnUse"><stop offset="0" stop-color="#2f6cb3"/><stop offset="0.2" stop-color="#2b65a9"/><stop offset="0.54" stop-color="#2a5392"/><stop offset="0.95" stop-color="#253b73"/><stop offset="1" stop-color="#253970"/></linearGradient><linearGradient id="linear-gradient-2" x1="17.42" y1="44.97" x2="82.58" y2="44.97" xlink:href="#linear-gradient"/><linearGradient id="linear-gradient-3" x1="43.29" y1="54.75" x2="61.85" y2="54.75" xlink:href="#linear-gradient"/><linearGradient id="linear-gradient-4" x1="47.87" y1="55.17" x2="57.36" y2="55.17" xlink:href="#linear-gradient"/></defs><circle class="cls-1" cx="32.58" cy="32.58" r="9.67"/><path class="cls-2" d="M70.44,36.82c.94,1.84,3.63,2.35,3.63,2.35l5.8.93a2,2,0,0,1,1.71,1.95V47.9a2,2,0,0,1-1.71,2l-5.8.92s-2.69.52-3.63,2.36l-.22.53c-.63,2,.9,4.23.9,4.23l3.45,4.76a2,2,0,0,1-.17,2.59L72.33,67.3l-2.07,2.07a2,2,0,0,1-2.58.17l-4.76-3.45s-2.26-1.53-4.23-.9l-.54.23C56.31,66.36,55.8,69,55.8,69l-.93,5.81a2,2,0,0,1-1.95,1.7H47.08a2,2,0,0,1-1.95-1.7L44.2,69s-.51-2.68-2.35-3.62l-.54-.23c-2-.63-4.23.9-4.23.9l-4.76,3.45a2,2,0,0,1-2.58-.17L27.67,67.3,25.6,65.24a2,2,0,0,1-.17-2.59l3.45-4.76s1.53-2.26.9-4.23l-.22-.53c-.94-1.84-3.63-2.36-3.63-2.36l-5.8-.92a2,2,0,0,1-1.71-2V42.05a2,2,0,0,1,1.71-1.95l5.8-.93s2.69-.51,3.63-2.35l.22-.54c.63-2-.9-4.22-.9-4.22L25.43,27.3a2,2,0,0,1,.17-2.59l2.07-2.07,2.07-2.07a2,2,0,0,1,2.58-.17l4.76,3.45s2.26,1.54,4.23.9l.54-.22c1.84-.94,2.35-3.63,2.35-3.63l.93-5.8a2,2,0,0,1,1.95-1.71h5.84a2,2,0,0,1,1.95,1.71l.93,5.8s.51,2.69,2.35,3.63l.54.22c2,.64,4.23-.9,4.23-.9l4.76-3.45a2,2,0,0,1,2.58.17l2.07,2.07,2.07,2.07a2,2,0,0,1,.17,2.59l-3.45,4.76s-1.53,2.26-.9,4.22Z" transform="translate(-17.42 -12.39)"/><circle class="cls-3" cx="52.57" cy="54.75" r="8.28"/><polyline class="cls-4" points="48.55 55.55 51.25 58.07 56.58 51.44"/></svg>