<svg id="Camada_1" data-name="Camada 1" xmlns="http://www.w3.org/2000/svg" xmlns:xlink="http://www.w3.org/1999/xlink" viewBox="0 0 72.77 46.22"><defs><style>.cls-1,.cls-2,.cls-3{fill:none;stroke-miterlimit:10;stroke-width:2px;}.cls-1{stroke:url(#linear-gradient);}.cls-2{stroke:url(#linear-gradient-2);}.cls-3{stroke:url(#linear-gradient-3);}</style><linearGradient id="linear-gradient" x1="230.66" y1="319.54" x2="266.18" y2="319.54" gradientUnits="userSpaceOnUse"><stop offset="0" stop-color="#2c6bb2"/><stop offset="0.23" stop-color="#2b64a9"/><stop offset="0.6" stop-color="#285291"/><stop offset="1" stop-color="#24386f"/></linearGradient><linearGradient id="linear-gradient-2" x1="260.18" y1="321.4" x2="284.84" y2="321.4" xlink:href="#linear-gradient"/><linearGradient id="linear-gradient-3" x1="212.07" y1="321.4" x2="236.7" y2="321.4" xlink:href="#linear-gradient"/></defs><path class="cls-1" d="M248.42,297.43c1.52,0,8.38.21,8.38,6.55v4.64a1.86,1.86,0,0,1,1.65,1.85V313a1.87,1.87,0,0,1-1.55,1.84s-.95,3.79-3.23,5.79v2.5a4,4,0,0,0,2.21,3.39l5.64,3.05s3.66,1.76,3.66,5.3v2.38c0,.88.08,1.88-3.52,2.83a57.28,57.28,0,0,1-26.47,0c-3.61-.95-3.53-1.95-3.53-2.83v-2.38c0-3.54,3.66-5.3,3.66-5.3l5.64-3.05a4,4,0,0,0,2.21-3.39v-2.5c-2.28-2-3.22-5.79-3.22-5.79a1.88,1.88,0,0,1-1.56-1.84v-2.54a1.87,1.87,0,0,1,1.65-1.85V304C240,297.64,246.9,297.43,248.42,297.43Z" transform="translate(-212.07 -296.43)"/><path class="cls-2" d="M260.65,329.11l4.05-2.19a3.16,3.16,0,0,0,1.75-2.68v-2a10.33,10.33,0,0,1-2.55-4.57,1.47,1.47,0,0,1-1.23-1.45v-2a1.47,1.47,0,0,1,1.3-1.46h0V309.1c0-5,5.42-5.17,6.62-5.17s6.63.17,6.63,5.17v3.66h0a1.47,1.47,0,0,1,1.3,1.46v2a1.47,1.47,0,0,1-1.23,1.45,10.33,10.33,0,0,1-2.55,4.57v2a3.16,3.16,0,0,0,1.75,2.68l4.46,2.41s2.89,1.39,2.89,4.19v1.88c0,.69.06,1.49-2.79,2.24a43.27,43.27,0,0,1-10.46,1.22,46.53,46.53,0,0,1-5.7-.35" transform="translate(-212.07 -296.43)"/><path class="cls-3" d="M232,338.51a45.79,45.79,0,0,1-5.65.35,43.38,43.38,0,0,1-10.46-1.22c-2.84-.75-2.78-1.55-2.78-2.24v-1.88c0-2.8,2.89-4.19,2.89-4.19l4.46-2.41a3.14,3.14,0,0,0,1.74-2.68v-2a10.33,10.33,0,0,1-2.55-4.57,1.47,1.47,0,0,1-1.22-1.45v-2a1.47,1.47,0,0,1,1.3-1.46h0V309.1c0-5,5.42-5.17,6.62-5.17s6.62.17,6.62,5.17v3.66h0a1.48,1.48,0,0,1,1.31,1.46v2a1.48,1.48,0,0,1-1.23,1.45,10.33,10.33,0,0,1-2.55,4.57v2a3.14,3.14,0,0,0,1.74,2.68l4,2.18" transform="translate(-212.07 -296.43)"/></svg>