<svg id="Camada_1" data-name="Camada 1" xmlns="http://www.w3.org/2000/svg" xmlns:xlink="http://www.w3.org/1999/xlink" viewBox="0 0 91.28 65.98"><defs><style>.cls-1,.cls-10,.cls-11,.cls-2,.cls-3,.cls-4,.cls-5,.cls-6,.cls-7,.cls-8,.cls-9{fill:none;}.cls-1,.cls-10,.cls-11,.cls-12,.cls-2,.cls-3,.cls-4,.cls-5,.cls-6,.cls-7,.cls-8,.cls-9{stroke-miterlimit:10;stroke-width:2px;}.cls-1{stroke:url(#linear-gradient);}.cls-2{stroke:url(#linear-gradient-2);}.cls-3{stroke:url(#linear-gradient-3);}.cls-4{stroke:url(#linear-gradient-4);}.cls-5{stroke:url(#linear-gradient-5);}.cls-6{stroke:url(#linear-gradient-6);}.cls-7{stroke:url(#linear-gradient-7);}.cls-8{stroke:url(#linear-gradient-8);}.cls-9{stroke:url(#linear-gradient-9);}.cls-10{stroke:url(#linear-gradient-10);}.cls-11{stroke:url(#linear-gradient-11);}.cls-12{fill:#fff;stroke:url(#linear-gradient-12);}</style><linearGradient id="linear-gradient" x1="299.96" y1="333.02" x2="342.12" y2="333.02" gradientUnits="userSpaceOnUse"><stop offset="0" stop-color="#2c6bb2"/><stop offset="0.23" stop-color="#2b64a9"/><stop offset="0.6" stop-color="#285291"/><stop offset="1" stop-color="#24386f"/></linearGradient><linearGradient id="linear-gradient-2" x1="294.94" y1="318.18" x2="306.98" y2="318.18" xlink:href="#linear-gradient"/><linearGradient id="linear-gradient-3" x1="304.98" y1="318.18" x2="317.02" y2="318.18" xlink:href="#linear-gradient"/><linearGradient id="linear-gradient-4" x1="37.98" y1="26.31" x2="91.28" y2="26.31" xlink:href="#linear-gradient"/><linearGradient id="linear-gradient-5" x1="335.11" y1="318.18" x2="347.14" y2="318.18" xlink:href="#linear-gradient"/><linearGradient id="linear-gradient-6" x1="325.07" y1="318.18" x2="337.11" y2="318.18" xlink:href="#linear-gradient"/><linearGradient id="linear-gradient-7" x1="58.61" y1="26.31" x2="61.84" y2="26.31" xlink:href="#linear-gradient"/><linearGradient id="linear-gradient-8" x1="315.02" y1="318.18" x2="327.07" y2="318.18" xlink:href="#linear-gradient"/><linearGradient id="linear-gradient-9" x1="48.6" y1="26.31" x2="53.95" y2="26.31" xlink:href="#linear-gradient"/><linearGradient id="linear-gradient-10" x1="67.43" y1="26.31" x2="70.66" y2="26.31" xlink:href="#linear-gradient"/><linearGradient id="linear-gradient-11" x1="75.32" y1="26.31" x2="80.67" y2="26.31" xlink:href="#linear-gradient"/><linearGradient id="linear-gradient-12" x1="256.41" y1="315.17" x2="306.91" y2="315.17" xlink:href="#linear-gradient"/></defs><path class="cls-1" d="M341.12,320.19v24.66H326.64v-12.8s0-5.55-5.59-5.55-5.59,5.55-5.59,5.55v12.8H301V320.19" transform="translate(-256.41 -282.18)"/><path class="cls-2" d="M295.94,315.17a5,5,0,0,0,10,0" transform="translate(-256.41 -282.18)"/><path class="cls-3" d="M306,315.17a5,5,0,1,0,10,0" transform="translate(-256.41 -282.18)"/><polyline class="cls-4" points="64.63 32.99 89.73 32.99 83.7 19.63 64.63 19.63 64.64 19.63 45.57 19.63 39.53 32.99 64.64 32.99"/><path class="cls-5" d="M346.14,315.17a5,5,0,1,1-10,0" transform="translate(-256.41 -282.18)"/><path class="cls-6" d="M336.11,315.17a5,5,0,0,1-10,0" transform="translate(-256.41 -282.18)"/><line class="cls-7" x1="59.61" y1="32.99" x2="60.84" y2="19.63"/><path class="cls-8" d="M326.07,315.17a5,5,0,0,1-5,5h0a5,5,0,0,1-5-5" transform="translate(-256.41 -282.18)"/><line class="cls-9" x1="49.57" y1="32.99" x2="52.98" y2="19.63"/><line class="cls-10" x1="69.66" y1="32.99" x2="68.43" y2="19.63"/><line class="cls-11" x1="79.7" y1="32.99" x2="76.29" y2="19.63"/><path class="cls-12" d="M281.66,283.18c2.2,0,12.13.31,12.13,9.48v6.71a2.71,2.71,0,0,1,2.39,2.68v3.68a2.72,2.72,0,0,1-2.25,2.66s-1.37,5.48-4.67,8.37v3.63a5.76,5.76,0,0,0,3.19,4.9l8.17,4.42s5.29,2.54,5.29,7.66v3.44c0,1.28.12,2.73-5.1,4.1a82.62,82.62,0,0,1-38.3,0c-5.22-1.37-5.1-2.82-5.1-4.1v-3.44c0-5.12,5.3-7.66,5.3-7.66l8.16-4.42a5.74,5.74,0,0,0,3.19-4.9v-3.63c-3.29-2.89-4.66-8.37-4.66-8.37a2.71,2.71,0,0,1-2.25-2.66v-3.68a2.71,2.71,0,0,1,2.39-2.68v-6.71C269.53,283.49,279.46,283.18,281.66,283.18Z" transform="translate(-256.41 -282.18)"/></svg>