<?xml version="1.0" encoding="utf-8"?>
<!-- Generator: Adobe Illustrator 24.0.3, SVG Export Plug-In . SVG Version: 6.00 Build 0)  -->
<svg version="1.1" id="Layer_1" xmlns="http://www.w3.org/2000/svg" xmlns:xlink="http://www.w3.org/1999/xlink" x="0px" y="0px"
	 viewBox="0 0 405.16 456.35" style="enable-background:new 0 0 405.16 456.35;" xml:space="preserve">
<g>
	<path d="M302.77,0v1c2.72,0,5.46,0.06,8.14,0.17c14.47,0.62,22.03,5.73,24.11,9.93c1.79,3.62,0.88,8.06-2.7,13.2
		c-11.29,16.19-30.97,23.34-49.99,30.26c-3.39,1.23-6.9,2.51-10.28,3.81c-43.08,16.57-82.09,47.29-109.83,86.49
		c-13.92,19.67-24.64,40.86-31.87,63c-7.53,23.03-11.07,46.53-10.55,69.84c0.57,25.38,7.26,52.99,17.88,73.86
		c9.54,18.75,27.14,41.78,56.83,45.08c2.15,0.24,4.33,0.36,6.47,0.36c26.52,0,47.11-18.55,60.29-32.51
		c18.59-19.68,32.35-43.62,39.81-69.24c7.89-27.09,8.69-56.19,2.31-84.13c-3.88-16.99-11.97-31.87-19.8-46.26
		c-4.77-8.76-9.69-17.82-13.69-27.35c-2.63-6.27-3.52-12.16-2.65-17.52c3.54-21.86,35.1-40.05,52.05-49.83
		c11.96-6.89,23.67-10.53,33.88-10.53c10.3,0,19.11,3.6,26.18,10.69c3.99,4,7.44,9.16,10.26,15.33
		c9.78,21.4,14.54,49.25,14.54,85.16c0,51.46-10.67,99.61-31.72,143.12c-21.02,43.44-49.96,78.36-86.03,103.77
		c-34.44,24.27-77.05,37.63-119.98,37.63c-20.96,0-41.29-3.17-60.45-9.43c-20.03-6.54-38.33-16.34-54.39-29.1
		c-23.47-18.66-40.05-44.14-46.68-71.75c-5-20.82-5.2-44.63-0.59-70.77c3.85-21.84,10.93-44.82,21.04-68.32
		c18.52-43.06,46.56-83.25,83.34-119.45c27.1-26.68,58.24-47.64,92.56-62.29C237.88,8.6,271.08,1,302.77,1V0 M302.77,0
		c-35.19,0-69.66,9.55-101.91,23.31c-34.55,14.75-66.1,36.15-92.86,62.49c-34.85,34.3-64.19,74.75-83.56,119.77
		C6.41,247.49-6.98,299.88,3.94,345.3c6.84,28.45,24.22,54.17,47.03,72.3c33.19,26.39,74.2,38.75,115.46,38.75
		c42.68,0,85.64-13.22,120.55-37.82c36.37-25.62,65.15-60.31,86.36-104.15c21.21-43.85,31.82-91.71,31.82-143.56
		c0-28.11-2.79-59.68-14.63-85.57c-2.96-6.47-6.49-11.63-10.46-15.62c-7.61-7.64-16.86-10.99-26.89-10.99
		c-10.91,0-22.74,3.96-34.38,10.67c-17.64,10.17-48.94,28.29-52.54,50.53c-0.99,6.09,0.33,12.37,2.71,18.06
		c10.61,25.31,27.24,46.32,33.43,73.44c6.27,27.47,5.59,56.55-2.29,83.63c-7.45,25.58-21.3,49.47-39.58,68.83
		c-16.06,17-35.6,32.2-59.56,32.2c-2.09,0-4.21-0.12-6.36-0.35c-52.03-5.78-72.82-73.67-73.82-117.97
		c-2.14-95.08,64.25-184.77,151.61-218.38c22.09-8.5,47.2-15.02,60.73-34.43c12.2-17.5-7.83-24.09-22.19-24.7
		C308.23,0.06,305.5,0,302.77,0L302.77,0z"/>
</g>
</svg>
