<?xml version="1.0" encoding="utf-8"?>
<!-- Generator: Adobe Illustrator 24.0.3, SVG Export Plug-In . SVG Version: 6.00 Build 0)  -->
<svg version="1.1" id="Layer_1" xmlns="http://www.w3.org/2000/svg" xmlns:xlink="http://www.w3.org/1999/xlink" x="0px" y="0px"
	 viewBox="0 0 364.62 497.37" style="enable-background:new 0 0 364.62 497.37;" xml:space="preserve">
<style type="text/css">
	.st0{fill:none;stroke:#000000;stroke-miterlimit:10;}
</style>
<g>
	<path class="st0" d="M324.05,323.72H80.98c-22.13,0-40.07-17.94-40.07-40.07V40.57C40.9,18.44,58.84,0.5,80.98,0.5h243.07
		c22.13,0,40.07,17.94,40.07,40.07v243.07C364.12,305.78,346.18,323.72,324.05,323.72z"/>
	<path class="st0" d="M67.49,496.87H9.98c-5.24,0-9.48-4.25-9.48-9.48v-57.51c0-5.24,4.25-9.48,9.48-9.48h57.51
		c5.24,0,9.48,4.25,9.48,9.48v57.51C76.98,492.62,72.73,496.87,67.49,496.87z"/>
	<path class="st0" d="M299.59,420.39h-32.55c-2.96,0-5.37-2.4-5.37-5.37v-32.55c0-2.96,2.4-5.37,5.37-5.37h32.55
		c2.96,0,5.37,2.4,5.37,5.37v32.55C304.96,417.99,302.56,420.39,299.59,420.39z"/>
</g>
</svg>
