<?xml version="1.0" encoding="utf-8"?>
<!-- Generator: Adobe Illustrator 24.2.3, SVG Export Plug-In . SVG Version: 6.00 Build 0)  -->
<svg version="1.1" id="Camada_1" xmlns="http://www.w3.org/2000/svg" xmlns:xlink="http://www.w3.org/1999/xlink" x="0px" y="0px"
	 viewBox="0 0 17 17" style="enable-background:new 0 0 17 17;" xml:space="preserve">
<style type="text/css">
	.st0{fill:#FFFFFF;}
</style>
<path class="st0" d="M13.7,4.8c0,0.1,0,0.2-0.1,0.4c0,0.1-0.1,0.2-0.2,0.3c-0.1,0.1-0.2,0.2-0.3,0.2c-0.1,0-0.2,0.1-0.4,0.1
	s-0.2,0-0.4-0.1c-0.1,0-0.2-0.1-0.3-0.2c-0.1-0.1-0.2-0.2-0.2-0.3c0-0.1-0.1-0.2-0.1-0.4c0-0.2,0.1-0.5,0.3-0.7
	c0.2-0.2,0.4-0.3,0.7-0.3s0.5,0.1,0.7,0.3C13.6,4.3,13.7,4.5,13.7,4.8z M16.6,9L16.6,9l-0.1,3.4c0,1.2-0.5,2.4-1.4,3.2
	c-0.9,0.9-2,1.3-3.2,1.4L8.6,17h0l-3.4-0.1c-1.2,0-2.4-0.5-3.2-1.4c-0.9-0.9-1.3-2-1.4-3.2L0.6,9v0l0.1-3.4c0-1.2,0.5-2.4,1.4-3.2
	C2.9,1.5,4,1,5.2,1L8.6,1h0L12,1c1.2,0,2.4,0.5,3.2,1.4c0.9,0.9,1.3,2,1.4,3.2L16.6,9z M15.1,9l-0.1-3.3c0-0.8-0.3-1.6-0.9-2.2
	c-0.6-0.6-1.4-0.9-2.2-0.9L8.6,2.5L5.3,2.5c-0.8,0-1.6,0.3-2.2,0.9C2.5,4,2.2,4.8,2.2,5.6L2.1,9l0.1,3.3c0,0.8,0.3,1.6,0.9,2.2
	c0.6,0.6,1.4,0.9,2.2,0.9l3.3,0.1l3.3-0.1c0.8,0,1.6-0.3,2.2-0.9c0.6-0.6,0.9-1.4,0.9-2.2L15.1,9z M12.7,9c0,1.1-0.4,2.1-1.2,2.9
	s-1.8,1.2-2.9,1.2s-2.1-0.4-2.9-1.2S4.5,10.1,4.5,9s0.4-2.1,1.2-2.9s1.8-1.2,2.9-1.2s2.1,0.4,2.9,1.2S12.7,7.9,12.7,9z M11.2,9
	c0-0.7-0.3-1.4-0.8-1.9C10,6.6,9.3,6.3,8.6,6.3c-0.7,0-1.4,0.3-1.9,0.8S6,8.3,6,9c0,0.7,0.3,1.4,0.8,1.9c0.5,0.5,1.2,0.8,1.9,0.8
	c0.7,0,1.4-0.3,1.9-0.8C11,10.3,11.2,9.7,11.2,9z"/>
</svg>
