<svg version="1.1" id="Camada_1" xmlns="http://www.w3.org/2000/svg" x="0" y="0" viewBox="0 0 120 120" style="enable-background:new 0 0 120 120" xml:space="preserve"><style>.st0{fill:none;stroke:#001e27;stroke-width:2;stroke-linecap:round;stroke-linejoin:round;stroke-miterlimit:10}</style><path class="st0" d="M24.9 79.7h-14c-7.2 0-8.6-8.3-8.6-8.3l-1.1-6.7s-1.9-7.2 7.5-9.4l7.5-2.2s5.3-8.8 8.6-13.6C27.7 35.3 29 35 37 35h23.6c4.6 0 7-.5 12.1 4.3l18.4 15.2 22.2 2.9s5.3.3 4.6 6.1c0 0-.5 6.1-.8 8.1-.3 2.9-1.3 8.3-8.6 8.3H102M33.2 55.8H72"/><circle class="st0" cx="34.5" cy="79.7" r="9.6"/><circle class="st0" cx="92.7" cy="79.7" r="9.6"/><path class="st0" d="M43.9 79.7h39.2"/></svg>