<svg version="1.1" id="Camada_1" xmlns="http://www.w3.org/2000/svg" x="0" y="0" viewBox="0 0 120 120" style="enable-background:new 0 0 120 120" xml:space="preserve"><style>.st0{fill:none;stroke:#001e27;stroke-width:2;stroke-linecap:round;stroke-linejoin:round;stroke-miterlimit:10}</style><path class="st0" d="m78.7 60.6 37.5 37.6-20.3 20.1-37.3-37.6M38.5 60.6 1.2 23.3 21.3 3.2l37.3 37.4M11.3 33.4l10-10.1M18.7 40.8l6.2-6.2M26.3 48.4l9.9-10.1M33.7 55.8l6.2-6M63.9 86l6.2-6.2M71.3 93.4l10.1-9.9"/><circle class="st0" cx="93.6" cy="95.7" r="5.5"/><g><path class="st0" d="M9.7 89.2 94.1 5.3c2.8-2.8 7.1-2.8 9.9 0l10.1 10.1c2.8 2.8 2.8 7.1 0 9.9l-84.4 83.9M9.7 89.2l20.1 20.1M1 118.3l8.7-29.1M1 118.3l28.8-9M86 13.1l20.3 20.3M79.6 19.8l20 20.1M89.7 29.7 19.9 99.4"/></g></svg>