<svg version="1.1" id="Camada_1" xmlns="http://www.w3.org/2000/svg" x="0" y="0" viewBox="0 0 120 120" style="enable-background:new 0 0 120 120" xml:space="preserve"><style>.st0{fill:none;stroke:#001e27;stroke-width:2;stroke-linecap:round;stroke-linejoin:round;stroke-miterlimit:10}</style><path class="st0" d="M1.6 91.5s0-30.2 59-30.2 59 30.2 59 30.2h0c0 9.7-8 17.7-17.7 17.7H19.3c-9.7-.2-17.7-8-17.7-17.7h0z"/><path class="st0" d="M34.6 83.5S36.5 69.8 51.4 62c0 0 .5-.2.9-.5M54 83.5S55.9 70 70.8 62c0 0 .5-.2.7-.5M73.1 83.5s1.7-11.6 13.7-19.8M43.6 12.4s-7.1 5.2 0 15.1c0 0 6.1 8.7-.7 15.1M60.8 12.4s-7.1 5.2 0 15.1c0 0 6.1 8.7-.7 15.1M78.1 12.4s-7.1 5.2 0 15.1c0 0 6.1 8.7-.7 15.1"/></svg>