<svg version="1.1" id="Camada_1" xmlns="http://www.w3.org/2000/svg" x="0" y="0" viewBox="0 0 120 120" style="enable-background:new 0 0 120 120" xml:space="preserve"><style>.st0{fill:none;stroke:#001e27;stroke-width:2;stroke-linecap:round;stroke-linejoin:round;stroke-miterlimit:10}</style><path class="st0" d="M13.3 49.7v12.9c0 4.4.2 8.5 9.9 8.5 19.9 0 45.3 1.3 74.9 17.1 5.5 2.8 5.9-2.8 5.9-6.6V17.9c0-3.7-.4-9.4-5.9-6.6-29.6 15.8-55.1 17.1-75 17.1-9.4 0-9.9 4.2-9.9 8.5.1 4 .1 12.8.1 12.8M38.2 27.8v43.8"/><path class="st0" d="M103.7 35c8.1 0 14.7 6.6 14.7 14.7s-6.6 14.7-14.7 14.7M38 71.6l14.5 40.3H33.6L18.7 71.1M13.3 63.3H7.8c-3.3 0-5.9-2.6-5.9-5.9V42c0-3.3 2.6-5.9 5.9-5.9h5.5"/></svg>