<svg version="1.1" id="Camada_1" xmlns="http://www.w3.org/2000/svg" x="0" y="0" viewBox="0 0 120 120" style="enable-background:new 0 0 120 120" xml:space="preserve"><style>.st0{fill:none;stroke:#001e27;stroke-width:2;stroke-linecap:round;stroke-linejoin:round;stroke-miterlimit:10}</style><path class="st0" d="M31.9 9.3h0c0 9.8 14.1 2.3 14.3 0 0-2.4-14.3-9.7-14.3 0h0z"/><path class="st0" d="M76.4 9.3h5.1s9.8 0 1.9 12.4L59.5 60.6s-2.1 3.7-5.2 3.7-5.2-3.7-5.2-3.7L24.9 21.7c-7.8-12.4 2-12.4 2-12.4H32"/><path class="st0" d="M76.4 9.3h0c0 9.8-14.1 2.3-14.3 0 .2-2.4 14.3-9.7 14.3 0h0zM54.2 64.3V99c0 10.6-8.7 19.4-19.4 19.4S15.5 109.6 15.5 99s8.7-19.4 19.4-19.4h44.8"/><circle class="st0" cx="93.3" cy="79.6" r="5.9"/><circle class="st0" cx="93.3" cy="79.6" r="13.6"/></svg>