<svg version="1.1" id="Camada_1" xmlns="http://www.w3.org/2000/svg" x="0" y="0" viewBox="0 0 120 120" style="enable-background:new 0 0 120 120" xml:space="preserve"><style>.st0{fill:none;stroke:#001e27;stroke-width:2;stroke-linecap:round;stroke-linejoin:round;stroke-miterlimit:10}</style><path class="st0" d="M89.2 96.2H29.3c-6 0-10.8-4.8-10.8-10.8v-26"/><circle class="st0" cx="38.2" cy="105.8" r="9.4"/><circle class="st0" cx="89.2" cy="105.8" r="9.4"/><path class="st0" d="M101.2 44.5v16.6M18.5 26.7 81 35.4M101.2 61.1v4.1c0 6-4.8 10.8-10.8 10.8H29.3c-6 0-10.8-4.8-10.8-10.8V14L.7 6.3"/><path class="st0" d="M115.6 14.9c.5.7.2 1.7-.2 2.2l-6.7 9.1 8.9 6.5.7.7c.5 1 0 2.4-1 2.9l-36 18.3c-.5.2-1.2.2-1.7 0s-1-.5-1.2-1c-.2-.5-.2-1-.2-1.4l7-39.9c.2-.7.7-1.4 1.4-1.7.7-.2 1.4-.2 2.2.2l8.9 6.5 6.7-8.9c.7-1 2.2-1.2 3.1-.5l7.9 5.8c-.2.8 0 1 .2 1.2h0z"/></svg>