<svg version="1.1" id="Camada_1" xmlns="http://www.w3.org/2000/svg" x="0" y="0" viewBox="0 0 120 120" style="enable-background:new 0 0 120 120" xml:space="preserve"><style>.st0{fill:none;stroke:#001e27;stroke-width:2;stroke-linecap:round;stroke-linejoin:round;stroke-miterlimit:10}</style><ellipse class="st0" cx="64.2" cy="59.8" rx="54.3" ry="57.2"/><path class="st0" d="M115.1 39.9 14.9 83.7M118.2 53.7 22.1 95.8M117.8 69.1l-85.1 37.3M112.1 86.8l-63.5 27.8M69.6 59.9l-41-43.3M56.2 65.6 19.7 27.1M42.9 71.5 13.2 40.1M29.6 77.3 10 56.6M46.3 5.8v29.4M59.5 2.8v46.5M72.8 3.3v55.1M86.1 7.5v45.1M99.4 16.3v30.5M65 117s-23.3.7-43.7-10.6c0 0-10-5.8-18.7 0"/></svg>