<svg version="1.1" id="Camada_1" xmlns="http://www.w3.org/2000/svg" x="0" y="0" viewBox="0 0 120 120" style="enable-background:new 0 0 120 120" xml:space="preserve"><style>.st0{fill:none;stroke:#001e27;stroke-width:2;stroke-linecap:round;stroke-linejoin:round;stroke-miterlimit:10}</style><path class="st0" d="M60 3c53 0 60.2 7.9 58.3 15.7-1.2 4-4.7 8.7-10.5 8.6-11.9-.5-35.9-3.5-47.8-3.5s-35.9 3-47.8 3.5c-5.7.4-9.2-4.5-10.5-8.6C-.2 10.9 7 3 60 3zM105.7 27.7 60 119.3 14.3 27.7"/><circle class="st0" cx="44.8" cy="39.6" r="9.1"/><circle class="st0" cx="53.2" cy="69.6" r="9.1"/><path class="st0" d="M73.3 92.6c-1-.3-2.1-.5-3.1-.5-5.1 0-9.1 4-9.1 9.1 0 3.1 1.7 5.9 4.2 7.7M89.1 61.1c-1.6-2.1-4.2-3.5-7.2-3.5-5.1 0-9.1 4-9.1 9.1s4 9.1 8.9 9.1M72.8 36.1l5.8 6.8M45 89.1l3.6.3M29.9 59l7.7-2M62.3 54.6l6.8-6.1"/></svg>