<svg version="1.1" id="Camada_1" xmlns="http://www.w3.org/2000/svg" x="0" y="0" viewBox="0 0 120 120" style="enable-background:new 0 0 120 120" xml:space="preserve"><style>.st1,.st2{fill:none;stroke:#001e27;stroke-width:1.9999;stroke-linecap:round;stroke-linejoin:round;stroke-miterlimit:9.9996}.st2{stroke-width:2.0001;stroke-miterlimit:10.0003}</style><path d="M60.3 101.3c8.2 0 9.6 1.4 12.8 3 14 7.2 20.9-4.6 20.9-4.6 5.2-8.8-9.6-29.3-9.6-29.3-12.2-17.9-24.1-16.7-24.1-16.7s-12.2-1.2-24.1 16.7c0 0-14.6 20.7-9.6 29.3 0 0 7.2 11.8 20.9 4.6 3.2-1.6 4.6-3 12.8-3z" style="fill:none;stroke:#001e27;stroke-width:2;stroke-linecap:round;stroke-linejoin:round;stroke-miterlimit:10"/><ellipse transform="rotate(-55.36 15.245 54.742)" class="st1" cx="15.2" cy="54.7" rx="11.2" ry="14.5"/><ellipse transform="rotate(-19.511 42.096 30.917)" class="st2" cx="42.1" cy="30.9" rx="11.8" ry="15.3"/><ellipse transform="rotate(-34.64 105.103 54.662)" class="st1" cx="105.1" cy="54.7" rx="14.5" ry="11.2"/><ellipse transform="rotate(-70.489 78.362 31.022)" class="st2" cx="78.4" cy="31" rx="15.3" ry="11.8"/></svg>