<svg version="1.1" id="Camada_1" xmlns="http://www.w3.org/2000/svg" x="0" y="0" viewBox="0 0 120 120" style="enable-background:new 0 0 120 120" xml:space="preserve"><style>.st0{fill:none;stroke:#001e27;stroke-width:2;stroke-linecap:round;stroke-linejoin:round;stroke-miterlimit:10}</style><path class="st0" d="M87.4 78 42.3 32.9c3.5-7.7 2-17-4.4-23.4S22.2 1.8 14.5 5.1L28.4 19 17.8 29.6 3.9 15.7c-3.5 7.7-2 17 4.4 23.4s15.7 7.7 23.4 4.4l45.2 45.2c-3.5 7.7-2 17 4.4 23.4 6.4 6.4 15.7 7.7 23.4 4.4l-13.9-13.9L101.4 92l13.9 13.9c3.5-7.7 2-17-4.4-23.4-6.5-6.5-15.8-7.9-23.5-4.5z"/><path class="st0" d="M68.4 50.2 60.2 42l7.9-3.8c3.3-6.2 4.6-10.2 6.2-18.7L89.1 6.7c4.9-4.2 11.3-4.2 15.5 0l3.7 3.7 3.7 3.7c4.2 4.2 4.2 10.6 0 15.5L99.1 44.4c-8.4 1.6-12.4 3.1-18.7 6.2l-3.8 7.9-8.2-8.3zM49.8 61.6 25.6 85.7c-5.9 1.1-11.9 4.2-11.9 4.2L4 107.1l3.7 3.7h0l3.7 3.7 17.2-9.7s3.1-6 4.2-11.9h0l24.1-24.1"/></svg>