<svg version="1.1" id="Camada_1" xmlns="http://www.w3.org/2000/svg" x="0" y="0" viewBox="0 0 120 120" style="enable-background:new 0 0 120 120" xml:space="preserve"><style>.st0{fill:none;stroke:#001e27;stroke-width:2;stroke-linecap:round;stroke-linejoin:round;stroke-miterlimit:10}</style><path class="st0" d="M83.2 55.9c11.7-7.5-7.5-50.7-7.5-50.7-2.2-3.8-5.6-3.7-5.6-3.7-2.9 0-2.7 3.8-2.7 3.8l.6 47.5c0 3 3 3.5 4 3.5-.3 13.6-1 35.8-3 51.5 0 0-2.7 11.4 9.6 11.2s9.3-11.4 9.3-11.4c-2.8-15.7-4-38.1-4.7-51.7zM40.8 26.3V4.8c0-1.3 1-2.2 2.1-2.2s2.1 1 2.1 2.2v21.4c0 1.4 1.1 2.6 2.4 2.6s2.4-1.1 2.4-2.6V4.8c0-1.3 1-2.2 2.1-2.2s2.1 1 2.1 2.2v21.4h0c0 1.4 1.1 2.6 2.4 2.6s2.4-1.1 2.4-2.6h0V4.8c0-1.3 1-2.2 2.1-2.2s2.1 1 2.1 2.2l.1 23.2v16.3c0 9.4-10.2 9.3-10.2 9.3s2.4 41.1 4 55c0 0 1.8 11.4-8.8 11.4s-8.8-11.8-8.8-11.8l3.4-54.4C31.7 53 31.9 42 31.9 42l-.2-37c0-1.3 1-2.2 2.1-2.2s2.2.8 2.2 2.1v21.4c0 1.4 1.1 2.6 2.4 2.6 1.3-.1 2.4-1.2 2.4-2.6"/></svg>