<svg version="1.1" id="Camada_1" xmlns="http://www.w3.org/2000/svg" x="0" y="0" viewBox="0 0 120 120" style="enable-background:new 0 0 120 120" xml:space="preserve"><style>.st0{fill:none;stroke:#001e27;stroke-width:2;stroke-linecap:round;stroke-linejoin:round;stroke-miterlimit:10}</style><path class="st0" d="M47 118.9V91.8S33.3 83.9 30.4 73l-5-22.1s-2.7-11.4 4.3-13c0 0 8.9-2.3 12.6 12.2M54.8 50.2V18.7s.2-8.3-6.2-8.3-6.2 8.3-6.2 8.3v31.5"/><path class="st0" d="M67.3 50.2V10.9s.2-8.3-6.2-8.3-6.1 8.3-6.1 8.3v39.3M79.9 50.2V18.7s.2-8.3-6.2-8.3-6.2 8.3-6.2 8.3v31.5"/><path class="st0" d="M79.9 50.2V27s-.2-8.3 6.2-8.3 6.2 8.3 6.2 8.3v43.9s0 20.7-10.1 20.7v27.1"/></svg>