<svg id="Camada_1" data-name="Camada 1" xmlns="http://www.w3.org/2000/svg" xmlns:xlink="http://www.w3.org/1999/xlink" viewBox="0 0 78.53 81.71"><defs><style>.cls-1{fill:url(#Gradiente_sem_nome);}.cls-2{fill:url(#Gradiente_sem_nome_2);}.cls-3{fill:url(#Gradiente_sem_nome_3);}.cls-4{fill:url(#Gradiente_sem_nome_4);}.cls-5{fill:url(#Gradiente_sem_nome_5);}.cls-6{fill:url(#Gradiente_sem_nome_6);}.cls-7{fill:url(#Gradiente_sem_nome_7);}.cls-8{fill:url(#Gradiente_sem_nome_8);}.cls-9{fill:url(#Gradiente_sem_nome_9);}.cls-10{fill:url(#Gradiente_sem_nome_10);}.cls-11{fill:url(#Gradiente_sem_nome_11);}.cls-12{fill:url(#Gradiente_sem_nome_12);}</style><linearGradient id="Gradiente_sem_nome" x1="59.92" y1="-138.9" x2="91.52" y2="-138.9" gradientTransform="matrix(1, 0, 0, -1, -9, -83.81)" gradientUnits="userSpaceOnUse"><stop offset="0" stop-color="#2f6cb3"/><stop offset="0.2" stop-color="#2b65a9"/><stop offset="0.54" stop-color="#2a5392"/><stop offset="0.95" stop-color="#253b73"/><stop offset="1" stop-color="#253970"/></linearGradient><linearGradient id="Gradiente_sem_nome_2" x1="85.24" y1="-152.12" x2="92.63" y2="-152.12" gradientTransform="matrix(0.71, 0.71, 0.71, -0.71, 124.62, -102.14)" xlink:href="#Gradiente_sem_nome"/><linearGradient id="Gradiente_sem_nome_3" x1="89.34" y1="-165.57" x2="115.41" y2="-165.57" xlink:href="#Gradiente_sem_nome"/><linearGradient id="Gradiente_sem_nome_4" x1="36.88" y1="-145.19" x2="90.3" y2="-145.19" xlink:href="#Gradiente_sem_nome"/><linearGradient id="Gradiente_sem_nome_5" x1="30.21" y1="-78.07" x2="78.98" y2="-78.07" gradientTransform="matrix(1, 0, 0, -1, -27.88, -65.76)" xlink:href="#Gradiente_sem_nome"/><linearGradient id="Gradiente_sem_nome_6" x1="32.53" y1="-69.09" x2="76.66" y2="-69.09" gradientTransform="matrix(1, 0, 0, -1, -27.88, -65.76)" xlink:href="#Gradiente_sem_nome"/><linearGradient id="Gradiente_sem_nome_7" x1="46.64" y1="-125.83" x2="64.52" y2="-125.83" xlink:href="#Gradiente_sem_nome"/><linearGradient id="Gradiente_sem_nome_8" x1="46.64" y1="-134.42" x2="58.51" y2="-134.42" xlink:href="#Gradiente_sem_nome"/><linearGradient id="Gradiente_sem_nome_9" x1="46.64" y1="-143.01" x2="58.39" y2="-143.01" xlink:href="#Gradiente_sem_nome"/><linearGradient id="Gradiente_sem_nome_10" x1="46.64" y1="-151.6" x2="64.06" y2="-151.6" xlink:href="#Gradiente_sem_nome"/><linearGradient id="Gradiente_sem_nome_11" x1="37.64" y1="-129.06" x2="71.55" y2="-129.06" gradientTransform="matrix(1, 0, 0, -1, -27.88, -65.76)" xlink:href="#Gradiente_sem_nome"/><linearGradient id="Gradiente_sem_nome_12" x1="58.95" y1="-108.45" x2="74.49" y2="-108.45" gradientTransform="matrix(1, 0, 0, -1, -27.88, -65.76)" xlink:href="#Gradiente_sem_nome"/></defs><path class="cls-1" d="M66.72,70.89a15.81,15.81,0,1,1,11.17-4.63A15.8,15.8,0,0,1,66.72,70.89Zm0-29.26a13.47,13.47,0,1,0,9.52,3.94A13.47,13.47,0,0,0,66.72,41.63Z" transform="translate(-27.88 -13.08)"/><rect class="cls-2" x="78.78" y="64.25" width="2.32" height="8.13" transform="translate(-52.77 63.45) rotate(-45)"/><path class="cls-3" d="M99.91,94.79a6.42,6.42,0,0,1-4.75-2.1L81.78,78A5.49,5.49,0,0,1,82,70.4l.06-.06a5.49,5.49,0,0,1,7.59-.18l14.7,13.37a6.42,6.42,0,0,1,.43,9.08l-.21.22-.08.08A6.39,6.39,0,0,1,99.91,94.79Zm-14-23.74a3.18,3.18,0,0,0-2.25.93V72a3.19,3.19,0,0,0-.11,4.39L96.92,91.12a4.1,4.1,0,0,0,5.79.29l.15-.14.08-.08a4.11,4.11,0,0,0,0-5.81l-.13-.13L88.1,71.88A3.17,3.17,0,0,0,85.91,71.05Z" transform="translate(-27.88 -13.08)"/><path class="cls-4" d="M79.53,42.29a18.31,18.31,0,0,1,1.77,2.06V31H27.88V91.72H81.3V80.91l-1.24-1.38A7.83,7.83,0,0,1,79,78V89.4H30.21v-56H79v8.39C79.17,41.93,79.35,42.11,79.53,42.29Z" transform="translate(-27.88 -13.08)"/><polygon class="cls-5" points="51.1 15.64 48.78 15.64 48.78 11.3 4.65 11.3 4.65 15.64 2.33 15.64 2.33 8.98 51.1 8.98 51.1 15.64"/><polygon class="cls-6" points="48.78 6.66 46.46 6.66 46.46 2.33 6.97 2.33 6.97 6.66 4.65 6.66 4.65 0 48.78 0 48.78 6.66"/><path class="cls-7" d="M55.52,40.85a19.94,19.94,0,0,0-1.61,1.44c-.29.29-.57.58-.83.89H37.64V40.85Z" transform="translate(-27.88 -13.08)"/><path class="cls-8" d="M37.64,49.45H49.51a16.78,16.78,0,0,0-.59,2.32H37.64Z" transform="translate(-27.88 -13.08)"/><path class="cls-9" d="M48.85,58a18.57,18.57,0,0,0,.54,2.32H37.64V58Z" transform="translate(-27.88 -13.08)"/><path class="cls-10" d="M55.06,69H37.64V66.63H52.76a15.32,15.32,0,0,0,1.15,1.27C54.28,68.27,54.66,68.62,55.06,69Z" transform="translate(-27.88 -13.08)"/><rect class="cls-11" x="9.76" y="62.14" width="33.91" height="2.32"/><polygon class="cls-12" points="37.54 49.84 31.07 40.6 32.97 39.27 37.54 45.79 44.71 35.54 46.61 36.88 37.54 49.84"/></svg>