<svg id="Camada_1" data-name="Camada 1" xmlns="http://www.w3.org/2000/svg" xmlns:xlink="http://www.w3.org/1999/xlink" viewBox="0 0 65.8 65.8"><defs><style>.cls-1{fill:none;stroke-miterlimit:10;stroke-width:2px;stroke:url(#Gradiente_sem_nome_5);}</style><linearGradient id="Gradiente_sem_nome_5" x1="273.2" y1="1124.83" x2="322.21" y2="1124.83" gradientTransform="translate(-264.74 -1091.93)" gradientUnits="userSpaceOnUse"><stop offset="0" stop-color="#2c6bb2"/><stop offset="0.23" stop-color="#2b64a9"/><stop offset="0.6" stop-color="#285291"/><stop offset="1" stop-color="#24386f"/></linearGradient></defs><path class="cls-1" d="M33,2c2.26,0,11.87.29,11.87,9.05v6.5h0a2.47,2.47,0,0,1,2.26,2.54v3.68a2.68,2.68,0,0,1-2.26,2.54,18.12,18.12,0,0,1-4.52,8.2v3.39a5.74,5.74,0,0,0,3.11,4.8L51.36,47a9.27,9.27,0,0,1,5.09,7.35V57.7c0,1.13,0,2.54-5.09,4a82.06,82.06,0,0,1-37,0c-5.09-1.42-5.09-2.83-5.09-4V54.31A9.27,9.27,0,0,1,14.34,47l7.91-4.24a5.74,5.74,0,0,0,3.11-4.8V34.53a18.12,18.12,0,0,1-4.52-8.2c-.85,0-1.7-1.13-1.7-2.54v-3.4a2.49,2.49,0,0,1,2.26-2.54h0v-6.5C21.12,2.31,30.73,2,33,2Z"/></svg>