<svg id="Camada_1" data-name="Camada 1" xmlns="http://www.w3.org/2000/svg" xmlns:xlink="http://www.w3.org/1999/xlink" viewBox="0 0 76.75 77.84"><defs><style>.cls-1,.cls-2{fill:none;}.cls-1,.cls-2,.cls-3{stroke-linecap:round;stroke-linejoin:round;stroke-width:2px;}.cls-1{stroke:url(#linear-gradient);}.cls-2{stroke:url(#linear-gradient-2);}.cls-3{fill:#fff;stroke:url(#linear-gradient-3);}</style><linearGradient id="linear-gradient" x1="46.11" y1="54.92" x2="61.54" y2="54.92" gradientUnits="userSpaceOnUse"><stop offset="0" stop-color="#2c6bb2"/><stop offset="0.23" stop-color="#2b64a9"/><stop offset="0.6" stop-color="#285291"/><stop offset="1" stop-color="#24386f"/></linearGradient><linearGradient id="linear-gradient-2" x1="57.88" y1="425.21" x2="103.74" y2="425.21" xlink:href="#linear-gradient"/><linearGradient id="linear-gradient-3" x1="26.99" y1="403.28" x2="77.49" y2="403.28" xlink:href="#linear-gradient"/></defs><circle class="cls-1" cx="53.82" cy="54.92" r="6.72"/><path class="cls-2" d="M95,419.55a4,4,0,0,0,2.52,1.63l4,.65a1.37,1.37,0,0,1,1.19,1.35v4.06a1.37,1.37,0,0,1-1.19,1.35l-4,.65A4,4,0,0,0,95,430.87l-.15.37a4,4,0,0,0,.62,2.94l2.4,3.3a1.37,1.37,0,0,1-.12,1.8l-1.44,1.43-1.43,1.44a1.37,1.37,0,0,1-1.8.12l-3.3-2.4a4,4,0,0,0-2.94-.62l-.37.15a4,4,0,0,0-1.63,2.52l-.65,4a1.37,1.37,0,0,1-1.35,1.19H78.78A1.38,1.38,0,0,1,77.42,446l-.64-4a4,4,0,0,0-1.63-2.52l-.38-.15a4,4,0,0,0-2.93.62l-3.31,2.4a1.35,1.35,0,0,1-1.79-.12l-1.44-1.44-1.43-1.43a1.37,1.37,0,0,1-.12-1.8l2.39-3.3a4,4,0,0,0,.63-2.94l-.16-.37a3.91,3.91,0,0,0-2.51-1.63l-4-.65a1.35,1.35,0,0,1-1.19-1.35v-4.06a1.35,1.35,0,0,1,1.19-1.35l4-.65a3.91,3.91,0,0,0,2.51-1.63l.16-.37a4,4,0,0,0-.63-2.94l-2.39-3.3a1.37,1.37,0,0,1,.12-1.8l1.43-1.44,1.44-1.43a1.35,1.35,0,0,1,1.79-.12l3.31,2.4a4,4,0,0,0,2.93.62l.38-.15a4,4,0,0,0,1.63-2.52l.64-4a1.38,1.38,0,0,1,1.36-1.19h4.06a1.37,1.37,0,0,1,1.35,1.19l.65,4A4,4,0,0,0,86.47,411l.37.15a4,4,0,0,0,2.94-.62l3.3-2.4a1.37,1.37,0,0,1,1.8.12l1.43,1.43,1.44,1.44a1.37,1.37,0,0,1,.12,1.8l-2.4,3.3a4,4,0,0,0-.62,2.94Z" transform="translate(-26.99 -370.29)"/><path class="cls-3" d="M52.24,371.29c2.2,0,12.13.31,12.13,9.48v6.71a2.71,2.71,0,0,1,2.38,2.68v3.68a2.71,2.71,0,0,1-2.25,2.66s-1.37,5.49-4.66,8.37v3.63A5.76,5.76,0,0,0,63,413.4l8.17,4.42s5.29,2.54,5.29,7.66v3.44c0,1.28.12,2.73-5.1,4.1a78.84,78.84,0,0,1-19.15,2.25A78.84,78.84,0,0,1,33.09,433c-5.22-1.37-5.1-2.82-5.1-4.1v-3.44c0-5.12,5.29-7.66,5.29-7.66l8.17-4.42a5.76,5.76,0,0,0,3.19-4.9v-3.63C41.35,402,40,396.5,40,396.5a2.71,2.71,0,0,1-2.24-2.66v-3.68a2.7,2.7,0,0,1,2.38-2.68v-6.71C40.11,371.6,50,371.29,52.24,371.29Z" transform="translate(-26.99 -370.29)"/></svg>