<svg id="Camada_1" data-name="Camada 1" xmlns="http://www.w3.org/2000/svg" xmlns:xlink="http://www.w3.org/1999/xlink" viewBox="0 0 60.02 81.12"><defs><style>.cls-1,.cls-10,.cls-3,.cls-4,.cls-5,.cls-6,.cls-7,.cls-8,.cls-9{fill:none;stroke-miterlimit:10;stroke-width:2px;}.cls-1{stroke:url(#linear-gradient);}.cls-2{fill:url(#linear-gradient-2);}.cls-3{stroke:url(#linear-gradient-3);}.cls-4{stroke:url(#linear-gradient-4);}.cls-5{stroke:url(#linear-gradient-5);}.cls-6{stroke:url(#linear-gradient-6);}.cls-7{stroke:url(#linear-gradient-7);}.cls-8{stroke:url(#linear-gradient-8);}.cls-9{stroke:url(#linear-gradient-9);}.cls-10{stroke:url(#linear-gradient-10);}</style><linearGradient id="linear-gradient" y1="40.56" x2="60.02" y2="40.56" gradientUnits="userSpaceOnUse"><stop offset="0" stop-color="#2f6cb3"/><stop offset="0.2" stop-color="#2b65a9"/><stop offset="0.54" stop-color="#2a5392"/><stop offset="0.95" stop-color="#253b73"/><stop offset="1" stop-color="#253970"/></linearGradient><linearGradient id="linear-gradient-2" x1="1.59" y1="11.55" x2="22.1" y2="11.55" xlink:href="#linear-gradient"/><linearGradient id="linear-gradient-3" x1="9.83" y1="43.2" x2="50.19" y2="43.2" xlink:href="#linear-gradient"/><linearGradient id="linear-gradient-4" x1="10.55" y1="58.32" x2="49.47" y2="58.32" xlink:href="#linear-gradient"/><linearGradient id="linear-gradient-5" x1="19.62" y1="43.2" x2="39.23" y2="43.2" xlink:href="#linear-gradient"/><linearGradient id="linear-gradient-6" x1="29.01" y1="64.29" x2="31.01" y2="64.29" xlink:href="#linear-gradient"/><linearGradient id="linear-gradient-7" x1="30.01" y1="11.55" x2="43.2" y2="11.55" xlink:href="#linear-gradient"/><linearGradient id="linear-gradient-8" x1="45.83" y1="11.55" x2="51.11" y2="11.55" xlink:href="#linear-gradient"/><linearGradient id="linear-gradient-9" x1="30.01" y1="19.46" x2="37.92" y2="19.46" xlink:href="#linear-gradient"/><linearGradient id="linear-gradient-10" x1="40.56" y1="19.46" x2="51.11" y2="19.46" xlink:href="#linear-gradient"/></defs><polygon class="cls-1" points="1 22.1 1 80.12 59.02 80.12 59.02 1 22.1 1 1 22.1"/><polyline class="cls-2" points="1.59 22.1 22.1 22.1 22.1 1"/><polygon class="cls-3" points="11.55 43.2 30.01 30.01 48.47 43.2 30.01 56.38 11.55 43.2"/><polyline class="cls-4" points="11.55 43.2 11.55 59.02 30.01 72.21 48.47 59.02 48.47 43.2"/><line class="cls-5" x1="20.19" y1="49.71" x2="38.65" y2="36.68"/><line class="cls-6" x1="30.01" y1="56.38" x2="30.01" y2="72.21"/><line class="cls-7" x1="30.01" y1="11.55" x2="43.2" y2="11.55"/><line class="cls-8" x1="45.83" y1="11.55" x2="51.11" y2="11.55"/><line class="cls-9" x1="30.01" y1="19.46" x2="37.92" y2="19.46"/><line class="cls-10" x1="40.56" y1="19.46" x2="51.11" y2="19.46"/></svg>