<?xml version="1.0" encoding="utf-8"?>
<!-- Generator: Adobe Illustrator 24.3.0, SVG Export Plug-In . SVG Version: 6.00 Build 0)  -->
<svg version="1.1" id="Camada_1" xmlns="http://www.w3.org/2000/svg" xmlns:xlink="http://www.w3.org/1999/xlink" x="0px" y="0px"
	 viewBox="0 0 94 88" style="enable-background:new 0 0 94 88;" xml:space="preserve">
<style type="text/css">
	.st0{fill:none;stroke:url(#SVGID_1_);stroke-width:2;stroke-miterlimit:10;}
	.st1{fill:none;stroke:url(#SVGID_2_);stroke-width:2;stroke-miterlimit:10;}
	.st2{fill:none;stroke:url(#SVGID_3_);stroke-width:2;stroke-miterlimit:10;}
	.st3{fill:none;stroke:url(#SVGID_4_);stroke-width:2;stroke-miterlimit:10;}
	.st4{fill:none;stroke:url(#SVGID_5_);stroke-width:2;stroke-miterlimit:10;}
	.st5{fill:none;stroke:url(#SVGID_6_);stroke-width:2;stroke-miterlimit:10;}
	.st6{fill:none;stroke:url(#SVGID_7_);stroke-width:2;stroke-miterlimit:10;}
	.st7{fill:none;stroke:url(#SVGID_8_);stroke-width:2;stroke-miterlimit:10;}
	.st8{fill:none;stroke:url(#SVGID_9_);stroke-width:2;stroke-miterlimit:10;}
	.st9{fill:none;stroke:url(#SVGID_10_);stroke-width:2;stroke-miterlimit:10;}
	.st10{fill:none;stroke:url(#SVGID_11_);stroke-width:2;stroke-miterlimit:10;}
	.st11{fill:none;stroke:url(#SVGID_12_);stroke-width:2;stroke-miterlimit:10;}
	.st12{fill:none;stroke:url(#SVGID_13_);stroke-width:2;stroke-miterlimit:10;}
</style>
<linearGradient id="SVGID_1_" gradientUnits="userSpaceOnUse" x1="10" y1="238.765" x2="88.51" y2="238.765" gradientTransform="matrix(1 0 0 -1 0 276)">
	<stop  offset="0" style="stop-color:#2F6CB3"/>
	<stop  offset="0.2" style="stop-color:#2B65A9"/>
	<stop  offset="0.54" style="stop-color:#2A5392"/>
	<stop  offset="0.95" style="stop-color:#253B73"/>
	<stop  offset="1" style="stop-color:#253970"/>
</linearGradient>
<rect x="11" y="9" class="st0" width="76.5" height="56.5"/>
<linearGradient id="SVGID_2_" gradientUnits="userSpaceOnUse" x1="11" y1="222.97" x2="87.51" y2="222.97" gradientTransform="matrix(1 0 0 -1 0 276)">
	<stop  offset="0" style="stop-color:#2F6CB3"/>
	<stop  offset="0.2" style="stop-color:#2B65A9"/>
	<stop  offset="0.54" style="stop-color:#2A5392"/>
	<stop  offset="0.95" style="stop-color:#253B73"/>
	<stop  offset="1" style="stop-color:#253970"/>
</linearGradient>
<line class="st1" x1="11" y1="53" x2="87.5" y2="53"/>
<linearGradient id="SVGID_3_" gradientUnits="userSpaceOnUse" x1="36.67" y1="188.14" x2="80.22" y2="188.14" gradientTransform="matrix(1 0 0 -1 -9.19 262.22)">
	<stop  offset="0" style="stop-color:#2F6CB3"/>
	<stop  offset="0.2" style="stop-color:#2B65A9"/>
	<stop  offset="0.54" style="stop-color:#2A5392"/>
	<stop  offset="0.95" style="stop-color:#253B73"/>
	<stop  offset="1" style="stop-color:#253970"/>
</linearGradient>
<path class="st2" d="M57.4,65.5v3.5c0,1.9-0.2,6.3,5.7,6.5c0,0,6.9,0,6.9,6.2H28.5c0-6.2,6.9-6.2,6.9-6.2c5.9-0.2,5.7-4.7,5.7-6.5
	v-3.5"/>
<linearGradient id="SVGID_4_" gradientUnits="userSpaceOnUse" x1="35.67" y1="200.55" x2="62.84" y2="200.55" gradientTransform="matrix(1 0 0 -1 0 276)">
	<stop  offset="0" style="stop-color:#2F6CB3"/>
	<stop  offset="0.2" style="stop-color:#2B65A9"/>
	<stop  offset="0.54" style="stop-color:#2A5392"/>
	<stop  offset="0.95" style="stop-color:#253B73"/>
	<stop  offset="1" style="stop-color:#253970"/>
</linearGradient>
<line class="st3" x1="35.7" y1="75.4" x2="62.8" y2="75.4"/>
<linearGradient id="SVGID_5_" gradientUnits="userSpaceOnUse" x1="34.16" y1="246.17" x2="34.16" y2="246.17" gradientTransform="matrix(1 0 0 -1 -9.19 262.22)">
	<stop  offset="0" style="stop-color:#2F6CB3"/>
	<stop  offset="0.2" style="stop-color:#2B65A9"/>
	<stop  offset="0.54" style="stop-color:#2A5392"/>
	<stop  offset="0.95" style="stop-color:#253B73"/>
	<stop  offset="1" style="stop-color:#253970"/>
</linearGradient>
<path class="st4" d="M25,16"/>
<linearGradient id="SVGID_6_" gradientUnits="userSpaceOnUse" x1="27.25" y1="239.25" x2="27.25" y2="239.25" gradientTransform="matrix(1 0 0 -1 -9.19 262.22)">
	<stop  offset="0" style="stop-color:#2F6CB3"/>
	<stop  offset="0.2" style="stop-color:#2B65A9"/>
	<stop  offset="0.54" style="stop-color:#2A5392"/>
	<stop  offset="0.95" style="stop-color:#253B73"/>
	<stop  offset="1" style="stop-color:#253970"/>
</linearGradient>
<path class="st5" d="M18.1,23"/>
<linearGradient id="SVGID_7_" gradientUnits="userSpaceOnUse" x1="44.97" y1="224.75" x2="69.24" y2="224.75" gradientTransform="matrix(1 0 0 -1 -9.19 262.22)">
	<stop  offset="0" style="stop-color:#2F6CB3"/>
	<stop  offset="0.2" style="stop-color:#2B65A9"/>
	<stop  offset="0.54" style="stop-color:#2A5392"/>
	<stop  offset="0.95" style="stop-color:#253B73"/>
	<stop  offset="1" style="stop-color:#253970"/>
</linearGradient>
<path class="st6" d="M60.1,43H40.3c-1.9,0-3.5-1.6-3.5-3.5v-8.6"/>
<linearGradient id="SVGID_8_" gradientUnits="userSpaceOnUse" x1="39.16" y1="229.86" x2="47.38" y2="229.86" gradientTransform="matrix(1 0 0 -1 0 276)">
	<stop  offset="0" style="stop-color:#2F6CB3"/>
	<stop  offset="0.2" style="stop-color:#2B65A9"/>
	<stop  offset="0.54" style="stop-color:#2A5392"/>
	<stop  offset="0.95" style="stop-color:#253B73"/>
	<stop  offset="1" style="stop-color:#253970"/>
</linearGradient>
<circle class="st7" cx="43.3" cy="46.1" r="3.1"/>
<linearGradient id="SVGID_9_" gradientUnits="userSpaceOnUse" x1="55.94" y1="229.86" x2="64.16" y2="229.86" gradientTransform="matrix(1 0 0 -1 0 276)">
	<stop  offset="0" style="stop-color:#2F6CB3"/>
	<stop  offset="0.2" style="stop-color:#2B65A9"/>
	<stop  offset="0.54" style="stop-color:#2A5392"/>
	<stop  offset="0.95" style="stop-color:#253B73"/>
	<stop  offset="1" style="stop-color:#253970"/>
</linearGradient>
<circle class="st8" cx="60" cy="46.1" r="3.1"/>
<linearGradient id="SVGID_10_" gradientUnits="userSpaceOnUse" x1="62.97" y1="247.255" x2="64.97" y2="247.255" gradientTransform="matrix(1 0 0 -1 0 276)">
	<stop  offset="0" style="stop-color:#2F6CB3"/>
	<stop  offset="0.2" style="stop-color:#2B65A9"/>
	<stop  offset="0.54" style="stop-color:#2A5392"/>
	<stop  offset="0.95" style="stop-color:#253B73"/>
	<stop  offset="1" style="stop-color:#253970"/>
</linearGradient>
<line class="st9" x1="64" y1="26" x2="64" y2="31.4"/>
<linearGradient id="SVGID_11_" gradientUnits="userSpaceOnUse" x1="36.6438" y1="254.425" x2="57.4962" y2="254.425" gradientTransform="matrix(1 0 0 -1 0 276)">
	<stop  offset="0" style="stop-color:#2F6CB3"/>
	<stop  offset="0.2" style="stop-color:#2B65A9"/>
	<stop  offset="0.54" style="stop-color:#2A5392"/>
	<stop  offset="0.95" style="stop-color:#253B73"/>
	<stop  offset="1" style="stop-color:#253970"/>
</linearGradient>
<line class="st10" x1="36.8" y1="20.2" x2="57.4" y2="23"/>
<linearGradient id="SVGID_12_" gradientUnits="userSpaceOnUse" x1="39.7234" y1="237.314" x2="74.16" y2="237.314" gradientTransform="matrix(1 0 0 -1 -9.19 262.22)">
	<stop  offset="0" style="stop-color:#2F6CB3"/>
	<stop  offset="0.2" style="stop-color:#2B65A9"/>
	<stop  offset="0.54" style="stop-color:#2A5392"/>
	<stop  offset="0.95" style="stop-color:#253B73"/>
	<stop  offset="1" style="stop-color:#253970"/>
</linearGradient>
<path class="st11" d="M64,31.4v1.3c0,1.9-1.6,3.5-3.5,3.5H40.3c-1.9,0-3.5-1.6-3.5-3.5V16l-5.9-2.5"/>
<linearGradient id="SVGID_13_" gradientUnits="userSpaceOnUse" x1="64.5497" y1="240.5152" x2="79.8848" y2="240.5152" gradientTransform="matrix(1 0 0 -1 -9.19 262.22)">
	<stop  offset="0" style="stop-color:#2F6CB3"/>
	<stop  offset="0.2" style="stop-color:#2B65A9"/>
	<stop  offset="0.54" style="stop-color:#2A5392"/>
	<stop  offset="0.95" style="stop-color:#253B73"/>
	<stop  offset="1" style="stop-color:#253970"/>
</linearGradient>
<path class="st12" d="M68.7,16.3c0.1,0.2,0.1,0.5-0.1,0.8l-2.2,3l2.9,2.2c0.1,0.1,0.2,0.1,0.2,0.2c0.2,0.3,0.1,0.8-0.3,1
	c0,0,0,0-0.1,0l-11.9,6c-0.2,0.1-0.4,0.1-0.6,0c-0.3-0.1-0.5-0.5-0.5-0.8l2.3-13.1c0-0.2,0.2-0.4,0.4-0.5c0.2-0.1,0.5-0.1,0.7,0.1
	l2.9,2.2l2.2-3c0.2-0.3,0.7-0.4,1-0.2c0,0,0,0,0,0l2.6,1.9C68.6,16.1,68.7,16.2,68.7,16.3L68.7,16.3z"/>
</svg>
