<?xml version="1.0" encoding="utf-8"?>
<!-- Generator: Adobe Illustrator 23.0.3, SVG Export Plug-In . SVG Version: 6.00 Build 0)  -->
<svg version="1.1" id="Capa_1" xmlns="http://www.w3.org/2000/svg" xmlns:xlink="http://www.w3.org/1999/xlink" x="0px" y="0px"
	 viewBox="0 0 59 59" style="enable-background:new 0 0 59 59;" xml:space="preserve">
<g>
	<path d="M38.8,30.7c0.4,0.4,1,0.4,1.4,0s0.4-1,0-1.4l-10-10c-0.2-0.2-0.4-0.3-0.7-0.3c0,0,0,0,0,0s0,0,0,0c-0.3,0-0.6,0.2-0.8,0.4
		l-9.9,9.9c-0.4,0.4-0.4,1,0,1.4s1,0.4,1.4,0l8.3-8.3V58c0,0.6,0.4,1,1,1s1-0.4,1-1V22.4L38.8,30.7z"/>
	<path d="M22.5,43c0.6,0,1-0.4,1-1s-0.4-1-1-1h-13V2h40v39h-13c-0.6,0-1,0.4-1,1s0.4,1,1,1h15V0h-44v43H22.5z"/>
</g>
</svg>
