<?xml version="1.0" encoding="utf-8"?>
<!-- Generator: Adobe Illustrator 23.0.3, SVG Export Plug-In . SVG Version: 6.00 Build 0)  -->
<svg version="1.1" id="Capa_1" xmlns="http://www.w3.org/2000/svg" xmlns:xlink="http://www.w3.org/1999/xlink" x="0px" y="0px"
	 viewBox="0 0 489.1 489.1" style="enable-background:new 0 0 489.1 489.1;" xml:space="preserve">
<style type="text/css">
	.st0{fill:none;}
</style>
<path class="st0" d="M357.9,70.7H177.4l43.2-43.2c2.8-2.8,4.3-6.5,4.3-10.4c0-3.9-1.5-7.6-4.3-10.4c-2.8-2.8-6.5-4.3-10.4-4.3
	s-7.6,1.5-10.4,4.3L132.6,74c-2.7,2.7-4.3,6.5-4.3,10.3c0,3.9,1.5,7.6,4.3,10.3l67.9,67.9c2.7,2.7,6.5,4.3,10.3,4.3
	s7.6-1.6,10.3-4.3c2.8-2.8,4.3-6.5,4.3-10.4c0-3.9-1.5-7.6-4.3-10.4l-41.9-41.9h178.5c36,0,65.2,29.2,65.2,65.2
	s-29.2,65.2-65.2,65.2H131.3c-52.1,0-94.5,42.4-94.5,94.5s42.4,94.5,94.5,94.5h154.5l-42.3,42.3c-5.7,5.7-5.7,15,0,20.8
	c2.7,2.7,6.5,4.3,10.3,4.3c3.9,0,7.6-1.6,10.3-4.3l67.9-67.9c2.7-2.7,4.3-6.5,4.3-10.3c0-3.9-1.5-7.6-4.3-10.3l-67.2-67.2
	c-2.8-2.8-6.5-4.3-10.4-4.3s-7.6,1.5-10.4,4.3c-5.7,5.7-5.7,15,0,20.8l42.9,42.9H131.3c-36,0-65.2-29.2-65.2-65.2
	c0-36,29.2-65.3,65.2-65.3h226.6c52.1,0,94.5-42.4,94.5-94.5S410,70.7,357.9,70.7z M357.9,257.2H131.3c-37.3,0-67.7,30.4-67.7,67.8
	c0,37.3,30.4,67.7,67.7,67.7H281H293l-8.5-8.5l-38.6-38.6c-2.3-2.3-3.6-5.4-3.6-8.6c0-3.3,1.3-6.3,3.6-8.6c2.3-2.3,5.4-3.6,8.6-3.6
	c3.3,0,6.3,1.3,8.6,3.6l67.2,67.2c2.3,2.3,3.5,5.3,3.5,8.6c0,3.2-1.3,6.3-3.5,8.6l-67.9,67.9c-2.2,2.2-5.4,3.5-8.6,3.5
	s-6.3-1.3-8.6-3.5c-2.3-2.3-3.6-5.4-3.6-8.6c0-3.3,1.3-6.3,3.6-8.6l38-38l8.5-8.5h-12.1H131.3c-50.7,0-92-41.3-92-92s41.3-92,92-92
	h226.6c37.3,0,67.7-30.4,67.7-67.7c0-37.3-30.4-67.7-67.7-67.7H185.4h-12.1l8.5,8.5l37.6,37.6c2.3,2.3,3.6,5.4,3.6,8.6
	s-1.3,6.3-3.6,8.6c-2.2,2.2-5.4,3.5-8.6,3.5s-6.3-1.3-8.6-3.5l-67.9-67.9c-2.3-2.3-3.5-5.3-3.5-8.6c0-3.2,1.3-6.3,3.5-8.6l67.2-67.2
	c2.3-2.3,5.4-3.6,8.6-3.6c3.3,0,6.3,1.3,8.6,3.6c2.3,2.3,3.6,5.4,3.6,8.6s-1.3,6.3-3.6,8.6l-38.9,38.9l-8.5,8.5h12.1h174.4
	c50.7,0,92,41.3,92,92S408.6,257.2,357.9,257.2z"/>
<path d="M357.9,73.2H183.5h-12.1l8.5-8.5l38.9-38.9c2.3-2.3,3.6-5.4,3.6-8.6s-1.3-6.3-3.6-8.6c-2.3-2.3-5.4-3.6-8.6-3.6
	c-3.3,0-6.3,1.3-8.6,3.6l-67.2,67.2c-2.2,2.2-3.5,5.4-3.5,8.6c0,3.2,1.3,6.3,3.5,8.6l67.9,67.9c2.2,2.2,5.4,3.5,8.6,3.5
	s6.3-1.3,8.6-3.5c2.3-2.3,3.6-5.4,3.6-8.6s-1.3-6.3-3.6-8.6L181.8,106l-8.5-8.5h12.1h172.5c37.3,0,67.7,30.4,67.7,67.7
	c0,37.3-30.4,67.7-67.7,67.7H131.3c-50.7,0-92,41.3-92,92s41.3,92,92,92h148.5h12.1l-8.5,8.5l-38,38c-2.3,2.3-3.6,5.4-3.6,8.6
	c0,3.3,1.3,6.3,3.6,8.6c2.2,2.2,5.4,3.5,8.6,3.5s6.3-1.3,8.6-3.5l67.9-67.9c2.2-2.2,3.5-5.4,3.5-8.6c0-3.2-1.3-6.3-3.5-8.6
	l-67.2-67.2c-2.3-2.3-5.4-3.6-8.6-3.6c-3.3,0-6.3,1.3-8.6,3.6c-2.3,2.3-3.6,5.4-3.6,8.6c0,3.3,1.3,6.3,3.6,8.6l38.6,38.6l8.5,8.5
	H281H131.3c-37.3,0-67.7-30.4-67.7-67.7c0-37.4,30.4-67.8,67.7-67.8h226.6c50.7,0,92-41.3,92-92S408.6,73.2,357.9,73.2z"/>
</svg>
