<?xml version="1.0" encoding="utf-8"?>
<!-- Generator: Adobe Illustrator 23.0.3, SVG Export Plug-In . SVG Version: 6.00 Build 0)  -->
<svg version="1.1" id="Capa_1" xmlns="http://www.w3.org/2000/svg" xmlns:xlink="http://www.w3.org/1999/xlink" x="0px" y="0px"
	 viewBox="0 0 60 60" style="enable-background:new 0 0 60 60;" xml:space="preserve">
<style type="text/css">
	.st0{fill:none;}
</style>
<g>
	<rect x="13" y="2" class="st0" width="44" height="7.1"/>
	<path class="st0" d="M3,54c0,2.2,1.8,4,4,4s4-1.8,4-4V32H3V54z"/>
	<path d="M19.9,27.8h31.1c1.1,0,1.9-0.4,1.9-1s-0.9-1-1.9-1H19.9c-1.1,0-1.9,0.4-1.9,1S18.9,27.8,19.9,27.8z"/>
	<path d="M19.9,21.7h31.1c1.1,0,1.9-0.4,1.9-1s-0.9-1-1.9-1H19.9c-1.1,0-1.9,0.4-1.9,1S18.9,21.7,19.9,21.7z"/>
	<path d="M19.9,15.6h31.1c1.1,0,1.9-0.4,1.9-1s-0.9-1-1.9-1H19.9c-1.1,0-1.9,0.4-1.9,1S18.9,15.6,19.9,15.6z"/>
	<path d="M19.9,33.9h31.1c1.1,0,1.9-0.4,1.9-1s-0.9-1-1.9-1H19.9c-1.1,0-1.9,0.4-1.9,1S18.9,33.9,19.9,33.9z"/>
	<path d="M19.9,39.9h31.1c1.1,0,1.9-0.4,1.9-1s-0.9-1-1.9-1H19.9c-1.1,0-1.9,0.4-1.9,1S18.9,39.9,19.9,39.9z"/>
	<path d="M19,46h33c0.6,0,1-0.4,1-1s-0.4-1-1-1H19c-0.6,0-1,0.4-1,1S18.4,46,19,46z"/>
	<path d="M59,13V0H11v30H1v24c0,3.3,2.7,6,6,6h46c3.3,0,6-2.7,6-6V13C59,13,59,13,59,13C59,13,59,13,59,13z M11,54c0,2.2-1.8,4-4,4
		s-4-1.8-4-4V32h8V54z M57,9.1V12v2v2.4V54c0,2.2-1.8,4-4,4H11.5c0,0,0,0,0-0.1c0.2-0.2,0.4-0.5,0.6-0.7c0,0,0.1-0.1,0.1-0.1
		c0.2-0.3,0.3-0.6,0.4-0.8c0,0,0-0.1,0-0.1c0.1-0.3,0.2-0.6,0.3-0.9c0,0,0-0.1,0-0.1C13,54.7,13,54.4,13,54V30V16.4V14v-2V9.1V2h44
		V9.1z"/>
</g>
</svg>
