<?xml version="1.0" encoding="utf-8"?>
<!-- Generator: Adobe Illustrator 23.0.3, SVG Export Plug-In . SVG Version: 6.00 Build 0)  -->
<svg version="1.1" id="Layer_1" xmlns="http://www.w3.org/2000/svg" xmlns:xlink="http://www.w3.org/1999/xlink" x="0px" y="0px"
	 viewBox="0 0 937 937" style="enable-background:new 0 0 937 937;" xml:space="preserve">
<style type="text/css">
	.st0{fill:#231F20;}
</style>
<g id="surface1">
	<path class="st0" d="M582.4,518.9c6.1,6.1,16,6.1,22.1,0l270.1-270.1v24.8c0,8.6,7,15.6,15.6,15.6s15.6-7,15.6-15.6v-62.5
		c0-1.9-0.4-3.7-1.1-5.5c-0.2-0.5-0.5-1-0.7-1.6c-0.6-1.2-1.3-2.3-2.2-3.2c-1.4-1.7-3.2-3.1-5.2-4c-0.1,0-0.2-0.2-0.4-0.2
		c-1.7-0.7-3.6-1.1-5.4-1.1c-0.2,0-0.4-0.1-0.6-0.1h-62.5c-8.6,0-15.6,7-15.6,15.6s7,15.6,15.6,15.6h24.8l-259,259L456.1,348.4
		c-6.1-6.1-16-6.1-22.1,0L273.3,509.2l-74.9-74.9c-6.1-6.1-16-6.1-22.1,0L35.8,574.9c-4.1,3.9-5.7,9.7-4.3,15.2s5.7,9.7,11.2,11.2
		c5.5,1.4,11.3-0.2,15.2-4.3l129.5-129.5l74.9,74.9c6.1,6.1,16,6.1,22.1,0l160.7-160.7L582.4,518.9z"/>
</g>
</svg>
