<?xml version="1.0" encoding="utf-8"?>
<!-- Generator: Adobe Illustrator 24.2.3, SVG Export Plug-In . SVG Version: 6.00 Build 0)  -->
<svg version="1.1" id="adf6e2ad-667e-4933-ac27-50a949c2abe5"
	 xmlns="http://www.w3.org/2000/svg" xmlns:xlink="http://www.w3.org/1999/xlink" x="0px" y="0px" viewBox="0 0 1130 799.2"
	 style="enable-background:new 0 0 1130 799.2;" xml:space="preserve">
<style type="text/css">
	.st0{opacity:0.1;fill:#00E2F4;enable-background:new    ;}
	.st1{fill:none;stroke:#535461;stroke-width:2;stroke-miterlimit:10;}
	.st2{fill:#00E2F4;}
	.st3{opacity:0.25;enable-background:new    ;}
	.st4{fill:#C8CAD7;}
	.st5{opacity:0.1;enable-background:new    ;}
	.st6{fill:#474157;}
	.st7{fill:#FFFFFF;}
	.st8{fill:#EDEDF4;}
	.st9{fill:#EBADAC;}
	.st10{fill:#8FD0EB;}
	.st11{fill:#B6D5A6;}
	.st12{fill:#D4DFEC;}
	.st13{fill:url(#SVGID_1_);}
	.st14{fill:#A1616A;}
	.st15{fill:#00285F;}
	.st16{fill:#605D82;}
	.st17{fill:#5A5773;}
	.st18{fill:#4A4347;}
	.st19{opacity:0.1;}
	.st20{fill:#93B3D6;}
	.st21{fill:#93D4D4;}
	.st22{fill:#EDBB96;}
</style>
<path class="st0" d="M1108.1,197.6c-11.6-22.4-26.7-42.8-44.8-60.4L441.4,132l512-60.8C919.9,60,884.8,54.1,849.5,53.8
	C800.3,20.2,736.9,0,667.8,0c-62,0-119.3,16.3-166.1,43.9c-39.8-17.3-85-27.1-133.1-27.1C230.5,16.8,115.3,97.7,89.5,205
	L1108.1,197.6z"/>
<path class="st0" d="M1130,287.6c0-29.4-6.7-58.4-19.4-84.9L32.9,298.4c-11,16.6-19.5,34.8-25.3,53.9l333.8,42.1L0,425
	c10.3,121.4,133.4,217.4,283.9,217.4c75.7,0,144.5-24.3,195.5-63.9c51.1,40.4,120.6,65.2,197.2,65.2c113.6,0,211.6-54.7,257.3-133.7
	c91.6-24.6,162.7-86.3,187.1-163.5l-422.1-55.3H1130C1130,290,1130,288.8,1130,287.6z"/>
<path class="st1" d="M283.4,553.1c0,0-46.2-66.7-38.4-129.6c3.5-26.4-1.7-53.2-14.8-76.3c-6.3-11-13.6-21.3-21.7-30.9"/>
<path class="st2" d="M213.2,276.5c3,9-4.7,40.7-4.7,40.7s-25.1-20.8-28.1-29.9s1.9-18.8,11-21.8
	C200.5,262.5,210.2,267.4,213.2,276.5L213.2,276.5z"/>
<path class="st2" d="M256.9,317.7c-2.4,9.2-26.1,31.6-26.1,31.6s-9.7-31.1-7.3-40.4c2.3-9.3,11.6-14.9,20.9-12.7
	c9.3,2.3,14.9,11.6,12.7,20.9C257,317.3,257,317.5,256.9,317.7L256.9,317.7z"/>
<path class="st2" d="M284.1,403.8c-6.7,6.8-38.5,14.1-38.5,14.1s7.3-31.8,14-38.5c6.7-6.8,17.7-6.8,24.4,0
	C290.8,386.1,290.8,397,284.1,403.8L284.1,403.8z"/>
<path class="st2" d="M290,473.6c-5.5,7.8-35.6,20.4-35.6,20.4s1.8-32.6,7.3-40.4s16.3-9.7,24.1-4.2S295.5,465.8,290,473.6z"/>
<path class="st2" d="M197,362.5c8.6,4.2,41,0.7,41,0.7s-17.4-27.6-26-31.8c-8.7-3.8-18.9,0.1-22.8,8.8
	C185.6,348.5,189,358.2,197,362.5z"/>
<path class="st2" d="M204.9,444c9.4,1.4,39.3-11.6,39.3-11.6s-24.8-21.2-34.3-22.6c-9.4-1.4-18.2,5.1-19.6,14.5
	C189,433.8,195.5,442.6,204.9,444L204.9,444z"/>
<path class="st2" d="M223.5,522.2c9.1,3,40.7-4.8,40.7-4.8s-20.9-25-30-28s-18.8,2-21.8,11C209.5,509.4,214.4,519.2,223.5,522.2
	L223.5,522.2z"/>
<path class="st3" d="M213.2,276.5c3,9-4.7,40.7-4.7,40.7s-25.1-20.8-28.1-29.9s1.9-18.8,11-21.8
	C200.5,262.5,210.2,267.4,213.2,276.5L213.2,276.5z"/>
<path class="st3" d="M256.9,317.7c-2.4,9.2-26.1,31.6-26.1,31.6s-9.7-31.1-7.3-40.4c2.3-9.3,11.6-14.9,20.9-12.7
	c9.3,2.3,14.9,11.6,12.7,20.9C257,317.3,257,317.5,256.9,317.7L256.9,317.7z"/>
<path class="st3" d="M284.1,403.8c-6.7,6.8-38.5,14.1-38.5,14.1s7.3-31.8,14-38.5c6.7-6.8,17.7-6.8,24.4,0
	C290.8,386.1,290.8,397,284.1,403.8L284.1,403.8z"/>
<path class="st3" d="M290,473.6c-5.5,7.8-35.6,20.4-35.6,20.4s1.8-32.6,7.3-40.4s16.3-9.7,24.1-4.2S295.5,465.8,290,473.6z"/>
<path class="st3" d="M197,362.5c8.6,4.2,41,0.7,41,0.7s-17.4-27.6-26-31.8c-8.7-3.8-18.9,0.1-22.8,8.8
	C185.6,348.5,189,358.2,197,362.5z"/>
<path class="st3" d="M204.9,444c9.4,1.4,39.3-11.6,39.3-11.6s-24.8-21.2-34.3-22.6c-9.4-1.4-18.2,5.1-19.6,14.5
	C189,433.8,195.5,442.6,204.9,444L204.9,444z"/>
<path class="st3" d="M223.5,522.2c9.1,3,40.7-4.8,40.7-4.8s-20.9-25-30-28s-18.8,2-21.8,11C209.5,509.4,214.4,519.2,223.5,522.2
	L223.5,522.2z"/>
<path class="st1" d="M283.2,550.4c0,0-69.3-42.2-87.6-103c-7.5-25.5-23.1-47.9-44.5-63.8c-10.2-7.5-21-14-32.4-19.5"/>
<path class="st2" d="M106.9,326c6.4,7.1,12.2,39.1,12.2,39.1s-31.4-8.9-37.8-15.9c-6.4-7.1-5.9-18,1.2-24.4
	C89.6,318.4,100.5,318.9,106.9,326z"/>
<path class="st2" d="M163.5,345.9c1.5,9.4-11,39.5-11,39.5s-21.5-24.5-23.1-33.9c-1.5-9.4,4.8-18.3,14.3-19.8S162,336.5,163.5,345.9
	L163.5,345.9z"/>
<path class="st2" d="M223.3,413.6c-3.4,8.9-29.5,28.5-29.5,28.5s-6.2-32-2.8-40.9s13.4-13.4,22.3-9.9
	C222.3,394.7,226.7,404.7,223.3,413.6z"/>
<path class="st2" d="M257,475c-1.9,9.4-24.2,33.1-24.2,33.1s-11.5-30.5-9.6-39.9s11-15.4,20.3-13.6S258.9,465.7,257,475z"/>
<path class="st2" d="M126.9,411.1c9.5,0.3,37.8-16,37.8-16s-27.1-18.2-36.6-18.5c-9.5-0.3-17.5,7.1-17.8,16.7
	C109.9,402.8,117.3,410.8,126.9,411.1L126.9,411.1z"/>
<path class="st2" d="M167.2,482.5c9.2-2.5,31.3-26.6,31.3-26.6s-31.3-9.3-40.4-6.7c-9.2,2.4-14.7,11.9-12.3,21.1
	s11.9,14.7,21.1,12.3C167,482.5,167.1,482.5,167.2,482.5L167.2,482.5z"/>
<path class="st2" d="M215.8,546.4c9.5-1,35.3-20.9,35.3-20.9s-29.3-14.4-38.7-13.5c-9.5,0.9-16.4,9.4-15.5,18.9
	C197.9,540.4,206.3,547.4,215.8,546.4L215.8,546.4z"/>
<ellipse class="st0" cx="565.7" cy="734.1" rx="179" ry="10.6"/>
<ellipse class="st0" cx="746.9" cy="781.3" rx="46.9" ry="8.5"/>
<path class="st4" d="M648,715.4v6.4H458.4v-5.2c32.3-12,48.8-47.8,36.8-80.1c-5.8-15.5-17.4-28.1-32.5-35h184.1
	c-31.3,14.4-45,51.4-30.7,82.7C622.5,698.2,633.9,709.3,648,715.4z"/>
<path class="st5" d="M646.8,601.5c-17.1,7.9-29.8,23.1-34.5,41.3H497.1c-4.7-18.3-17.3-33.5-34.5-41.3H646.8z"/>
<path class="st4" d="M241.2,568.8v36c0,19.9,14.5,36,32.5,36h558c18,0,32.5-16.1,32.5-36v-36H241.2z"/>
<path class="st5" d="M648,715.4v6.4H458.4v-5.2c5.2-1.9,10.1-4.5,14.6-7.8h163.4C640,711.4,643.9,713.6,648,715.4z"/>
<path class="st4" d="M405.2,710.8h296c5.2,0,9.5,4.3,9.5,9.5l0,0c0,5.2-4.3,9.5-9.5,9.5h-296c-5.2,0-9.5-4.3-9.5-9.5l0,0
	C395.7,715.1,400,710.8,405.2,710.8z"/>
<path class="st6" d="M864.2,174.3c0-17.9-14.6-32.5-32.5-32.5l0,0h-558c-17.9,0-32.5,14.6-32.5,32.5l0,0v401.5h623V174.3z"/>
<path class="st7" d="M274.2,172.8h557c8.8,0,16,7.2,16,16v345c0,8.8-7.2,16-16,16h-557c-8.8,0-16-7.2-16-16v-345
	C258.2,180,265.4,172.8,274.2,172.8z"/>
<circle class="st7" cx="552.7" cy="157.3" r="7.5"/>
<circle class="st7" cx="552.7" cy="606.3" r="18.5"/>
<circle class="st8" cx="274.2" cy="180.8" r="4"/>
<circle class="st8" cx="286.2" cy="180.8" r="4"/>
<circle class="st8" cx="298.2" cy="180.8" r="4"/>
<rect x="391.5" y="366" class="st9" width="93.6" height="86.5"/>
<rect x="613.6" y="365.9" class="st10" width="93.6" height="86.5"/>
<rect x="502.1" y="365.9" class="st11" width="93.6" height="86.5"/>
<ellipse class="st0" cx="258.4" cy="775.4" rx="28.6" ry="2.9"/>
<ellipse class="st0" cx="843.9" cy="733.9" rx="17.1" ry="1.7"/>
<path class="st2" d="M268.4,727.6c0,0-37.3,19.3-18,42c0,0,1.8,5,7.1,4.6c0,0-1-1.9,3-3.4c1.4-0.6,2.8-1.3,4-2.1
	c1.7-1.2,3-2.9,3.6-4.8l0,0c0,0,7.6-10.2,1.7-29.1c0,0,0.8-5.3,0.1-6.2l-4.6,6.1c0,0,4.7,3.1,5.2,7.8c0,0-4.9-7.8-5.9-6.9
	c-0.2,0.2-2.3,3.4-2.3,3.4s8.1,5.5,8.7,12.7c0,0-4.6-10-9.5-11.5l-2.8,5c0,0,8.9,5.4,9.9,13.5c0,0-5.1-10.3-10.4-12.4l-2.1,5.3
	c0,0,8.5,5.4,9.3,12.2c0,0-7.1-11.3-9.7-11c0,0-1.6,5-1.4,6.5c0,0,6,4,6.2,8c0,0-5.6-7-6.4-6.6c0,0-0.4,7.1,1.4,10.8
	c0,0-2.9-5.3-2.5-10.8c-1.7,1.5-3,3.6-3.6,5.8c0,0-1.6-3.9,3.7-7.5c0,0,0.5-5.5,1.1-6.2c0,0-5.7,2.8-8.2,6.2c0,0,0.9-5.1,8.7-7.7
	l2-5.4c0,0-7.8,3.3-10.1,6.2c0,0,1.7-5.1,10.8-7.5l2.7-5c0,0-6.9,2.3-10.3,5c0,0,2.6-4.4,11.1-6.4l2.2-3.1c0,0-5,1.8-6.4,2.4
	s-1.7,0.3-1.7,0.3c2.6-2.2,5.7-3.6,9-4.1C263.9,734,268.8,727.9,268.4,727.6z"/>
<ellipse class="st0" cx="169.3" cy="731.2" rx="21.9" ry="2.2"/>
<path class="st2" d="M177,694.6c0,0-28.6,14.8-13.8,32.2c0.9,2.2,3,3.6,5.4,3.5c0,0-0.8-1.5,2.3-2.6c1.1-0.4,2.1-1,3.1-1.6
	c1.3-0.9,2.3-2.2,2.8-3.7l0,0c0,0,5.8-7.8,1.3-22.3c0,0,0.6-4.1,0.1-4.8l-3.5,4.8c0,0,3.6,2.4,4,5.9c0,0-3.7-5.9-4.6-5.3
	c-0.2,0.1-1.7,2.6-1.7,2.6s6.2,4.2,6.7,9.7c0,0-3.5-7.7-7.3-8.8l-2.1,3.9c0,0,6.8,4.1,7.6,10.4c0,0-3.9-7.9-8-9.5l-1.6,4.1
	c0,0,6.6,4.2,7.2,9.3c0,0-5.5-8.7-7.5-8.4c0,0-1.2,3.8-1.1,5c0,0,4.6,3.1,4.7,6.1c0,0-4.3-5.4-4.9-5c0,0-0.3,5.4,1.1,8.3
	c-1.3-2.5-2-5.4-1.9-8.3c-1.3,1.2-2.3,2.7-2.7,4.4c0,0-1.2-3,2.8-5.7c0,0,0.4-4.2,0.9-4.7c0,0-4.4,2.1-6.3,4.8c0,0,0.7-3.9,6.6-5.9
	l1.5-4.1c0,0-5.9,2.5-7.8,4.8c0,0,1.3-3.9,8.3-5.8l2.1-3.8c0,0-5.3,1.8-7.9,3.8c0,0,2-3.3,8.5-4.9l1.7-2.4c0,0-3.8,1.4-4.9,1.9
	s-1.3,0.2-1.3,0.2c2-1.7,4.3-2.7,6.9-3.1C173.5,699.6,177.2,694.8,177,694.6z"/>
<path class="st2" d="M851.7,705c0,0-22.3,11.6-10.8,25.2c0.7,1.7,2.4,2.8,4.2,2.7c0,0-0.6-1.1,1.8-2.1c0.9-0.3,1.7-0.8,2.4-1.3
	c1-0.7,1.8-1.7,2.2-2.9l0,0c0,0,4.6-6.1,1-17.4c0,0,0.5-3.2,0-3.7l-2.7,3.7c0,0,2.8,1.9,3.1,4.7c0,0-2.9-4.7-3.6-4.1
	c-0.1,0.1-1.3,2-1.3,2s4.9,3.3,5.2,7.6c0,0-2.7-6-5.7-6.8l-1.6,3.1c0,0,5.3,3.2,5.9,8.1c0,0-3.1-6.2-6.2-7.4l-1.2,3.2
	c0,0,5.1,3.3,5.6,7.3c0,0-4.3-6.8-5.8-6.6c-0.4,1.3-0.7,2.6-0.8,3.9c0,0,3.6,2.4,3.7,4.8c0,0-3.3-4.2-3.9-3.9c0,0-0.2,4.2,0.8,6.5
	c-1-2-1.6-4.2-1.5-6.5c-1,0.9-1.8,2.1-2.1,3.5c0,0-1-2.3,2.2-4.5c0,0,0.3-3.3,0.7-3.7c0,0-3.4,1.7-4.9,3.7c0,0,0.5-3.1,5.2-4.6
	l1.2-3.2c0,0-4.7,2-6.1,3.7c0,0,1-3,6.5-4.5l1.6-3c-2.2,0.7-4.2,1.7-6.2,3c0,0,1.6-2.6,6.7-3.8l1.3-1.9c0,0-3,1.1-3.8,1.5
	s-1,0.2-1,0.2c1.5-1.3,3.4-2.1,5.4-2.4C849,708.9,851.9,705.2,851.7,705z"/>
<ellipse class="st0" cx="961" cy="788.6" rx="66.7" ry="5.6"/>
<path class="st2" d="M1014.4,612.7c-1.5,2.1-2.8,4.4-3.6,6.9c-0.2,0.6-0.4,1.3-0.7,1.9c-0.4-0.2-0.8-0.3-1.3-0.4
	c-1.9-0.5-3.8-0.6-5.7-0.5c0-0.8,0.1-1.5,0.1-2.3c0.2-8.4-0.8-20.2-8.8-15.2c-7.7,4.8-2.2,12.8,2.8,17.9c0.4,0.4,0.9,0.9,1.3,1.3
	c-4.5,3.2-5.4,10.8-6.2,18.6s-7.4,16.4-11.8,21.3l-1.3,1.4c-3.6-2.9-8.2-4.1-12.8-3.3c-0.2-0.7-0.4-1.4-0.6-2.2
	c-3.6-12.9-11-35.3-20.5-40.2c0.4-0.5,0.8-1,1.3-1.6c4-5.3,8.5-13.1,1.9-15.1s-7.3,6.8-6.9,13.4c0,0.8,0.1,1.6,0.2,2.3
	c-2.7,0.1-5.2,1.4-7,3.4l-1-1.2c-5.4-6.4-15.4-16.6-18.4-8.9c-2.8,7.2,5.9,16.5,12.1,21.8l0.4,0.3c-4.2,16.8,13.9,30.5,23.7,36.5
	l1.3,0.8c-13.4,15.8-21.7,45.5-21.7,45.5l37.6,6.7c0,0,24.9-21.5,21.7-41.7h0.3c24.9-5,30.6-31.5,26.7-47.3l0.4-0.2
	c4.5-1.9,8.5-4.9,11.5-8.7C1036.2,614,1021.7,603.1,1014.4,612.7z"/>
<path class="st5" d="M1014.4,612.7c-1.5,2.1-2.8,4.4-3.6,6.9c-0.2,0.6-0.4,1.3-0.7,1.9c-0.4-0.2-0.8-0.3-1.3-0.4
	c-1.9-0.5-3.8-0.6-5.7-0.5c0-0.8,0.1-1.5,0.1-2.3c0.2-8.4-0.8-20.2-8.8-15.2c-7.7,4.8-2.2,12.8,2.8,17.9c0.4,0.4,0.9,0.9,1.3,1.3
	c-4.5,3.2-5.4,10.8-6.2,18.6s-7.4,16.4-11.8,21.3l-1.3,1.4c-3.6-2.9-8.2-4.1-12.8-3.3c-0.2-0.7-0.4-1.4-0.6-2.2
	c-3.6-12.9-11-35.3-20.5-40.2c0.4-0.5,0.8-1,1.3-1.6c4-5.3,8.5-13.1,1.9-15.1s-7.3,6.8-6.9,13.4c0,0.8,0.1,1.6,0.2,2.3
	c-2.7,0.1-5.2,1.4-7,3.4l-1-1.2c-5.4-6.4-15.4-16.6-18.4-8.9c-2.8,7.2,5.9,16.5,12.1,21.8l0.4,0.3c-4.2,16.8,13.9,30.5,23.7,36.5
	l1.3,0.8c-13.4,15.8-21.7,45.5-21.7,45.5l37.6,6.7c0,0,24.9-21.5,21.7-41.7h0.3c24.9-5,30.6-31.5,26.7-47.3l0.4-0.2
	c4.5-1.9,8.5-4.9,11.5-8.7C1036.2,614,1021.7,603.1,1014.4,612.7z"/>
<path class="st2" d="M939.6,623.5l-4.4,12.8c0,0-2.4-1.7-5.5-4.4c-6.2-5.4-14.9-14.7-12.1-21.8c3-7.7,13,2.5,18.4,8.9
	C938.2,621.5,939.6,623.5,939.6,623.5z"/>
<path class="st2" d="M948.9,616.1c-1.3,1.8-2.8,3.4-4.3,5c-0.4-2.2-0.6-4.5-0.8-6.8c-0.4-6.6,0.3-15.3,6.9-13.4
	C957.4,603,953,610.8,948.9,616.1z"/>
<path class="st2" d="M1005.6,618.1c-0.1,4.2-0.6,7.6-0.6,7.6c-1.9-1.5-3.8-3.2-5.5-4.9c-5-5.2-10.5-13.1-2.8-17.9
	C1004.8,598,1005.8,609.7,1005.6,618.1z"/>
<path class="st2" d="M1031.5,623.7c-3,3.9-7,6.9-11.5,8.7c-1.3,0.5-2.6,1-3.9,1.4l-5.2-7.3c0.5-2.4,1.2-4.8,2.1-7.1
	c0.9-2.4,2.1-4.8,3.6-6.9C1023.9,603.1,1038.5,614,1031.5,623.7z"/>
<path class="st5" d="M936,618.9c2.2,2.6,3.6,4.5,3.6,4.5l-4.4,12.8c0,0-2.4-1.7-5.5-4.4c0.7-4.1,2.4-8,5-11.3
	C935.1,620,935.5,619.4,936,618.9z"/>
<path class="st5" d="M948.9,616.1c-1.3,1.8-2.8,3.4-4.3,5c-0.4-2.2-0.6-4.5-0.8-6.8C945.7,614.4,947.4,615,948.9,616.1z"/>
<path class="st2" d="M970.5,667.2l-10.9,4.8c0,0-2.4-1.2-5.8-3.3c-11.5-7.1-34.6-24.9-19.2-45.8c15.4-21,28.4,16.6,33.6,35
	C969.7,663.4,970.5,667.2,970.5,667.2z"/>
<path class="st5" d="M999.5,620.9c1.6-1.6,3.8-2.6,6-2.7c-0.1,4.2-0.6,7.6-0.6,7.6C1003.1,624.2,1001.3,622.6,999.5,620.9z"/>
<path class="st5" d="M1020.1,632.4c-1.3,0.5-2.6,1-3.9,1.4l-5.2-7.3c0.5-2.4,1.2-4.8,2.1-7.1
	C1016.4,621.4,1018.9,626.3,1020.1,632.4z"/>
<path class="st2" d="M992.9,679.9c-0.6,0.1-1.2,0.2-1.9,0.3c-36.6,5.6-12-14.2-12-14.2s1.6-1.5,3.9-4c4.4-4.8,11.1-13.4,11.8-21.3
	c1.2-11.9,2.5-23,16.5-19.8C1025.2,624.2,1027.6,673,992.9,679.9z"/>
<rect x="922.2" y="771.1" class="st12" width="70" height="18.4"/>
<rect x="911" y="711.3" class="st12" width="91.5" height="64.2"/>
<rect x="922.2" y="771.1" class="st5" width="70" height="18.4"/>
<rect x="911" y="711.3" class="st5" width="91.5" height="64.2"/>
<rect x="926.8" y="771.1" class="st12" width="70" height="18.4"/>
<path class="st5" d="M968.1,657.9c1.6,5.5,2.4,9.3,2.4,9.3l-10.9,4.8c0,0-2.4-1.2-5.8-3.3C958,663.3,962.9,659.2,968.1,657.9z"/>
<path class="st5" d="M992.9,679.9c-0.6,0.1-1.2,0.2-1.9,0.3c-36.6,5.6-12-14.2-12-14.2s1.6-1.5,3.9-4
	C989.7,667.5,992.5,673.7,992.9,679.9z"/>
<path class="st2" d="M933.3,714.9c0,0,20.5-73.5,49.3-50.8s-11.7,57.5-11.7,57.5L933.3,714.9z"/>
<circle class="st5" cx="943.7" cy="634.4" r="2.3"/>
<circle class="st5" cx="943.5" cy="645.1" r="2.3"/>
<circle class="st5" cx="1010.2" cy="636.5" r="2.3"/>
<circle class="st5" cx="956.5" cy="691.6" r="2.3"/>
<circle class="st5" cx="1005.4" cy="654.4" r="2.3"/>
<circle class="st5" cx="981.6" cy="678.1" r="2.3"/>
<circle class="st5" cx="951.5" cy="639" r="2.3"/>
<circle class="st5" cx="1003.9" cy="643.4" r="2.3"/>
<circle class="st5" cx="996" cy="661.3" r="2.3"/>
<circle class="st5" cx="971.8" cy="689.8" r="2.3"/>
<circle class="st5" cx="966.9" cy="678.5" r="2.3"/>
<circle class="st5" cx="955" cy="653" r="2.3"/>
<rect x="926.8" y="771.1" class="st5" width="70" height="6.7"/>
<rect x="915.7" y="711.3" class="st12" width="91.5" height="64.2"/>
<circle class="st5" cx="974.9" cy="700.2" r="2.3"/>
<circle class="st5" cx="961.1" cy="703.1" r="2.3"/>
<linearGradient id="SVGID_1_" gradientUnits="userSpaceOnUse" x1="784.5026" y1="157.3" x2="784.5026" y2="-259.1015" gradientTransform="matrix(1 0 0 1 -35 629.6)">
	<stop  offset="0" style="stop-color:#808080;stop-opacity:0.25"/>
	<stop  offset="0.54" style="stop-color:#808080;stop-opacity:0.12"/>
	<stop  offset="1" style="stop-color:#808080;stop-opacity:0.1"/>
</linearGradient>
<path class="st13" d="M837.3,573.7c-1.2-0.9-1.7-2.9-1.9-5c0-0.5-0.1-0.9-0.1-1.4c0.5-0.3,1-0.8,1.4-1.3c2.4-3.4-3.3-15.5-3.3-15.5
	s2.2-6.4,0-11.8s-3.2-6.5-3.2-6.5s-7.4-15.2-6.3-17s-1.8-16-4-18.8c-0.9-1.2-1.9-2.4-2.9-3.5c0,0,0.4-6.2-2.7-11s-6.6-18.2-6.6-18.2
	s-3.8-12.5-6.6-17c-1.1-1.6-2.5-3-4-4.1c0.4-2,1.4-4.6-1.4-20.3c-1.2-6.4,0.7-10.3,2.1-16.6s1.2-13.7-3.4-18.5s-11.7-5.7-17.3-9
	c-5-2.9-9.5-7.8-15.3-7.7c-4.3,0.1-4.3,0.7-8.2,2.4c-6.8,2.8-14.5,1.9-21.5,4.2c-6.2,2.1-14.2,8.9-12.3,16.1
	c0.3,1.6,1.1,3.1,2.3,4.3c1.3,1.2,3,1.2,4.8,0.9c0,0.1,0,0.2-0.1,0.4c-0.2,1-0.2,2-0.2,3c0,10.7,8.9,19.4,19.9,19.4
	c0.1,0.2,0.1,0.5,0.2,0.7c0.2,0.6,0.3,1.3,0.4,1.9c-0.5,0.7-1.1,1.4-1.6,2.1c-1.3,1.6-2.3,3.4-3,5.3c-5.8,1.2-15.5,3.1-17,5.6
	c-2,3.4-10.2,20-9.3,27.6c0,0.4,0.1,1,0.1,1.6c0,0-5.1,9-5.8,11.8s-2.4,13.4-5.5,15.9s-9.5,10.4-8.6,12s-8.6,3.5-8.6,3.5
	s-6.4,2.5-6,4.4c0.1,0.6-0.3,1.2-1,1.7c-7.3-2.4-16.5-4-23.7-0.4c-10,5.1,7.5,8.6,18,10.1c1.7,0.3,3.2,0.5,4.4,0.6
	c0.1,0.3,0.4,0.6,1.3,0.9c0.7,0.2,1.6,0.6,2.8,1l0.4-1.3c3.5,1.2,12.9,5.1,12.9,5.1s8.2,1.3,10.6-3.4c1-1.9,3.7-5,6.7-8l-0.3,1.1
	l-6.9,22.8c0,0-11,17-10.4,20.7s-3.5,13.1-4.4,14s-10,27.7-14.8,29.5s-11.1,8-9,9.9s11,8.3,15,6.2s11,1.8,11,1.8s7.7-1.3,13.9,1.7
	c0.1,0.7,0.2,1.4,0.2,2.2c0.7,6,1.7,14.3,2.8,16.7c1.8,3.9,3.5,10.8,2,13.4s1.3,53.2,4,61.8c2.1,6.8,5.1,17.7,4.6,24.8
	c-0.3,4.3-0.5,8.7-0.5,13c0,0.2,0,0.5,0,0.7s-0.2,0.4-0.3,0.6v0.4c-0.6,1.5-1.2,3-1.6,4.6c0,0-4.7,11.8-3.1,14.9
	c0.2,0.3,0.4,0.6,0.8,0.9c2.3,1.8,8,2.2,10,2.3l-0.1,3h2.7c0,0,0.1-3,0.3-6.7c0.8-2.1,1.2-4.3,1.2-6.6c0-3.9,0.8-7.8,2.4-11.4
	c0,0,0.1-0.3,0.1-0.8l0,0c0.1-1,0.2-2.1,0.2-3.1c0.1-1.8-0.2-3.6-1-5.3c-0.1-1.1,0-2.2,0.2-3.2c0.7-2.7-1.1-21.2-1.1-21.2l3.1-34.1
	c0,0,1.8-26.3,1.1-33.2c-0.2-1.8-0.1-3.7,0.1-5.5c1.1-7.5,1.8-15,2-22.6c0-0.7,0-1.4,0-2.1c6.6,2.3,17.9,0.4,17.9,0.4s2.6-0.1,6.1,0
	c0.1,0.7,0.2,1.4,0.3,2.1c0.5,3.7,1.2,7,1.8,8.4c1.8,3.9,3.5,10.8,2,13.4s1.3,53.2,4,61.8c2.2,6.8,5.1,17.7,4.6,24.8
	c-0.3,4.3-0.5,8.7-0.5,13v0.8c-0.1,0.2-0.2,0.4-0.3,0.6s0,0.3,0,0.4c-0.6,1.5-1.1,3.1-1.5,4.6c0,0-4.7,11.8-3.1,14.9
	c0.2,0.3,0.4,0.6,0.8,0.9c2.3,1.8,8,2.2,10,2.3l-0.1,3h2.7c0,0,0.1-3,0.3-6.7c0.8-2.1,1.2-4.3,1.2-6.6c0-3.9,0.8-7.8,2.4-11.4
	c0.2-1.3,0.3-2.6,0.3-3.9c0.1-1.8-0.3-3.7-1-5.3c-0.1-1.1,0-2.2,0.2-3.2c0.7-2.7-1.1-21.2-1.1-21.2l3.1-34.1c0,0,1.8-26.3,1.1-33.2
	c-0.2-1.8-0.1-3.7,0.1-5.5c1.1-7.1,1.8-14.3,2-21.5c0-0.7,0-1.4,0-2.2c0.7-0.8,2-1.5,5.7-2.7c6.4-2.1,19.2-12.7,24.3-13.4
	s9.7-4.1,8.2-6.7s-9.5-4.4-8.8-8.5s-4.9-6.5-7.5-13.3s-13.7-12-13.9-17s-10.5-20.3-10.5-20.3s-10.4-17.3-12.7-27.8
	c0-0.2-0.1-0.5-0.1-0.7h0.1c-0.2-0.8-0.3-1.6-0.4-2.4c0-0.2,0-0.5,0.1-0.7h-0.1v-0.4c0,0,0,0,0-0.1c0.1-0.1,0.1-0.1,0.2-0.1l0.6-0.3
	l-0.2,0.1c1.2-0.8,2.3-1.7,3.3-2.7c1.7-1.5,3-3.3,3.8-5.3c0.8-2.3,1.3-4.6,1.5-7l1.3-2c1.3,5.3,3.1,12.8,3.7,14.5
	c2.8,7.1,5,14.5,6.6,22c1.6,7.3,4.3,14.2,8,20.7c0,0,9.3,12.2,16.4,12.7s3.1,2.5,4.2,2.8l0.3,0.1l0.1,1.4l0.3,4.2
	c0,0,7.3,29.7,15.5,25.5S840,575.7,837.3,573.7z"/>
<path class="st14" d="M838.2,600.1c-7.9,4.2-14.9-25.3-14.9-25.3l-0.3-4.1l-0.6-7.8l9.7,1.2c-0.1,1.7-0.1,3.4,0,5.1
	c0.2,2,0.7,4.1,1.8,4.9C836.5,576,846.1,595.8,838.2,600.1z"/>
<path class="st14" d="M719.2,772.2l0.7-0.5C719.7,771.9,719.5,772.1,719.2,772.2z"/>
<path class="st14" d="M739.1,610.2v20.1c0,0.9,0,1.7,0,2.6c-0.2,7.5-0.9,15-2,22.5c-0.3,1.8-0.3,3.7-0.1,5.5c0.7,6.8-1,33-1,33
	l-3,33.9c0,0,1.8,18.4,1,21c-0.2,1.1-0.3,2.1-0.2,3.2c0.1,3,0.6,6.8,0.8,8v0.3l-0.1,0.1l-14.7,11.2c2.3-2.1,2.9-7.1,2.9-11.7
	c0-0.5,0-1,0-1.5c0-4.3,0.2-8.6,0.5-12.9c0.5-7.1-2.3-17.9-4.4-24.6c-2.6-8.6-5.3-58.8-3.9-61.4s-0.2-9.5-1.9-13.3
	c-1-2.3-2-10.6-2.6-16.6c-0.4-3.6-0.6-6.4-0.6-6.4L739.1,610.2z"/>
<path class="st14" d="M770.3,767.7l0.7-0.5C770.8,767.4,770.5,767.5,770.3,767.7z"/>
<path class="st14" d="M790.2,605.7v20.1c0,1.2,0,2.5,0,3.7c-0.2,7.1-0.9,14.3-1.9,21.3c-0.3,1.8-0.3,3.7-0.1,5.5c0.7,6.8-1,33-1,33
	l-3,33.9c0,0,1.8,18.4,1.1,21c-0.2,1.1-0.3,2.1-0.2,3.2c0.1,3,0.6,6.9,0.8,8c0,0.2,0,0.3,0,0.3l-0.1,0.1l0,0L771,767.1
	c2.3-2.2,2.9-7.1,2.8-11.6c0-0.5,0-1,0-1.5c0-4.3,0.2-8.6,0.5-12.9c0.5-7.1-2.3-17.9-4.4-24.6c-2.6-8.6-5.3-58.8-3.9-61.4
	s-0.2-9.5-1.9-13.3c-0.6-1.4-1.2-4.7-1.8-8.3c-0.9-6.7-1.6-14.6-1.6-14.6L790.2,605.7z"/>
<path class="st5" d="M762.8,414.8l-0.2,0.2c-3.1,4.4-8,7.3-13.3,8c-0.8,0.1-1.6,0.2-2.3,0.2c-0.1-0.2-0.1-0.5-0.2-0.7
	c-1.2-5-2.4-9-2.4-9s1.3-1.9,3.2-4.3c5.2-6.6,14.8-16.9,14-3.1c-0.2,2.8,0.2,5.6,1,8.3C762.7,414.5,762.7,414.6,762.8,414.8z"/>
<path class="st14" d="M766.2,403.1c0,9.7-7.3,18-16.9,19.1c-0.8,0.1-1.6,0.2-2.4,0.1h-0.1c-10.7-0.1-19.2-8.8-19.1-19.4
	c0.1-10.7,8.8-19.2,19.4-19.1C757.6,383.9,766.2,392.5,766.2,403.1z"/>
<path class="st14" d="M784.9,459.3l-18.7,16c0,0-20.4-29.1-18-35.1c0.8-1.9,0.7-5.2,0.2-8.9c-0.3-2-0.7-4.2-1.1-6.3
	c-0.1-0.6-0.3-1.3-0.4-1.9c-0.1-0.2-0.1-0.5-0.2-0.7c-1.2-5-2.4-9-2.4-9s1.3-1.9,3.2-4.3c5.2-6.6,14.8-16.9,14-3.1
	c-0.2,2.8,0.2,5.6,1,8.3c0,0.2,0.1,0.3,0.2,0.5c2.7,8.2,9.1,14.7,14.1,18.8c2,1.7,4.2,3.2,6.5,4.6L784.9,459.3z"/>
<path class="st5" d="M709.8,623.2l29.3-13v20.1c0,0.9,0,1.7,0,2.6c-0.7-0.2-1.3-0.5-1.9-0.9c-5.8-3.6-13-0.8-13.5-0.8
	s-6.3,2.5-12.5-1.2c-0.3-0.2-0.5-0.3-0.8-0.4C710,626,709.8,623.2,709.8,623.2z"/>
<path class="st5" d="M790.2,605.7v20.1c0,1.2,0,2.5,0,3.7c-0.4,0.7-0.8,1.4-1,2.2c-1.1,2.5-8.3,3.3-14.6,2.3
	c-4-0.5-8.1-0.8-12.1-0.8c-0.9-6.7-1.6-14.6-1.6-14.6L790.2,605.7z"/>
<path class="st15" d="M818.9,611.5c-4.9,0.7-17.2,11.2-23.3,13.3s-5.4,2.5-6.5,4.9s-8.3,3.3-14.6,2.3s-18.3-0.7-18.3-0.7
	s-13.3,2.3-19.1-1.3s-13-0.8-13.5-0.8s-6.3,2.5-12.5-1.2s-14.4-2.3-14.4-2.3s-6.7-3.9-10.5-1.8s-12.3-4.2-14.4-6.1s4-8.1,8.6-9.8
	s13.3-28.4,14.2-29.3s4.7-10.2,4.2-13.9s10-20.5,10-20.5l6.7-22.7l2-7l0.1-4.2c0-1.9,0.1-4.3,0.1-7c0.2-11.2,0.4-27.8,0-35.3
	c-0.1-1.2-0.1-2.1-0.2-2.8c-0.9-7.5,7-24,9-27.4c1.4-2.5,10.8-4.4,16.3-5.5c1.3-0.2,2.6-0.6,3.9-0.9c0.5-0.1,1-0.2,1.5-0.1
	c5.2,0.2,20.7,3.5,20.7,3.5c-1.4,42.3,1.4,34.9,1.4,34.9c4.6-3.5,1.8-34.6,1.8-34.6c2.3,1,4.6-1.6,4.6-1.6l8.9,3.7
	c2.7,1.6,5.3,3.4,7.8,5.3c2.1,1.5,4,3.3,5.5,5.4c2.6,4.4,6.3,16.8,6.3,16.8l-3.2,5c-2.8,4.4-7,11.2-11.3,18.1l-7.7,12.3
	c-3.5,5.5-6.3,9.9-7.4,11.7c-0.3,0.4-0.5,0.9-0.5,1.4c-0.1,0.3-0.1,0.7-0.1,1c0,1.4,0.1,2.8,0.4,4.2c2.2,10.5,12.2,27.7,12.2,27.7
	s10,15.3,10.2,20.2s10.9,10.2,13.3,16.8s7.9,9.1,7.2,13.2s7,5.8,8.4,8.4S823.8,610.8,818.9,611.5z"/>
<path class="st5" d="M832.1,569.2c-2.7,1.8-7.5,1.8-9.1,1.5l-0.6-7.8l9.7,1.2C831.9,565.8,831.9,567.5,832.1,569.2z"/>
<path class="st15" d="M798.2,459.7l7.2,5.1c0,0,3.3,13.3,6.3,18.1s2.6,10.9,2.6,10.9c1,1.1,1.9,2.3,2.8,3.5
	c2.1,2.8,4.9,16.9,3.9,18.7s6.1,16.9,6.1,16.9s1,1,3.1,6.5s0,11.8,0,11.8s5.4,12.1,3.2,15.4s-9.7,3-10.7,2.6s2.8-2.3-4-2.8
	s-15.8-12.6-15.8-12.6c-3.6-6.4-6.2-13.3-7.7-20.5c-1.6-7.4-3.7-14.7-6.3-21.8c-0.9-2.6-4.7-19.7-4.7-19.7L798.2,459.7z"/>
<path class="st5" d="M744.4,459.7c0,0-0.5,40.7-5.4,48.8L744.4,459.7z"/>
<path class="st5" d="M772.8,474.1c0,0-4.6,40.7-8.2,42.8S772.8,474.1,772.8,474.1z"/>
<path class="st5" d="M766.2,468.3c0,0-1.1,38.4-6.9,42.2C753.5,514.3,766.2,468.3,766.2,468.3z"/>
<path class="st5" d="M715.8,540.9c0,0-7.3,21.2-6.4,30S715.8,540.9,715.8,540.9z"/>
<path class="st5" d="M775.5,519.9c-9.5,2.1-35.2,6-57.8-8.1c0-1.9,0.1-4.3,0.1-7c8.6,4.7,32.7,17,45,13.6c6.1-1.8,10-2.9,12.4-3.6
	C775,516.5,775.1,518.3,775.5,519.9z"/>
<path class="st5" d="M775.5,517.8c-9.5,2.1-35.2,5.9-57.8-8.1c0-1.9,0.1-4.3,0.1-7c8.6,4.7,32.7,17,45,13.6c6.1-1.7,10-2.9,12.4-3.6
	C775,514.4,775.1,516.2,775.5,517.8z"/>
<path class="st16" d="M775.5,518.6c-9.5,2.1-35.2,5.9-57.8-8.1c0-1.9,0.1-4.3,0.1-7c8.6,4.7,32.7,17,45,13.6
	c6.1-1.7,10-2.9,12.4-3.6C775,515.2,775.1,516.9,775.5,518.6z"/>
<path class="st5" d="M775.5,518.6c-9.5,2.1-35.2,5.9-57.8-8.1c0-1.9,0.1-4.3,0.1-7c8.6,4.7,32.7,17,45,13.6c6.1-1.7,10-2.9,12.4-3.6
	C775,515.2,775.1,516.9,775.5,518.6z"/>
<path class="st5" d="M734.6,760.1c0,0.2,0,0.4-0.1,0.4l-14.7,11.2c2.3-2.1,2.9-7.1,2.9-11.7c0-0.5,0-1,0-1.5
	c1.3-3.2,3.1-6.1,5.4-8.7c2.5-0.7,4.1,0,5,1.1c0,0.1,0,0.2,0,0.3c0.2,0.2,0.4,0.5,0.5,0.8C735.2,754.6,734.8,758.7,734.6,760.1z"/>
<path class="st5" d="M733.5,754.4l-11.1,7.6c0,0,0.1-0.9,0.2-2.2c1.3-3.4,3.2-6.5,5.7-9.3c2.5-0.6,4.1,0,5,1.1
	C733.3,753.3,733.5,754.4,733.5,754.4z"/>
<path class="st17" d="M734.5,761.2c-1.6,3.6-2.3,7.4-2.3,11.3c0.1,3.2-0.7,6.3-2.3,9.1c-0.2,0.4-0.5,0.8-0.8,1.1
	c0,0-7.7-0.1-10.4-2.3c-0.3-0.2-0.6-0.5-0.7-0.8c-1.5-3.1,3-14.8,3-14.8c2.4-9.1,7.2-13.9,7.2-13.9
	C736.8,748.6,734.5,761.2,734.5,761.2z"/>
<path class="st5" d="M729.9,781.6c-0.2,0.4-0.5,0.8-0.8,1.1c0,0-7.7-0.1-10.4-2.3c1.3-4.4,5.5-17.6,7.5-15.4
	S729.4,777.4,729.9,781.6z"/>
<path class="st17" d="M728.8,765.9l-0.5,19.9h2.6c0,0,0.4-17.4,1.6-19.9S728.8,765.9,728.8,765.9z"/>
<path class="st5" d="M785.7,755.6l-0.1,0.4l0,0L771,767.1c2.3-2.2,2.9-7.1,2.8-11.6c0-0.5,0-1,0-1.5c1.3-3.2,3.1-6.1,5.4-8.7
	c2.5-0.7,4.1,0,5,1.1c0,0.1,0,0.2,0,0.3c0.2,0.2,0.4,0.5,0.5,0.8C786.3,750.1,785.8,754.3,785.7,755.6z"/>
<path class="st5" d="M784.5,749.9l-11.1,7.6c0,0,0.1-0.9,0.2-2.2c1.3-3.4,3.2-6.5,5.7-9.3c2.5-0.6,4.1,0,5,1.1
	C784.4,748.8,784.5,749.9,784.5,749.9z"/>
<path class="st17" d="M785.6,756.7c-1.6,3.6-2.3,7.4-2.3,11.3c0.1,3.2-0.7,6.3-2.3,9.1c-0.2,0.4-0.5,0.8-0.8,1.1
	c0,0-7.7-0.1-10.4-2.3c-0.3-0.2-0.5-0.5-0.7-0.9c-1.5-3.1,3-14.8,3-14.8c2.4-9.1,7.2-13.9,7.2-13.9
	C787.9,744.1,785.6,756.7,785.6,756.7z"/>
<path class="st5" d="M780.9,777.1c-0.2,0.4-0.5,0.8-0.8,1.1c0,0-7.7-0.1-10.4-2.3c1.3-4.4,5.5-17.6,7.5-15.4
	S780.5,772.9,780.9,777.1z"/>
<path class="st17" d="M779.9,761.4l-0.5,19.8h2.6c0,0,0.4-17.4,1.6-19.8S779.9,761.4,779.9,761.4z"/>
<path class="st5" d="M802.9,475.3c-0.1,5-2.8,10.3-7.6,11.8c-1.4,0.4-2.9,0.5-4.3,0.8c-0.7,0.1-1.4,0.3-2,0.6
	c-3.1,1.4-4.6,4.9-5.2,8.2c-0.2,1.1-0.4,2.3-0.5,3.5c-0.2,2.2-0.6,4.4-1.4,6.5c-1.4,3.2-3.7,5.9-6.7,7.7c-3.5,2.1-7.3,3.7-11.2,4.7
	c4-6.2,5.1-13.8,3-20.9c-0.6-2-2-4.3-4.2-4.3c-1.7,0-2.9,1.5-4.2,2.7c-6.2,5.6-15.9,3.1-23.8,0.3c14-14.2,17.9-37.3,9.5-55.4
	c-0.8-1.4-1.3-2.9-1.7-4.5c-0.2-1.6-0.1-3.1,0.4-4.6c0.7-1.9,1.6-3.7,2.8-5.3c0.5-0.7,1-1.4,1.5-2.1c0.7-0.9,1.3-1.8,1.9-2.8
	c0.9-1.3,1.6-2.8,2-4.3c0.9-3.4-0.4-7.7-3.7-8.9l-0.2-0.1c-3.6-1.1-4.8-1.5-7.3-4.4c-1.7-1.9-2.6-5-5.4-5.6
	c-2.2-0.5-4.6,0.5-6.9,1.1c1.6-10.5,11.5-17.8,22-16.1c10.5,1.6,17.8,11.5,16.1,22c-0.5,3-1.6,5.8-3.4,8.3
	c2.6,8.4,9.2,15.1,14.3,19.2l8.9,3.7c2.7,1.6,5.3,3.4,7.8,5.3c1.4,6.2,3.3,12.4,5.7,18.3c1.2,2.9,2.2,5.9,3,9
	C802.7,471.6,802.9,473.5,802.9,475.3z"/>
<path class="st18" d="M748.1,408.3c3.4,1.1,4.7,5.5,3.8,8.9s-3.4,6.3-5.4,9.2s-3.9,6.4-3.3,9.9c0.4,1.6,1,3.1,1.7,4.5
	c8.4,18,4.5,41.1-9.5,55.4c7.8,2.8,17.6,5.3,23.8-0.3c1.3-1.1,2.5-2.6,4.2-2.7c2.2-0.1,3.5,2.2,4.2,4.3c2.1,7.1,1,14.7-3,20.9
	c7.2-2.1,15.2-5.3,17.9-12.3c1.2-3.1,1.2-6.6,1.9-9.9s2.2-6.8,5.2-8.2c2-0.9,4.3-0.8,6.3-1.4c4.8-1.5,7.5-6.8,7.6-11.8
	s-1.8-9.8-3.6-14.5c-10-26-0.6-5.2-6.1-36.5c-1.1-6.4,0.6-10.2,2.1-16.5s1.1-13.6-3.3-18.4s-11.2-5.7-16.7-8.9
	c-4.8-2.9-9.1-7.7-14.7-7.6c-4.1,0.1-4.1,0.7-7.9,2.3c-6.6,2.8-13.9,1.9-20.6,4.2c-6,2.1-13.6,8.8-11.8,16c2.5,9.7,9.2,2.6,14.4,3.6
	c2.8,0.6,3.8,3.6,5.4,5.6C743.3,406.8,744.5,407.1,748.1,408.3z"/>
<path class="st14" d="M685,526.5c0,0-2.8-0.3-6.7-0.9c-10-1.5-26.9-5-17.3-10c8.8-4.6,21-0.7,28.1,2.4c2,0.9,4,1.9,5.9,3L685,526.5z
	"/>
<path class="st5" d="M738.2,465.5c0,0-4.6,23-6.8,28.1s-6,18.4-6,18.4s-5.4,4.9-9.8,9.6l2-7l0.1-4.2c0-1.9,0.1-4.3,0.1-7
	c0.2-11.2,0.4-27.8,0-35.3c0.4-0.7,0.6-1.2,0.6-1.2l3.5-5.6c0,0,5.8-15.4,9.1-19.8S738.2,465.5,738.2,465.5z"/>
<path class="st5" d="M687.8,523.4c0,0-0.5,2-1.4,4.7c-1.1-0.4-2-0.8-2.7-1c-3-1,0.5-2.3-0.3-4.9c-0.8-2.3-2.1-1.5-3.7-2.2
	c1-1.4,2.2-2.8,3.4-4.1L687.8,523.4z"/>
<path class="st15" d="M721.4,461.3l-3.5,5.6c0,0-4.8,8.9-5.6,11.7S710,492,707,494.4s-9.1,10.3-8.3,11.9s-8.3,3.5-8.3,3.5
	s-6.1,2.5-5.8,4.4s-5.1,3.5-3.2,4.9s3.7,0,4.6,2.6s-2.6,3.9,0.3,4.9s12.8,5.2,12.8,5.2s7.9,1.3,10.2-3.4s15.3-16.5,15.3-16.5
	s3.7-13.3,6-18.4s6.8-28.1,6.8-28.1s-3.7-28.4-7-24S721.4,461.3,721.4,461.3z"/>
<path class="st5" d="M711.4,506.5c0,0-17.4,2.3-8.1,6.1c9.3,3.9,12.5,0,12.5,0L711.4,506.5z"/>
<path class="st5" d="M689.8,516.9c0,0,10.2-2.1,12.8,0S689.8,516.9,689.8,516.9z"/>
<path class="st5" d="M688.7,522.2c0,0,0.7-1.8,4.2,0S688.7,522.2,688.7,522.2z"/>
<path class="st5" d="M803.6,538.9c0,0,1.1,16,5.4,16.5S803.6,538.9,803.6,538.9z"/>
<path class="st5" d="M812.8,502.7c0,0,0.7,4.9-3.8,5.8S812.8,502.7,812.8,502.7z"/>
<path class="st5" d="M760.8,550.3c0,0-0.2,49.4,9.8,55.5L760.8,550.3z"/>
<path class="st5" d="M774.2,552.4c0,0-0.2,49.4,9.8,55.5L774.2,552.4z"/>
<path class="st5" d="M720.7,659.3c2.3-0.2,4.6-0.2,6.8,0C731.4,659.6,720.7,659.3,720.7,659.3z"/>
<path class="st5" d="M720.7,662.7c2.3-0.2,4.6-0.2,6.8,0C731.4,663.1,720.7,662.7,720.7,662.7z"/>
<path class="st5" d="M772.8,655.2c2.3-0.2,4.6-0.2,6.8,0C783.4,655.6,772.8,655.2,772.8,655.2z"/>
<path class="st5" d="M773.9,658c2.3-0.2,4.6-0.2,6.8,0C784.6,658.3,773.9,658,773.9,658z"/>
<g class="st19">
	<path d="M739.2,494.4c14-14.2,17.9-37.3,9.5-55.4c-0.8-1.4-1.3-2.9-1.7-4.5c-0.6-3.5,1.2-7,3.3-9.9s4.5-5.7,5.4-9.2
		s-0.4-7.9-3.8-8.9c-3.6-1.1-4.8-1.5-7.3-4.4c-1.7-1.9-2.6-5-5.4-5.6c-5.2-1.1-12,6-14.4-3.7c-1.4-5.4,2.7-10.6,7.3-13.7
		c-5.8,2.4-12.5,8.8-10.8,15.6c2.5,9.7,9.2,2.6,14.4,3.7c2.8,0.6,3.8,3.6,5.4,5.6c2.5,2.9,3.6,3.3,7.3,4.4c3.4,1.1,4.7,5.5,3.8,8.9
		s-3.4,6.3-5.4,9.2s-3.9,6.4-3.3,9.9c0.4,1.6,1,3.1,1.7,4.5c8.4,18.1,4.5,41.2-9.5,55.4c7.6,2.7,16.8,5.1,23,0.3
		C752.8,498.7,745.4,496.7,739.2,494.4z"/>
	<path d="M793.3,486.1c-0.7,0.3-1.4,0.8-2,1.4c1.6-0.4,3.3-0.4,4.8-0.9c1.2-0.4,2.3-1,3.3-1.8C797.4,485.3,795.2,485.3,793.3,486.1z
		"/>
	<path d="M775.9,513.9c-2.5,1.1-5,2-7.6,2.8c4-6.2,5.1-13.8,3-20.9c-0.6-2-2-4.3-4.2-4.3c-1.3,0.2-2.5,0.9-3.3,1.9
		c2,0.1,3.4,2.3,4,4.3c2.1,7.1,1,14.7-3,20.9C768.7,517.5,772.4,515.9,775.9,513.9z"/>
</g>
<rect x="391" y="266.6" class="st20" width="93.6" height="86.5"/>
<rect x="613.1" y="266.5" class="st21" width="93.6" height="86.5"/>
<rect x="501.6" y="266.5" class="st22" width="93.6" height="86.5"/>
</svg>
