<svg id="Camada_1" data-name="Camada 1" xmlns="http://www.w3.org/2000/svg" xmlns:xlink="http://www.w3.org/1999/xlink" viewBox="0 0 69.14 67.68"><defs><style>.cls-1,.cls-10,.cls-11,.cls-12,.cls-13,.cls-14,.cls-2,.cls-3,.cls-4,.cls-5,.cls-6,.cls-7,.cls-8,.cls-9{fill:none;stroke-miterlimit:10;stroke-width:2px;}.cls-1{stroke:url(#linear-gradient);}.cls-2{stroke:url(#linear-gradient-2);}.cls-3{stroke:url(#linear-gradient-3);}.cls-4{stroke:url(#linear-gradient-4);}.cls-5{stroke:url(#linear-gradient-5);}.cls-6{stroke:url(#linear-gradient-6);}.cls-7{stroke:url(#linear-gradient-7);}.cls-8{stroke:url(#linear-gradient-8);}.cls-9{stroke:url(#linear-gradient-9);}.cls-10{stroke:url(#linear-gradient-10);}.cls-11{stroke:url(#linear-gradient-11);}.cls-12{stroke:url(#linear-gradient-12);}.cls-13{stroke:url(#linear-gradient-13);}.cls-14{stroke:url(#linear-gradient-14);}</style><linearGradient id="linear-gradient" x1="4.1" y1="41.97" x2="8.69" y2="41.97" gradientUnits="userSpaceOnUse"><stop offset="0" stop-color="#2c6bb2"/><stop offset="0.23" stop-color="#2b64a9"/><stop offset="0.6" stop-color="#285291"/><stop offset="1" stop-color="#24386f"/></linearGradient><linearGradient id="linear-gradient-2" x1="47.22" y1="10.08" x2="51.9" y2="10.08" xlink:href="#linear-gradient"/><linearGradient id="linear-gradient-3" x1="40.86" y1="47.09" x2="47" y2="47.09" xlink:href="#linear-gradient"/><linearGradient id="linear-gradient-4" x1="45.84" y1="42.22" x2="51.99" y2="42.22" xlink:href="#linear-gradient"/><linearGradient id="linear-gradient-5" x1="2.23" y1="25.14" x2="52.5" y2="25.14" xlink:href="#linear-gradient"/><linearGradient id="linear-gradient-6" x1="9.54" y1="25.14" x2="45.2" y2="25.14" xlink:href="#linear-gradient"/><linearGradient id="linear-gradient-7" x1="61.64" y1="73.53" x2="87.82" y2="73.53" gradientTransform="translate(72.63 -31.29) rotate(44.31)" xlink:href="#linear-gradient"/><linearGradient id="linear-gradient-8" x1="16.06" y1="21.92" x2="26.78" y2="21.92" xlink:href="#linear-gradient"/><linearGradient id="linear-gradient-9" x1="26.75" y1="31.35" x2="37.47" y2="31.35" xlink:href="#linear-gradient"/><linearGradient id="linear-gradient-10" x1="0" y1="46.99" x2="7.26" y2="46.99" xlink:href="#linear-gradient"/><linearGradient id="linear-gradient-11" x1="48.56" y1="5.01" x2="55.82" y2="5.01" xlink:href="#linear-gradient"/><linearGradient id="linear-gradient-12" x1="33.6" y1="21.01" x2="41.74" y2="21.01" xlink:href="#linear-gradient"/><linearGradient id="linear-gradient-13" x1="24.5" y1="26.64" x2="29.01" y2="26.64" xlink:href="#linear-gradient"/><linearGradient id="linear-gradient-14" x1="13.22" y1="30.92" x2="19.91" y2="30.92" xlink:href="#linear-gradient"/></defs><line class="cls-1" x1="4.98" y1="44.59" x2="7.81" y2="39.35"/><line class="cls-2" x1="48.11" y1="12.78" x2="51.02" y2="7.38"/><line class="cls-3" x1="41.57" y1="44.67" x2="46.29" y2="49.5"/><line class="cls-4" x1="46.55" y1="39.81" x2="51.27" y2="44.64"/><circle class="cls-5" cx="27.37" cy="25.14" r="24.14"/><circle class="cls-6" cx="27.37" cy="25.14" r="16.83"/><rect class="cls-7" x="68.58" y="63.13" width="12.31" height="20.82" transform="translate(-48.8 54.11) rotate(-44.31)"/><circle class="cls-8" cx="21.42" cy="21.92" r="4.36"/><circle class="cls-9" cx="32.11" cy="31.35" r="4.36"/><circle class="cls-10" cx="3.63" cy="46.99" r="2.63"/><circle class="cls-11" cx="52.19" cy="5.01" r="2.63"/><line class="cls-12" x1="34.48" y1="26.95" x2="40.86" y2="15.08"/><line class="cls-13" x1="25.16" y1="25.23" x2="28.34" y2="28.06"/><line class="cls-14" x1="14.1" y1="35.49" x2="19.03" y2="26.35"/></svg>