<svg id="Camada_1" data-name="Camada 1" xmlns="http://www.w3.org/2000/svg" xmlns:xlink="http://www.w3.org/1999/xlink" viewBox="0 0 58.28 67.55"><defs><style>.cls-1{fill:url(#linear-gradient);}.cls-2{fill:url(#linear-gradient-2);}.cls-3{fill:url(#linear-gradient-3);}.cls-4{fill:url(#linear-gradient-4);}.cls-5{fill:url(#linear-gradient-5);}.cls-6{fill:url(#linear-gradient-6);}.cls-7{fill:url(#linear-gradient-7);}.cls-8{fill:url(#linear-gradient-8);}.cls-9{fill:url(#linear-gradient-9);}.cls-10{fill:url(#linear-gradient-10);}.cls-11{fill:url(#linear-gradient-11);}.cls-12{fill:url(#linear-gradient-12);}.cls-13{fill:url(#linear-gradient-13);}.cls-14{fill:url(#linear-gradient-14);}</style><linearGradient id="linear-gradient" x1="44.15" y1="57.31" x2="57.73" y2="57.31" gradientUnits="userSpaceOnUse"><stop offset="0" stop-color="#2c6bb2"/><stop offset="0.23" stop-color="#2b64a9"/><stop offset="0.6" stop-color="#285291"/><stop offset="1" stop-color="#24386f"/></linearGradient><linearGradient id="linear-gradient-2" x1="50" y1="38.49" x2="51.88" y2="38.49" xlink:href="#linear-gradient"/><linearGradient id="linear-gradient-3" x1="39.55" y1="41.02" x2="43.45" y2="41.02" xlink:href="#linear-gradient"/><linearGradient id="linear-gradient-4" x1="31.9" y1="47.93" x2="37.27" y2="47.93" xlink:href="#linear-gradient"/><linearGradient id="linear-gradient-5" x1="29.1" y1="57.37" x2="35.01" y2="57.37" xlink:href="#linear-gradient"/><linearGradient id="linear-gradient-6" x1="31.9" y1="66.81" x2="37.27" y2="66.81" xlink:href="#linear-gradient"/><linearGradient id="linear-gradient-7" x1="39.55" y1="73.72" x2="43.45" y2="73.72" xlink:href="#linear-gradient"/><linearGradient id="linear-gradient-8" x1="50" y1="76.25" x2="51.88" y2="76.25" xlink:href="#linear-gradient"/><linearGradient id="linear-gradient-9" x1="58.43" y1="73.72" x2="62.33" y2="73.72" xlink:href="#linear-gradient"/><linearGradient id="linear-gradient-10" x1="64.61" y1="66.81" x2="69.98" y2="66.81" xlink:href="#linear-gradient"/><linearGradient id="linear-gradient-11" x1="66.87" y1="57.37" x2="72.78" y2="57.37" xlink:href="#linear-gradient"/><linearGradient id="linear-gradient-12" x1="64.61" y1="47.93" x2="69.98" y2="47.93" xlink:href="#linear-gradient"/><linearGradient id="linear-gradient-13" x1="58.43" y1="41.02" x2="62.33" y2="41.02" xlink:href="#linear-gradient"/><linearGradient id="linear-gradient-14" x1="21.8" y1="50" x2="80.08" y2="50" xlink:href="#linear-gradient"/></defs><path class="cls-1" d="M55.85,52.38a.93.93,0,0,0,.94.93h0a.92.92,0,0,0,.93-.94c0-2.84-2.37-4.89-5.85-5.2v-2.3a.94.94,0,1,0-1.88,0v2.3c-3.49.32-5.85,2.37-5.85,5.2s2.26,5,5.85,5.74v7.45c-2-.25-4-1.31-4-3.31a.94.94,0,0,0-.94-.94h0a.93.93,0,0,0-.93.95c0,2.83,2.37,4.88,5.85,5.19v2.31a.95.95,0,0,0,1.89,0V67.51s0,0,0-.06c3.49-.31,5.85-2.36,5.85-5.19s-2.26-5-5.85-5.74V49.07C53.93,49.31,55.84,50.37,55.85,52.38Zm-9.81,0c0-1.75,1.58-3,4-3.3v7.11C47.52,55.57,46,54.17,46,52.37Zm9.8,9.88c0,1.76-1.58,3-4,3.31V58.45C54.36,59.05,55.85,60.45,55.84,62.25Z" transform="translate(-21.8 -16.23)"/><path class="cls-2" d="M50.94,41.44a.94.94,0,0,0,.94-.94v-4a.94.94,0,1,0-1.88,0v4A.94.94,0,0,0,50.94,41.44Z" transform="translate(-21.8 -16.23)"/><path class="cls-3" d="M41.31,38.8A.94.94,0,0,0,40,38.46a.93.93,0,0,0-.34,1.28l2,3.49a.94.94,0,0,0,.82.47.9.9,0,0,0,.47-.13.93.93,0,0,0,.34-1.28Z" transform="translate(-21.8 -16.23)"/><path class="cls-4" d="M36.8,48.12l-3.48-2a.94.94,0,0,0-1,1.63l3.49,2a.9.9,0,0,0,.47.13.94.94,0,0,0,.47-1.76Z" transform="translate(-21.8 -16.23)"/><path class="cls-5" d="M35,57.37a.94.94,0,0,0-.94-.94H30a.94.94,0,0,0,0,1.88h4A.94.94,0,0,0,35,57.37Z" transform="translate(-21.8 -16.23)"/><path class="cls-6" d="M35.86,65l-3.49,2a.94.94,0,0,0,.48,1.76.93.93,0,0,0,.47-.13l3.48-2A.94.94,0,0,0,35.86,65Z" transform="translate(-21.8 -16.23)"/><path class="cls-7" d="M43,71.17a.94.94,0,0,0-1.29.34l-2,3.49A.93.93,0,0,0,40,76.28a.9.9,0,0,0,.47.13,1,1,0,0,0,.82-.47l2-3.49A.93.93,0,0,0,43,71.17Z" transform="translate(-21.8 -16.23)"/><path class="cls-8" d="M50.94,73.3a.94.94,0,0,0-.94.94v4a.94.94,0,0,0,1.88,0v-4A.94.94,0,0,0,50.94,73.3Z" transform="translate(-21.8 -16.23)"/><path class="cls-9" d="M60.19,71.51a.94.94,0,0,0-1.63.94l2,3.49a1,1,0,0,0,.82.47.9.9,0,0,0,.47-.13A.93.93,0,0,0,62.2,75Z" transform="translate(-21.8 -16.23)"/><path class="cls-10" d="M69.51,67,66,65a.94.94,0,0,0-.94,1.63l3.49,2a.88.88,0,0,0,.47.13A.94.94,0,0,0,69.51,67Z" transform="translate(-21.8 -16.23)"/><path class="cls-11" d="M66.87,57.37a.94.94,0,0,0,.94.94h4a.94.94,0,0,0,0-1.88h-4A.94.94,0,0,0,66.87,57.37Z" transform="translate(-21.8 -16.23)"/><path class="cls-12" d="M64.74,49.41a.94.94,0,0,0,.81.47.9.9,0,0,0,.47-.13l3.49-2a.94.94,0,0,0,.34-1.29.93.93,0,0,0-1.28-.34l-3.49,2A.94.94,0,0,0,64.74,49.41Z" transform="translate(-21.8 -16.23)"/><path class="cls-13" d="M61.86,38.46a.94.94,0,0,0-1.29.34l-2,3.49a.93.93,0,0,0,.35,1.28.88.88,0,0,0,.47.13.94.94,0,0,0,.81-.47l2-3.49A.93.93,0,0,0,61.86,38.46Z" transform="translate(-21.8 -16.23)"/><path class="cls-14" d="M80.08,34.47a1.81,1.81,0,0,0-.53-1.29L75.77,29.4a1.83,1.83,0,0,0-2.58,0l-6.67,6.67A26.22,26.22,0,0,0,55.1,31.3s0-.06,0-.09V25.38h1.82a2,2,0,0,0,2-1.89V18.11a2,2,0,0,0-2-1.88H45a2,2,0,0,0-2.05,1.88v5.38A2,2,0,0,0,45,25.38h1.82v5.83s0,.06,0,.09a26.22,26.22,0,0,0-11.42,4.77L28.69,29.4a1.83,1.83,0,0,0-2.58,0l-3.77,3.78a1.81,1.81,0,0,0,0,2.58l6.77,6.77a26.4,26.4,0,1,0,43.66,0l6.78-6.77A1.83,1.83,0,0,0,80.08,34.47Zm-35.29-11V18.16a.25.25,0,0,1,.16-.05h12a.25.25,0,0,1,.16.05v5.29a.26.26,0,0,1-.16,0H45A.26.26,0,0,1,44.79,23.45Zm3.87,1.93h4.56v5.69c-.75-.07-1.51-.1-2.28-.1s-1.53,0-2.28.1ZM23.71,34.47l3.69-3.7,6.47,6.47A26.89,26.89,0,0,0,30.24,41ZM50.94,81.89A24.51,24.51,0,0,1,35.63,38.23.84.84,0,0,0,36,38a.61.61,0,0,0,.12-.16,24.48,24.48,0,0,1,29.68,0,.61.61,0,0,0,.12.16,1,1,0,0,0,.35.22A24.5,24.5,0,0,1,50.94,81.89ZM71.64,41A26.34,26.34,0,0,0,68,37.24l6.47-6.47,3.69,3.7Z" transform="translate(-21.8 -16.23)"/></svg>