<svg id="Camada_1" data-name="Camada 1" xmlns="http://www.w3.org/2000/svg" xmlns:xlink="http://www.w3.org/1999/xlink" viewBox="0 0 56.36 75.61"><defs><style>.cls-1{fill:url(#linear-gradient);}.cls-2{fill:url(#linear-gradient-2);}.cls-3{fill:url(#linear-gradient-3);}</style><linearGradient id="linear-gradient" x1="23.02" y1="63.31" x2="79.37" y2="63.31" gradientUnits="userSpaceOnUse"><stop offset="0" stop-color="#2c6bb2"/><stop offset="0.23" stop-color="#2b64a9"/><stop offset="0.6" stop-color="#285291"/><stop offset="1" stop-color="#24386f"/></linearGradient><linearGradient id="linear-gradient-2" x1="37.71" y1="26.73" x2="64.72" y2="26.73" xlink:href="#linear-gradient"/><linearGradient id="linear-gradient-3" x1="45.96" y1="26.99" x2="56.47" y2="26.99" xlink:href="#linear-gradient"/></defs><path class="cls-1" d="M78.09,68.69l-7.81-7.81,2.27-5.31,4.64-4.64A.83.83,0,0,0,76,49.76l-4.73,4.73a1,1,0,0,0-.21.31L69,59.64a83.79,83.79,0,0,0-9-7.19l1.26-.24a.83.83,0,0,0-.35-1.62,24.94,24.94,0,0,1-11.11.14,1,1,0,0,0-1,.28l-.75.81L47.9,52a18.5,18.5,0,0,1-2.65,2.42,6.14,6.14,0,0,1-4.85.73A3.07,3.07,0,0,1,38.55,54a.56.56,0,0,1,.05-.63l8.07-8.65H58.62a.94.94,0,0,0,.68-.27l5.38-5.22a.82.82,0,0,0,0-1.17.83.83,0,0,0-1.17,0l-5.18,5h-12a1,1,0,0,0-.72.31l-1.42,1.52H41.6l-5.52-4.73A.82.82,0,1,0,35,41.39l5.7,4.9a1,1,0,0,0,.64.23H42.7l-5.33,5.72,0,0a2.22,2.22,0,0,0-.23,2.45,4.6,4.6,0,0,0,2.85,2,7.11,7.11,0,0,0,2,.28,8.25,8.25,0,0,0,4.15-1.17,18.21,18.21,0,0,0,3-2.7l.71-.75a25.14,25.14,0,0,0,7.75.36,78.22,78.22,0,0,1,10.73,8.43l8.64,8.64a2.65,2.65,0,0,1,.6,2.89,3.5,3.5,0,0,1-2.63,2.18,2.28,2.28,0,0,1-1.71-.53L72,73.18a.72.72,0,0,0-.19-.13L64,65.29a.83.83,0,0,0-1.17,1.17l8.64,8.64a2.69,2.69,0,0,1,.6,2.9,3.46,3.46,0,0,1-2.64,2.17,2.18,2.18,0,0,1-1.7-.53l-1.23-1.21a.34.34,0,0,0-.09-.08,2.45,2.45,0,0,0-.31-.34l-7.78-7.79a.82.82,0,0,0-1.17,0,.83.83,0,0,0,0,1.17L65,79.17a2.69,2.69,0,0,1,.6,2.9,3.49,3.49,0,0,1-2.64,2.18,2.26,2.26,0,0,1-1.7-.53L60,82.5a.57.57,0,0,0-.15-.12L53,75.56a.83.83,0,0,0-1.17,1.17l6.82,6.82a2.07,2.07,0,0,1,.47,2.24l0,.06v0a2.46,2.46,0,0,1-1.61,1.25A2.15,2.15,0,0,1,56,86.9L54.64,86c-.13-.09-1.94-1.38-4.51-3.46a3.62,3.62,0,0,0,.64-3.81,4.31,4.31,0,0,0-3.24-2.65,2.52,2.52,0,0,0-.48,0,4.05,4.05,0,0,0-.27-2.3,5,5,0,0,0-3.72-3.07,3.27,3.27,0,0,0-1.42,0,4.11,4.11,0,0,0-.29-2.1,5,5,0,0,0-3.73-3.07,3.18,3.18,0,0,0-.93,0,3.76,3.76,0,0,0-.25-2.06A4.57,4.57,0,0,0,33,60.64a3.36,3.36,0,0,0-1.81.2l-1.78-4.18a1,1,0,0,0-.21-.31l-4.73-4.73a.83.83,0,0,0-1.17,1.17L28,57.43l1.87,4.38-5.65,5.65a3.85,3.85,0,0,0-.86,4.23,4.55,4.55,0,0,0,3.42,2.82.76.76,0,0,0,.21,0,4.12,4.12,0,0,0,0,3.14,5,5,0,0,0,3.73,3.07,2.63,2.63,0,0,0,.57,0,3.54,3.54,0,0,0,.85-.11,4,4,0,0,0,.29,2.11,5,5,0,0,0,3.73,3.07,2.6,2.6,0,0,0,.56.06,4,4,0,0,0,1.55-.34,3.35,3.35,0,0,0,.24.86l.08.18a3.72,3.72,0,0,0,2.13,2,3.48,3.48,0,0,0,1.2.2,4.74,4.74,0,0,0,2-.5A4.51,4.51,0,0,0,45,87.59l.79-.71L49,83.73h0c2.77,2.24,4.64,3.57,4.72,3.63h0l1.36.91,0,0a3.85,3.85,0,0,0,1.92.51,4.26,4.26,0,0,0,.8-.08,4.06,4.06,0,0,0,2.7-2,1.31,1.31,0,0,0,.12-.24v0a3.61,3.61,0,0,0,.25-1,4,4,0,0,0,1.76.43,3.7,3.7,0,0,0,.59,0,5.12,5.12,0,0,0,3.82-3.16,4.06,4.06,0,0,0,.32-1.31,4.1,4.1,0,0,0,1.8.45,2.72,2.72,0,0,0,.58-.06,5.1,5.1,0,0,0,3.83-3.15,4.17,4.17,0,0,0,.3-2.11,3.68,3.68,0,0,0,.73.07,2.78,2.78,0,0,0,.58,0A5.13,5.13,0,0,0,79,73.4,4.29,4.29,0,0,0,78.09,68.69ZM24.84,71.05a2.24,2.24,0,0,1,.5-2.42l4.88-4.87h0l1.07-1.07a1.88,1.88,0,0,1,1.4-.43,2.91,2.91,0,0,1,2.23,1.84,2.22,2.22,0,0,1-.51,2.42l-4.83,4.84,0,0-1.07,1.07a1.85,1.85,0,0,1-1.4.43A2.89,2.89,0,0,1,24.84,71.05ZM31,79.13A3.35,3.35,0,0,1,28.5,77a2.56,2.56,0,0,1,.58-2.78l5.35-5.36a.08.08,0,0,0,0,0l1.19-1.18a2.18,2.18,0,0,1,1.63-.51,3.37,3.37,0,0,1,2.54,2.1,2.58,2.58,0,0,1-.58,2.78l-5.4,5.39h0l-1.19,1.18A2.14,2.14,0,0,1,31,79.13Zm5.44,5.12a3.36,3.36,0,0,1-2.54-2.09,2.58,2.58,0,0,1,.58-2.78L39.87,74s0,0,0,0L41.1,72.8a2.17,2.17,0,0,1,1.63-.5,3.33,3.33,0,0,1,2.53,2.09A2.56,2.56,0,0,1,45,76.73l-.23.2-.07.07-.06.06-5.39,5.38a4,4,0,0,0-.49.61l-.7.7A2.13,2.13,0,0,1,36.47,84.25Zm8.22,1.42-.78.7a2.81,2.81,0,0,1-.69.47,2.56,2.56,0,0,1-2,.23,2.12,2.12,0,0,1-1.19-1.15A.61.61,0,0,0,40,85.8a2,2,0,0,1,.1-1.71l5.74-5.75a4.59,4.59,0,0,0,.36-.41,1.7,1.7,0,0,1,1-.22,2.65,2.65,0,0,1,2,1.68,2,2,0,0,1-.46,2.18Z" transform="translate(-23.02 -13.22)"/><path class="cls-2" d="M51.21,40.24a13.51,13.51,0,1,0-13.5-13.51A13.52,13.52,0,0,0,51.21,40.24Zm0-25.36A11.85,11.85,0,1,1,39.36,26.73,11.86,11.86,0,0,1,51.21,14.88Z" transform="translate(-23.02 -13.22)"/><path class="cls-3" d="M47.61,30.73a.83.83,0,0,0-.83-.82h0a.81.81,0,0,0-.82.83c0,2.18,1.79,3.76,4.43,4v1.64a.83.83,0,0,0,1.65,0V34.78c2.65-.28,4.43-1.86,4.43-4S54.76,26.89,52,26.3V20.88c1.45.2,2.77,1,2.78,2.37a.83.83,0,0,0,.83.83h0a.83.83,0,0,0,.82-.83c0-2.19-1.79-3.77-4.43-4V17.57a.83.83,0,1,0-1.65,0v1.64c-2.65.27-4.43,1.86-4.43,4s1.7,3.84,4.43,4.43v5.43C48.94,32.9,47.61,32.14,47.61,30.73Zm7.21,0c0,1.24-1.11,2.15-2.78,2.38V28C53.78,28.46,54.82,29.46,54.82,30.73Zm-7.21-7.48c0-1.24,1.11-2.15,2.78-2.37V26C48.65,25.52,47.61,24.52,47.61,23.25Z" transform="translate(-23.02 -13.22)"/></svg>