<svg id="Camada_1" data-name="Camada 1" xmlns="http://www.w3.org/2000/svg" xmlns:xlink="http://www.w3.org/1999/xlink" viewBox="0 0 54.93 69.92"><defs><style>.cls-1{fill:url(#linear-gradient);}.cls-2{fill:url(#linear-gradient-2);}</style><linearGradient id="linear-gradient" x1="25.96" y1="52.59" x2="80.88" y2="52.59" gradientUnits="userSpaceOnUse"><stop offset="0" stop-color="#2c6bb2"/><stop offset="0.23" stop-color="#2b64a9"/><stop offset="0.6" stop-color="#285291"/><stop offset="1" stop-color="#24386f"/></linearGradient><linearGradient id="linear-gradient-2" x1="54.71" y1="68.64" x2="69.25" y2="68.64" xlink:href="#linear-gradient"/></defs><path class="cls-1" d="M63.76,49.82V42.31a.65.65,0,0,0,0-.2,2.17,2.17,0,0,0,0-.36V24.34c0-2-2-3.74-5.92-5a44.11,44.11,0,0,0-13-1.73,44.11,44.11,0,0,0-13,1.73c-3.88,1.24-5.92,3-5.92,5V41.75a2.17,2.17,0,0,0,0,.36.65.65,0,0,0,0,.2V67.75c0,4.25,9,6.57,18,6.7A18.9,18.9,0,1,0,63.76,49.82ZM43.58,64.28c-9.73-.22-15.68-2.89-15.68-4.76V53.66a14.24,14.24,0,0,0,4,1.86,44.11,44.11,0,0,0,13,1.73c.69,0,1.38,0,2.07,0A18.93,18.93,0,0,0,43.58,64.28Zm1.28-17.76c-10.51,0-17-2.78-17-4.77V35.88a14.52,14.52,0,0,0,4,1.87A43.53,43.53,0,0,0,44,39.47h1.67a43.55,43.55,0,0,0,12.15-1.72,14.52,14.52,0,0,0,4-1.87v5.87C61.82,43.74,55.37,46.52,44.86,46.52Zm17-13.76c0,2-6.45,4.78-17,4.78s-17-2.78-17-4.78v-5.3a14.52,14.52,0,0,0,4,1.87,44.44,44.44,0,0,0,13,1.73,44.44,44.44,0,0,0,13-1.73,14.52,14.52,0,0,0,4-1.87ZM48.73,55.17c-1.26.09-2.56.14-3.87.14-10.51,0-17-2.78-17-4.77V44.87a14.24,14.24,0,0,0,4,1.86,44.11,44.11,0,0,0,13,1.73,44.11,44.11,0,0,0,13-1.73,14.24,14.24,0,0,0,4-1.86v4.87A18.85,18.85,0,0,0,48.73,55.17Zm-3.87-35.6c10.51,0,17,2.78,17,4.77s-6.45,4.78-17,4.78-17-2.78-17-4.78S34.35,19.57,44.86,19.57Zm-17,48.18V62.63c3,2.17,9.13,3.4,15.33,3.58a19.57,19.57,0,0,0-.16,2.43,18.86,18.86,0,0,0,.4,3.86C33.79,72.27,27.9,69.63,27.9,67.75ZM62,85.61a17,17,0,1,1,17-17A17,17,0,0,1,62,85.61Z" transform="translate(-25.96 -17.63)"/><path class="cls-2" d="M67.31,63.33a1,1,0,0,0,1,1h0a1,1,0,0,0,1-1c0-3-2.56-5.23-6.31-5.55V55.25a1,1,0,0,0-1.94,0v2.52c-3.75.32-6.29,2.51-6.29,5.55s2.43,5.35,6.29,6.14v8.1c-2.23-.25-4.34-1.4-4.35-3.6a1,1,0,0,0-1-1h0a1,1,0,0,0-1,1c0,3,2.55,5.23,6.29,5.56v.57s0,0,0,.07V82A1,1,0,0,0,63,82V79.62a.15.15,0,0,0,0-.07v0a8,8,0,0,0,4.15-1.45A5,5,0,0,0,69.24,74c0-3-2.43-5.35-6.3-6.14v-8.1C65.19,60,67.3,61.13,67.31,63.33Zm-10.65,0c0-1.92,1.74-3.32,4.34-3.6v7.75C58.28,66.82,56.65,65.29,56.66,63.32ZM67.3,74a3.13,3.13,0,0,1-1.36,2.55,6.16,6.16,0,0,1-3,1V69.81C65.67,70.46,67.31,72,67.3,74Z" transform="translate(-25.96 -17.63)"/></svg>