<svg id="Camada_1" data-name="Camada 1" xmlns="http://www.w3.org/2000/svg" xmlns:xlink="http://www.w3.org/1999/xlink" viewBox="0 0 84.66 83.37"><defs><style>.cls-1,.cls-2,.cls-3,.cls-4,.cls-5,.cls-6{fill:none;stroke-miterlimit:10;stroke-width:2px;}.cls-1{stroke:url(#linear-gradient);}.cls-2{stroke:url(#linear-gradient-2);}.cls-3{stroke:url(#linear-gradient-3);}.cls-4{stroke:url(#linear-gradient-4);}.cls-5{stroke:url(#linear-gradient-5);}.cls-6{stroke:url(#linear-gradient-6);}.cls-7{fill:url(#linear-gradient-7);}</style><linearGradient id="linear-gradient" x1="1.39" y1="47.32" x2="51.64" y2="47.32" gradientUnits="userSpaceOnUse"><stop offset="0" stop-color="#2c6bb2"/><stop offset="0.23" stop-color="#2b64a9"/><stop offset="0.6" stop-color="#285291"/><stop offset="1" stop-color="#24386f"/></linearGradient><linearGradient id="linear-gradient-2" x1="74.53" y1="34.56" x2="76.53" y2="34.56" xlink:href="#linear-gradient"/><linearGradient id="linear-gradient-3" x1="50.15" y1="66.12" x2="84.66" y2="66.12" xlink:href="#linear-gradient"/><linearGradient id="linear-gradient-4" x1="0" y1="17.35" x2="78.07" y2="17.35" xlink:href="#linear-gradient"/><linearGradient id="linear-gradient-5" x1="36.61" y1="54.72" x2="38.61" y2="54.72" xlink:href="#linear-gradient"/><linearGradient id="linear-gradient-6" x1="14.93" y1="26.74" x2="62.41" y2="26.74" xlink:href="#linear-gradient"/><linearGradient id="linear-gradient-7" x1="68.87" y1="75.28" x2="80.08" y2="75.28" xlink:href="#linear-gradient"/></defs><polyline class="cls-1" points="2.39 16.55 2.39 57.99 37.61 76.95 51.15 69.46"/><line class="cls-2" x1="75.53" y1="52.57" x2="75.53" y2="16.55"/><circle class="cls-3" cx="67.41" cy="66.12" r="16.26"/><polygon class="cls-4" points="2.39 17.35 37.61 1.09 75.53 17.35 37.61 33.6 2.39 17.35"/><line class="cls-5" x1="37.61" y1="33.6" x2="37.61" y2="75.84"/><polyline class="cls-6" points="51.15 6.51 15.93 22.77 15.93 41.73 24.06 46.2 24.06 28.19 61.99 10.49"/><path class="cls-7" d="M77.5,74.24c-.86-.5-1.72-.79-2.65-1.22a5.72,5.72,0,0,1-1.43-.79A1.24,1.24,0,0,1,73.7,70a4.73,4.73,0,0,1,.86-.22,6.52,6.52,0,0,1,3.3.65c.5.29.72.14.86-.36a13.93,13.93,0,0,0,.5-1.72c.15-.36,0-.64-.43-.79a10.06,10.06,0,0,0-2.08-.64c-.93-.14-.93-.14-.93-1.08,0-1.36,0-1.36-1.36-1.36h-.57c-.65,0-.72.15-.79.79v.86c0,.86,0,.86-.79,1.15A4.57,4.57,0,0,0,69,71.44a4.22,4.22,0,0,0,2.43,4.09,23.28,23.28,0,0,0,3,1.36,2.77,2.77,0,0,1,1.08.64,1.52,1.52,0,0,1-.36,2.66,3.76,3.76,0,0,1-1.94.28,10.49,10.49,0,0,1-2.93-.86c-.58-.28-.72-.21-.86.36s-.29,1-.43,1.58-.15.86.57,1.14a8.61,8.61,0,0,0,2.65.79c.72.15.72.15.72.86v1a.65.65,0,0,0,.64.71h1.51a.56.56,0,0,0,.64-.64V84.06a.79.79,0,0,1,.65-.86A5.44,5.44,0,0,0,79,81.55a4.85,4.85,0,0,0-1.51-7.31" transform="translate(-6.88 -8.27)"/></svg>