<svg id="Camada_1" data-name="Camada 1" xmlns="http://www.w3.org/2000/svg" xmlns:xlink="http://www.w3.org/1999/xlink" viewBox="0 0 72.52 74.16"><defs><style>.cls-1,.cls-2,.cls-3,.cls-4,.cls-5,.cls-6{fill:none;stroke-miterlimit:10;stroke-width:2px;}.cls-1{stroke:url(#linear-gradient);}.cls-2{stroke:url(#linear-gradient-2);}.cls-3{stroke:url(#linear-gradient-3);}.cls-4{stroke:url(#linear-gradient-4);}.cls-5{stroke:url(#linear-gradient-5);}.cls-6{stroke:url(#linear-gradient-6);}</style><linearGradient id="linear-gradient" x1="15.76" y1="61.68" x2="27.24" y2="61.68" gradientUnits="userSpaceOnUse"><stop offset="0" stop-color="#2c6bb2"/><stop offset="0.23" stop-color="#2b64a9"/><stop offset="0.6" stop-color="#285291"/><stop offset="1" stop-color="#24386f"/></linearGradient><linearGradient id="linear-gradient-2" x1="14.11" y1="50.03" x2="86.63" y2="50.03" xlink:href="#linear-gradient"/><linearGradient id="linear-gradient-3" x1="21.67" y1="17.55" x2="66.95" y2="17.55" xlink:href="#linear-gradient"/><linearGradient id="linear-gradient-4" x1="38.72" y1="35.44" x2="63.32" y2="35.44" xlink:href="#linear-gradient"/><linearGradient id="linear-gradient-5" x1="38.72" y1="42" x2="53.48" y2="42" xlink:href="#linear-gradient"/><linearGradient id="linear-gradient-6" x1="38.72" y1="28.88" x2="63.32" y2="28.88" xlink:href="#linear-gradient"/></defs><line class="cls-1" x1="15.76" y1="61.68" x2="27.24" y2="61.68"/><path class="cls-2" d="M39.71,25.43h41a4.92,4.92,0,0,1,4.92,4.92V86.11h-41V30.35a4.92,4.92,0,0,0-9.84,0V69.71a4.92,4.92,0,1,1-9.84,0V18.87a4.92,4.92,0,1,0-9.84,0v8.2h6.56" transform="translate(-14.11 -12.95)"/><path class="cls-3" d="M21.67,14H61A4.92,4.92,0,0,1,66,18.87v3.28" transform="translate(-14.11 -12.95)"/><line class="cls-4" x1="38.72" y1="35.44" x2="63.32" y2="35.44"/><line class="cls-5" x1="38.72" y1="42" x2="53.48" y2="42"/><line class="cls-6" x1="38.72" y1="28.88" x2="63.32" y2="28.88"/></svg>