<svg id="Camada_1" data-name="Camada 1" xmlns="http://www.w3.org/2000/svg" xmlns:xlink="http://www.w3.org/1999/xlink" viewBox="0 0 68.81 65.66"><defs><style>.cls-1{fill:url(#linear-gradient);}.cls-2{fill:url(#linear-gradient-2);}.cls-3{fill:url(#linear-gradient-3);}.cls-4{fill:url(#linear-gradient-4);}.cls-5{fill:url(#linear-gradient-5);}.cls-6{fill:url(#linear-gradient-6);}.cls-7{fill:url(#linear-gradient-7);}.cls-8{fill:url(#linear-gradient-8);}</style><linearGradient id="linear-gradient" x1="63.23" y1="35.62" x2="76.15" y2="35.62" gradientUnits="userSpaceOnUse"><stop offset="0" stop-color="#2c6bb2"/><stop offset="0.23" stop-color="#2b64a9"/><stop offset="0.6" stop-color="#285291"/><stop offset="1" stop-color="#24386f"/></linearGradient><linearGradient id="linear-gradient-2" x1="52.65" y1="35.63" x2="86.73" y2="35.63" xlink:href="#linear-gradient"/><linearGradient id="linear-gradient-3" x1="66.97" y1="35.75" x2="72.42" y2="35.75" xlink:href="#linear-gradient"/><linearGradient id="linear-gradient-4" x1="28.49" y1="65.94" x2="41.42" y2="65.94" xlink:href="#linear-gradient"/><linearGradient id="linear-gradient-5" x1="17.92" y1="65.94" x2="51.99" y2="65.94" xlink:href="#linear-gradient"/><linearGradient id="linear-gradient-6" x1="32.23" y1="66.07" x2="37.68" y2="66.07" xlink:href="#linear-gradient"/><linearGradient id="linear-gradient-7" x1="56.09" y1="70.73" x2="82.05" y2="70.73" xlink:href="#linear-gradient"/><linearGradient id="linear-gradient-8" x1="20.25" y1="34.48" x2="46.2" y2="34.48" xlink:href="#linear-gradient"/></defs><path class="cls-1" d="M69.69,43.06c3.57,0,6.46-3.34,6.46-7.44s-2.89-7.43-6.46-7.43-6.46,3.33-6.46,7.43S66.13,43.06,69.69,43.06Zm0-13.92c3,0,5.52,2.91,5.52,6.48s-2.48,6.49-5.52,6.49-5.51-2.91-5.51-6.49S66.65,29.14,69.69,29.14Z" transform="translate(-17.92 -19.77)"/><path class="cls-2" d="M86.16,25.48H53.22a.57.57,0,0,0-.57.56v6.57h0v6.27h0v6.3a.58.58,0,0,0,.57.57H86.16a.58.58,0,0,0,.57-.57V26A.57.57,0,0,0,86.16,25.48ZM53.6,33.06A6.9,6.9,0,0,0,60,26.42H79.37a6.89,6.89,0,0,0,6.41,6.64v5.37a6.88,6.88,0,0,0-6.39,6.39H60a6.9,6.9,0,0,0-6.4-6.39Zm32.18-.94a6,6,0,0,1-5.46-5.7h5.46Zm-26.72-5.7a6,6,0,0,1-5.46,5.7v-5.7Zm-5.46,13a6,6,0,0,1,5.45,5.44H53.6Zm26.73,5.44a6,6,0,0,1,5.45-5.44v5.44Z" transform="translate(-17.92 -19.77)"/><path class="cls-3" d="M67.91,37.65a.47.47,0,0,0-.47-.47h0a.47.47,0,0,0-.47.47,2.25,2.25,0,0,0,2.25,2.1v.79a.47.47,0,0,0,.47.47.48.48,0,0,0,.48-.47v-.79a2.25,2.25,0,0,0,2.25-2.1c0-1.11-.87-2-2.26-2.3V32.7c.69.12,1.31.48,1.31,1.15a.47.47,0,0,0,.47.47h0a.47.47,0,0,0,.47-.48,2.26,2.26,0,0,0-2.26-2.1V31a.47.47,0,1,0-.94,0v.78A2.24,2.24,0,0,0,67,33.84c0,1.12.86,2,2.25,2.3v2.65C68.53,38.68,67.92,38.31,67.91,37.65Zm3.56,0c0,.58-.52,1-1.31,1.14V36.33C71,36.56,71.47,37,71.47,37.65Zm-3.55-3.8c0-.59.51-1,1.3-1.15v2.46C68.4,34.93,67.91,34.45,67.92,33.85Z" transform="translate(-17.92 -19.77)"/><path class="cls-4" d="M35,73.38c3.56,0,6.46-3.34,6.46-7.44s-2.9-7.43-6.46-7.43-6.47,3.33-6.47,7.43S31.39,73.38,35,73.38Zm0-13.93c3,0,5.51,2.91,5.51,6.49S38,72.43,35,72.43s-5.52-2.91-5.52-6.49S31.91,59.45,35,59.45Z" transform="translate(-17.92 -19.77)"/><path class="cls-5" d="M51.43,55.79H18.49a.57.57,0,0,0-.57.57v6.57h0v6.25h0v6.32a.57.57,0,0,0,.57.57H51.43a.57.57,0,0,0,.56-.57V56.36A.57.57,0,0,0,51.43,55.79ZM18.87,63.38a6.89,6.89,0,0,0,6.4-6.64H44.64a6.89,6.89,0,0,0,6.41,6.64v5.37a6.9,6.9,0,0,0-6.4,6.39H25.26a6.9,6.9,0,0,0-6.39-6.39Zm32.18-1a6,6,0,0,1-5.47-5.69h5.47ZM24.33,56.74a6,6,0,0,1-5.46,5.69V56.74Zm-5.46,13a5.94,5.94,0,0,1,5.44,5.44H18.87ZM45.6,75.14a5.94,5.94,0,0,1,5.45-5.44v5.44Z" transform="translate(-17.92 -19.77)"/><path class="cls-6" d="M33.18,68a.48.48,0,0,0-.48-.47h0a.48.48,0,0,0-.47.48,2.26,2.26,0,0,0,2.25,2.1v.79a.48.48,0,0,0,.48.47.47.47,0,0,0,.47-.47v-.79A2.24,2.24,0,0,0,37.68,68c0-1.11-.87-2-2.25-2.3V63c.69.11,1.3.48,1.31,1.15a.47.47,0,0,0,.47.47h0a.48.48,0,0,0,.47-.48,2.25,2.25,0,0,0-2.25-2.1v-.78a.48.48,0,1,0-1,0v.78a2.25,2.25,0,0,0-2.25,2.1,2.51,2.51,0,0,0,2.25,2.3v2.65C33.79,69,33.18,68.63,33.18,68Zm3.55,0c0,.58-.51,1-1.3,1.14V66.65C36.25,66.88,36.74,67.36,36.73,68Zm-3.55-3.81c0-.58.52-1,1.3-1.14v2.46C33.66,65.25,33.18,64.77,33.18,64.16Z" transform="translate(-17.92 -19.77)"/><path class="cls-7" d="M80.91,56a1.14,1.14,0,0,0-1.13,1.14A20.63,20.63,0,0,1,59.85,77.75L63.56,74a1.13,1.13,0,0,0-1.6-1.6L56.43,78a1.11,1.11,0,0,0,0,1.6L62,85.1a1.13,1.13,0,1,0,1.6-1.6L60.08,80a22.9,22.9,0,0,0,22-22.85A1.14,1.14,0,0,0,80.91,56Z" transform="translate(-17.92 -19.77)"/><path class="cls-8" d="M21.38,49.19a1.14,1.14,0,0,0,1.14-1.14A20.62,20.62,0,0,1,42.44,27.46l-3.7,3.7a1.13,1.13,0,1,0,1.6,1.61l5.53-5.53a1.13,1.13,0,0,0,0-1.6l-5.53-5.53a1.13,1.13,0,0,0-1.6,1.6l3.48,3.49a22.89,22.89,0,0,0-22,22.85A1.14,1.14,0,0,0,21.38,49.19Z" transform="translate(-17.92 -19.77)"/></svg>