<svg id="Camada_1" data-name="Camada 1" xmlns="http://www.w3.org/2000/svg" xmlns:xlink="http://www.w3.org/1999/xlink" viewBox="0 0 69.47 69.3"><defs><style>.cls-1,.cls-2,.cls-3,.cls-4,.cls-5,.cls-6,.cls-7,.cls-8,.cls-9{fill:none;stroke-miterlimit:10;stroke-width:2px;}.cls-1{stroke:url(#linear-gradient);}.cls-2{stroke:url(#linear-gradient-2);}.cls-3{stroke:url(#linear-gradient-3);}.cls-4{stroke:url(#linear-gradient-4);}.cls-5{stroke:url(#linear-gradient-5);}.cls-6{stroke:url(#linear-gradient-6);}.cls-7{stroke:url(#linear-gradient-7);}.cls-8{stroke:url(#linear-gradient-8);}.cls-9{stroke:url(#linear-gradient-9);}</style><linearGradient id="linear-gradient" x1="20.16" y1="55.92" x2="25.34" y2="55.92" gradientUnits="userSpaceOnUse"><stop offset="0" stop-color="#2c6bb2"/><stop offset="0.23" stop-color="#2b64a9"/><stop offset="0.6" stop-color="#285291"/><stop offset="1" stop-color="#24386f"/></linearGradient><linearGradient id="linear-gradient-2" x1="4.37" y1="30.08" x2="8.86" y2="30.08" xlink:href="#linear-gradient"/><linearGradient id="linear-gradient-3" x1="76.48" y1="41.84" x2="82.45" y2="41.84" xlink:href="#linear-gradient"/><linearGradient id="linear-gradient-4" x1="7.86" y1="23.96" x2="12.35" y2="23.96" xlink:href="#linear-gradient"/><linearGradient id="linear-gradient-5" x1="11.35" y1="17.84" x2="57.32" y2="17.84" xlink:href="#linear-gradient"/><linearGradient id="linear-gradient-6" x1="20.51" y1="65.64" x2="89.64" y2="65.64" xlink:href="#linear-gradient"/><linearGradient id="linear-gradient-7" x1="18.91" y1="11.25" x2="31.94" y2="11.25" xlink:href="#linear-gradient"/><linearGradient id="linear-gradient-8" x1="18.91" y1="18.21" x2="50.54" y2="18.21" xlink:href="#linear-gradient"/><linearGradient id="linear-gradient-9" x1="18.91" y1="25.32" x2="50.54" y2="25.32" xlink:href="#linear-gradient"/></defs><path class="cls-1" d="M21.75,83a2.64,2.64,0,0,1-.59-1.63V31.52a2.32,2.32,0,0,1,2.31-2.31h1.87" transform="translate(-20.16 -15.35)"/><polyline class="cls-2" points="5.37 55.17 5.37 5.98 8.86 5.98"/><path class="cls-3" d="M76.48,37.07h2.66a2.32,2.32,0,0,1,2.31,2.31v8.24" transform="translate(-20.16 -15.35)"/><polyline class="cls-4" points="8.86 45.43 8.86 3.49 12.35 3.49"/><polyline class="cls-5" points="12.35 35.69 12.35 1 56.32 1 56.32 32.27"/><path class="cls-6" d="M74.11,83.65h-51a1.57,1.57,0,0,1-1.48-2.31L32.91,49.93A3.63,3.63,0,0,1,36,47.62H87a1.57,1.57,0,0,1,1.48,2.31L77.24,81.34A3.63,3.63,0,0,1,74.11,83.65Z" transform="translate(-20.16 -15.35)"/><line class="cls-7" x1="18.91" y1="11.25" x2="31.94" y2="11.25"/><line class="cls-8" x1="18.91" y1="18.21" x2="50.54" y2="18.21"/><line class="cls-9" x1="18.91" y1="25.32" x2="50.54" y2="25.32"/></svg>