<svg id="Camada_1" data-name="Camada 1" xmlns="http://www.w3.org/2000/svg" xmlns:xlink="http://www.w3.org/1999/xlink" viewBox="0 0 59.78 74.31"><defs><style>.cls-1,.cls-11,.cls-12,.cls-2,.cls-3,.cls-5,.cls-6,.cls-7,.cls-8,.cls-9{fill:none;}.cls-1,.cls-10,.cls-11,.cls-12,.cls-2,.cls-3,.cls-5,.cls-6,.cls-7,.cls-8,.cls-9{stroke-miterlimit:10;stroke-width:2px;}.cls-1{stroke:url(#linear-gradient);}.cls-2{stroke:url(#linear-gradient-2);}.cls-3{stroke:url(#linear-gradient-3);}.cls-4{fill:url(#linear-gradient-4);}.cls-5{stroke:url(#linear-gradient-5);}.cls-6{stroke:url(#linear-gradient-6);}.cls-7{stroke:url(#linear-gradient-7);}.cls-8{stroke:url(#linear-gradient-8);}.cls-9{stroke:url(#linear-gradient-9);}.cls-10{fill:#fff;stroke:#243c75;}.cls-11{stroke:url(#linear-gradient-10);}.cls-12{stroke:url(#linear-gradient-11);}</style><linearGradient id="linear-gradient" x1="36.48" y1="40.29" x2="36.48" y2="40.29" gradientUnits="userSpaceOnUse"><stop offset="0" stop-color="#2c6bb2"/><stop offset="0.23" stop-color="#2b64a9"/><stop offset="0.6" stop-color="#285291"/><stop offset="1" stop-color="#24386f"/></linearGradient><linearGradient id="linear-gradient-2" x1="17.16" y1="26.49" x2="40.24" y2="26.49" xlink:href="#linear-gradient"/><linearGradient id="linear-gradient-3" x1="0" y1="30.6" x2="48.59" y2="30.6" xlink:href="#linear-gradient"/><linearGradient id="linear-gradient-4" x1="32.13" y1="8.06" x2="48.41" y2="8.06" xlink:href="#linear-gradient"/><linearGradient id="linear-gradient-5" x1="6.43" y1="25.34" x2="14.73" y2="25.34" xlink:href="#linear-gradient"/><linearGradient id="linear-gradient-6" x1="17.16" y1="37.84" x2="40.24" y2="37.84" xlink:href="#linear-gradient"/><linearGradient id="linear-gradient-7" x1="6.43" y1="36.69" x2="14.73" y2="36.69" xlink:href="#linear-gradient"/><linearGradient id="linear-gradient-8" x1="17.16" y1="49.2" x2="40.24" y2="49.2" xlink:href="#linear-gradient"/><linearGradient id="linear-gradient-9" x1="6.43" y1="48.05" x2="14.73" y2="48.05" xlink:href="#linear-gradient"/><linearGradient id="linear-gradient-10" x1="42.67" y1="60.55" x2="49.37" y2="60.55" xlink:href="#linear-gradient"/><linearGradient id="linear-gradient-11" x1="80.59" y1="90.06" x2="88.43" y2="90.06" gradientTransform="translate(136.14 -24.05) rotate(90)" xlink:href="#linear-gradient"/></defs><path class="cls-1" d="M36.48,40.29" transform="translate(-26.94 -17.24)"/><line class="cls-2" x1="17.16" y1="26.49" x2="40.24" y2="26.49"/><polygon class="cls-3" points="47.59 60.2 1 60.2 1 1 32.67 1 40.25 8.48 47.59 15.69 47.59 60.2"/><polygon class="cls-4" points="32.66 0.02 32.13 0.02 32.92 16.09 48.41 16.09 48.41 16.04 32.66 0.02"/><polyline class="cls-5" points="7.11 25.6 9.41 27.75 13.95 22.09"/><line class="cls-6" x1="17.16" y1="37.84" x2="40.24" y2="37.84"/><polyline class="cls-7" points="7.11 36.95 9.41 39.1 13.95 33.45"/><line class="cls-8" x1="17.16" y1="49.2" x2="40.24" y2="49.2"/><polyline class="cls-9" points="7.11 48.31 9.41 50.45 13.95 44.8"/><circle class="cls-10" cx="46.02" cy="60.55" r="12.76"/><line class="cls-11" x1="42.67" y1="60.55" x2="49.37" y2="60.55"/><line class="cls-12" x1="46.08" y1="56.54" x2="46.08" y2="64.39"/></svg>