<svg id="Camada_1" data-name="Camada 1" xmlns="http://www.w3.org/2000/svg" xmlns:xlink="http://www.w3.org/1999/xlink" viewBox="0 0 59.48 69.61"><defs><style>.cls-1,.cls-10,.cls-11,.cls-12,.cls-2,.cls-3,.cls-4,.cls-5,.cls-6,.cls-7,.cls-8,.cls-9{fill:none;stroke-miterlimit:10;}.cls-1,.cls-2,.cls-3,.cls-4,.cls-5{stroke-width:2px;}.cls-1{stroke:url(#linear-gradient);}.cls-2{stroke:url(#linear-gradient-2);}.cls-3{stroke:url(#linear-gradient-3);}.cls-4{stroke:url(#linear-gradient-4);}.cls-5{stroke:url(#linear-gradient-5);}.cls-6{stroke:url(#linear-gradient-6);}.cls-7{stroke:url(#linear-gradient-7);}.cls-8{stroke:url(#linear-gradient-8);}.cls-9{stroke:url(#linear-gradient-9);}.cls-10{stroke:url(#linear-gradient-10);}.cls-11{stroke:url(#linear-gradient-11);}.cls-12{stroke:url(#linear-gradient-12);}</style><linearGradient id="linear-gradient" x1="35.62" y1="49.18" x2="35.62" y2="49.18" gradientUnits="userSpaceOnUse"><stop offset="0" stop-color="#2c6bb2"/><stop offset="0.23" stop-color="#2b64a9"/><stop offset="0.6" stop-color="#285291"/><stop offset="1" stop-color="#24386f"/></linearGradient><linearGradient id="linear-gradient-2" x1="27.82" y1="41.19" x2="36.62" y2="41.19" xlink:href="#linear-gradient"/><linearGradient id="linear-gradient-3" x1="20.63" y1="56.73" x2="51.38" y2="56.73" xlink:href="#linear-gradient"/><linearGradient id="linear-gradient-4" x1="64.13" y1="41.19" x2="72.92" y2="41.19" xlink:href="#linear-gradient"/><linearGradient id="linear-gradient-5" x1="49.36" y1="56.73" x2="80.11" y2="56.73" xlink:href="#linear-gradient"/><linearGradient id="linear-gradient-6" x1="39.12" y1="28.83" x2="61.38" y2="28.83" xlink:href="#linear-gradient"/><linearGradient id="linear-gradient-7" x1="23.56" y1="6.32" x2="37.67" y2="6.32" xlink:href="#linear-gradient"/><linearGradient id="linear-gradient-8" x1="23.56" y1="8.91" x2="37.67" y2="8.91" xlink:href="#linear-gradient"/><linearGradient id="linear-gradient-9" x1="23.56" y1="11.51" x2="37.67" y2="11.51" xlink:href="#linear-gradient"/><linearGradient id="linear-gradient-10" x1="23.56" y1="14.1" x2="37.67" y2="14.1" xlink:href="#linear-gradient"/><linearGradient id="linear-gradient-11" x1="23.56" y1="16.7" x2="37.67" y2="16.7" xlink:href="#linear-gradient"/><linearGradient id="linear-gradient-12" x1="23.56" y1="19.29" x2="37.67" y2="19.29" xlink:href="#linear-gradient"/></defs><path class="cls-1" d="M35.62,49.18" transform="translate(-20.63 -16.02)"/><path class="cls-2" d="M35.62,48.86v-11a3.4,3.4,0,0,0-6.8,0" transform="translate(-20.63 -16.02)"/><path class="cls-3" d="M34.13,54.54a3.39,3.39,0,0,1,4.8-4.8l8.7,8.88a10.57,10.57,0,0,1,2.75,7.55V84.63H32.2v-7.8s.13-2.75-2.66-7.08c0,0-4.28-7-5.87-9.26-1.26-1.79-2-2.53-2-12.15V32.42a3.6,3.6,0,0,1,7.19,0V45.55c0,1.78-.38,3.43,2.66,6.38s9.73,9.75,9.73,9.75" transform="translate(-20.63 -16.02)"/><path class="cls-4" d="M65.13,48.86v-11a3.4,3.4,0,0,1,6.79,0" transform="translate(-20.63 -16.02)"/><path class="cls-5" d="M66.62,54.54a3.4,3.4,0,1,0-4.81-4.8l-8.7,8.88a10.57,10.57,0,0,0-2.75,7.55V84.63H68.54v-7.8s-.13-2.75,2.67-7.08c0,0,4.27-7,5.87-9.26,1.26-1.79,2-2.53,2-12.15V32.42a3.6,3.6,0,0,0-7.19,0V45.55c0,1.78.39,3.43-2.65,6.38s-9.74,9.75-9.74,9.75" transform="translate(-20.63 -16.02)"/><path class="cls-6" d="M39.27,41.14a2,2,0,0,0,2-2V16.52h19.6V39.14h0a2,2,0,0,1-2,2H39.12" transform="translate(-20.63 -16.02)"/><line class="cls-7" x1="23.56" y1="6.32" x2="37.67" y2="6.32"/><line class="cls-8" x1="23.56" y1="8.91" x2="37.67" y2="8.91"/><line class="cls-9" x1="23.56" y1="11.51" x2="37.67" y2="11.51"/><line class="cls-10" x1="23.56" y1="14.1" x2="37.67" y2="14.1"/><line class="cls-11" x1="23.56" y1="16.7" x2="37.67" y2="16.7"/><line class="cls-12" x1="23.56" y1="19.29" x2="37.67" y2="19.29"/></svg>