<svg id="Camada_1" data-name="Camada 1" xmlns="http://www.w3.org/2000/svg" xmlns:xlink="http://www.w3.org/1999/xlink" viewBox="0 0 74.69 53.91"><defs><style>.cls-1{fill:url(#linear-gradient);}.cls-2{fill:url(#linear-gradient-2);}</style><linearGradient id="linear-gradient" x1="10.73" y1="48.31" x2="85.41" y2="48.31" gradientUnits="userSpaceOnUse"><stop offset="0" stop-color="#2c6bb2"/><stop offset="0.23" stop-color="#2b64a9"/><stop offset="0.6" stop-color="#285291"/><stop offset="1" stop-color="#24386f"/></linearGradient><linearGradient id="linear-gradient-2" x1="56.54" y1="55.24" x2="80.06" y2="55.24" xlink:href="#linear-gradient"/></defs><path class="cls-1" d="M83.36,21.35H23.76a2.05,2.05,0,0,0-2.05,2.06V48c-4.1.44-7.28,3.41-7.28,7V58.4H12.79a2.06,2.06,0,0,0-2.06,2.06V73.2a2.06,2.06,0,0,0,2.06,2.06H32.68a2.06,2.06,0,0,0,2.06-2.06V68.12H83.36a2.05,2.05,0,0,0,2-2.06V23.41A2.05,2.05,0,0,0,83.36,21.35ZM23.76,33.7h59.6v5.1H23.76Zm59.6-10.29v8.23H23.76V23.41ZM16.49,55.05c0-2.76,2.8-5,6.25-5s6.24,2.24,6.24,5V58.4H16.49ZM32.68,73.2H12.79V60.46H32.68Zm0,1v-1h0Zm2.06-8.17v-5.6a2.06,2.06,0,0,0-2.06-2.06H31V55.05c0-3.6-3.18-6.57-7.28-7V40.86h59.6v25.2Z" transform="translate(-10.73 -21.35)"/><path class="cls-2" d="M73.27,48.45a6.76,6.76,0,0,0-5,2.18,6.79,6.79,0,1,0,0,9.23,6.79,6.79,0,1,0,5-11.41Zm-6.16,9.64a4.74,4.74,0,1,1,0-5.69.2.2,0,0,0,0,.08l-.09.2,0,.12a1.55,1.55,0,0,0-.08.23.36.36,0,0,0,0,.09l-.08.26a.31.31,0,0,1,0,.08c0,.09,0,.18-.07.27s0,.05,0,.08l-.06.28s0,0,0,.07a2.89,2.89,0,0,0,0,.29s0,0,0,.07a2.83,2.83,0,0,0,0,.29.2.2,0,0,0,0,.07c0,.12,0,.24,0,.36s0,.25,0,.37a.13.13,0,0,0,0,.06c0,.1,0,.2,0,.3s0,0,0,.07,0,.19,0,.29,0,0,0,.06l.06.29s0,0,0,.07,0,.19.07.28a.24.24,0,0,1,0,.08l.08.26a.36.36,0,0,0,0,.09,1.55,1.55,0,0,0,.08.23s0,.08,0,.11l.09.21ZM73.27,60a4.73,4.73,0,0,1-4.11-2.4l-.09-.17a.3.3,0,0,1,0-.08c0-.08-.08-.17-.12-.25h0c0-.09-.07-.18-.1-.26l0-.06-.08-.24v0a3.82,3.82,0,0,1-.11-.57v-.07a1.64,1.64,0,0,1,0-.22.22.22,0,0,1,0-.08,2.71,2.71,0,0,1,0-.29,2.62,2.62,0,0,1,0-.28.22.22,0,0,1,0-.08,1.64,1.64,0,0,1,0-.22v-.07A3.59,3.59,0,0,1,68.7,54v0l.08-.24,0-.06a2.77,2.77,0,0,1,.1-.26h0c0-.08.07-.17.12-.25a.2.2,0,0,1,0-.08l.09-.17A4.73,4.73,0,1,1,73.27,60Z" transform="translate(-10.73 -21.35)"/></svg>