<svg id="Camada_1" data-name="Camada 1" xmlns="http://www.w3.org/2000/svg" xmlns:xlink="http://www.w3.org/1999/xlink" viewBox="0 0 64.32 69.88"><defs><style>.cls-1,.cls-2,.cls-3,.cls-4,.cls-5,.cls-6,.cls-7,.cls-8{fill:none;stroke-miterlimit:10;stroke-width:2px;}.cls-1{stroke:url(#linear-gradient);}.cls-2{stroke:url(#linear-gradient-2);}.cls-3{stroke:url(#linear-gradient-3);}.cls-4{stroke:url(#linear-gradient-4);}.cls-5{stroke:url(#linear-gradient-5);}.cls-6{stroke:url(#linear-gradient-6);}.cls-7{stroke:url(#linear-gradient-7);}.cls-8{stroke:url(#linear-gradient-8);}</style><linearGradient id="linear-gradient" x1="52.48" y1="42.84" x2="63.84" y2="42.84" gradientUnits="userSpaceOnUse"><stop offset="0" stop-color="#2c6bb2"/><stop offset="0.23" stop-color="#2b64a9"/><stop offset="0.6" stop-color="#285291"/><stop offset="1" stop-color="#24386f"/></linearGradient><linearGradient id="linear-gradient-2" x1="48.02" y1="71.26" x2="54.94" y2="71.26" xlink:href="#linear-gradient"/><linearGradient id="linear-gradient-3" x1="25.06" y1="61.34" x2="36.52" y2="61.34" xlink:href="#linear-gradient"/><linearGradient id="linear-gradient-4" x1="0" y1="66.1" x2="31.52" y2="66.1" xlink:href="#linear-gradient"/><linearGradient id="linear-gradient-5" x1="31.42" y1="59.02" x2="51.87" y2="59.02" xlink:href="#linear-gradient"/><linearGradient id="linear-gradient-6" x1="13.12" y1="24.78" x2="64.32" y2="24.78" xlink:href="#linear-gradient"/><linearGradient id="linear-gradient-7" x1="23.96" y1="12.48" x2="51.84" y2="12.48" xlink:href="#linear-gradient"/><linearGradient id="linear-gradient-8" x1="23.96" y1="19.04" x2="42" y2="19.04" xlink:href="#linear-gradient"/></defs><polyline class="cls-1" points="63.84 38.72 53.48 38.72 53.48 47.96"/><path class="cls-2" d="M49,78.78V74.19s4.92-3.69,4.92-8.2V63.74" transform="translate(-21.78 -15.46)"/><path class="cls-3" d="M35.9,44.34l-6.56,5.25c-2.32,2.13-3.28,3.34-3.28,6.56v23" transform="translate(-21.78 -15.46)"/><polyline class="cls-4" points="1 69.88 1 63.32 30.52 63.32 30.52 69.88"/><path class="cls-5" d="M32.12,61.07,45.24,48c3-3,8,2.86,4.37,7.36-1.77,1.77-3.87,4.12-3.87,4.12v3.28a8.15,8.15,0,0,1-6.81,8.2" transform="translate(-21.78 -15.46)"/><polyline class="cls-6" points="14.12 42 14.12 1 63.32 1 63.32 40.36 55.12 48.56 23.96 48.56"/><line class="cls-7" x1="23.96" y1="12.48" x2="51.84" y2="12.48"/><line class="cls-8" x1="23.96" y1="19.04" x2="42" y2="19.04"/></svg>