<svg id="Camada_1" data-name="Camada 1" xmlns="http://www.w3.org/2000/svg" xmlns:xlink="http://www.w3.org/1999/xlink" viewBox="0 0 61.56 61.56"><defs><style>.cls-1{fill:none;stroke-miterlimit:10;stroke-width:2px;stroke:url(#linear-gradient);}.cls-2{fill:url(#linear-gradient-2);}</style><linearGradient id="linear-gradient" y1="30.78" x2="61.56" y2="30.78" gradientUnits="userSpaceOnUse"><stop offset="0" stop-color="#2c6bb2"/><stop offset="0.23" stop-color="#2b64a9"/><stop offset="0.6" stop-color="#285291"/><stop offset="1" stop-color="#24386f"/></linearGradient><linearGradient id="linear-gradient-2" x1="42.56" y1="56.73" x2="58.21" y2="56.73" xlink:href="#linear-gradient"/></defs><circle class="cls-1" cx="30.78" cy="30.78" r="29.78"/><path class="cls-2" d="M54.61,55.28c-1.2-.7-2.4-1.1-3.7-1.7a7.81,7.81,0,0,1-2-1.1,1.73,1.73,0,0,1,.4-3.1,5.27,5.27,0,0,1,1.2-.3,9,9,0,0,1,4.6.9c.7.4,1,.2,1.2-.5a21.72,21.72,0,0,0,.7-2.4c.2-.5,0-.9-.6-1.1a14,14,0,0,0-2.9-.9c-1.3-.2-1.3-.2-1.3-1.5,0-1.9,0-1.9-1.9-1.9h-.8c-.9,0-1,.2-1.1,1.1V44c0,1.2,0,1.2-1.1,1.6a6.41,6.41,0,0,0-4.6,5.8c-.2,2.6,1.2,4.4,3.4,5.7a31.74,31.74,0,0,0,4.2,1.9,3.77,3.77,0,0,1,1.5.9,2.1,2.1,0,0,1-.5,3.7,5.11,5.11,0,0,1-2.7.4,14.84,14.84,0,0,1-4.1-1.2c-.8-.4-1-.3-1.2.5s-.4,1.4-.6,2.2c-.3,1-.2,1.2.8,1.6a12.13,12.13,0,0,0,3.7,1.1c1,.2,1,.2,1,1.2v1.4a.92.92,0,0,0,.9,1h2.1a.8.8,0,0,0,.9-.9V69a1.11,1.11,0,0,1,.9-1.2,7.53,7.53,0,0,0,3.7-2.3,6.76,6.76,0,0,0-2.1-10.2" transform="translate(-19.59 -25.95)"/></svg>