<svg id="Camada_1" data-name="Camada 1" xmlns="http://www.w3.org/2000/svg" xmlns:xlink="http://www.w3.org/1999/xlink" viewBox="0 0 86.64 83.45"><defs><style>.cls-1,.cls-10,.cls-11,.cls-12,.cls-13,.cls-14,.cls-15,.cls-16,.cls-2,.cls-3,.cls-4,.cls-5,.cls-6,.cls-7,.cls-8,.cls-9{fill:none;stroke-miterlimit:10;stroke-width:2px;}.cls-1{stroke:url(#linear-gradient);}.cls-2{stroke:url(#linear-gradient-2);}.cls-3{stroke:url(#linear-gradient-3);}.cls-4{stroke:url(#linear-gradient-4);}.cls-5{stroke:url(#linear-gradient-5);}.cls-6{stroke:url(#linear-gradient-6);}.cls-7{stroke:url(#linear-gradient-7);}.cls-8{stroke:url(#linear-gradient-8);}.cls-9{stroke:url(#linear-gradient-9);}.cls-10{stroke:url(#linear-gradient-10);}.cls-11{stroke:url(#linear-gradient-11);}.cls-12{stroke:url(#linear-gradient-12);}.cls-13{stroke:url(#linear-gradient-13);}.cls-14{stroke:url(#linear-gradient-14);}.cls-15{stroke:url(#linear-gradient-15);}.cls-16{stroke:url(#linear-gradient-16);}</style><linearGradient id="linear-gradient" x1="22.65" y1="14.77" x2="63.99" y2="14.77" gradientUnits="userSpaceOnUse"><stop offset="0" stop-color="#2c6bb2"/><stop offset="0.23" stop-color="#2b64a9"/><stop offset="0.6" stop-color="#285291"/><stop offset="1" stop-color="#24386f"/></linearGradient><linearGradient id="linear-gradient-2" x1="23.37" y1="30.27" x2="63.27" y2="30.27" xlink:href="#linear-gradient"/><linearGradient id="linear-gradient-3" x1="31.91" y1="14.93" x2="52.02" y2="14.93" xlink:href="#linear-gradient"/><linearGradient id="linear-gradient-4" x1="42.32" y1="35.07" x2="44.32" y2="35.07" xlink:href="#linear-gradient"/><linearGradient id="linear-gradient-5" x1="0.76" y1="47.26" x2="31.73" y2="47.26" xlink:href="#linear-gradient"/><linearGradient id="linear-gradient-6" x1="1.71" y1="58.67" x2="30.78" y2="58.67" xlink:href="#linear-gradient"/><linearGradient id="linear-gradient-7" x1="15.24" y1="77.04" x2="17.24" y2="77.04" xlink:href="#linear-gradient"/><linearGradient id="linear-gradient-8" x1="54.91" y1="47.26" x2="85.87" y2="47.26" xlink:href="#linear-gradient"/><linearGradient id="linear-gradient-9" x1="55.86" y1="58.67" x2="84.93" y2="58.67" xlink:href="#linear-gradient"/><linearGradient id="linear-gradient-10" x1="69.39" y1="77.04" x2="71.39" y2="77.04" xlink:href="#linear-gradient"/><linearGradient id="linear-gradient-11" x1="34.2" y1="74.33" x2="52.44" y2="74.33" xlink:href="#linear-gradient"/><linearGradient id="linear-gradient-12" x1="0" y1="79.83" x2="35.75" y2="79.83" xlink:href="#linear-gradient"/><linearGradient id="linear-gradient-13" x1="50.89" y1="79.83" x2="86.64" y2="79.83" xlink:href="#linear-gradient"/><linearGradient id="linear-gradient-14" x1="42.32" y1="63.5" x2="44.32" y2="63.5" xlink:href="#linear-gradient"/><linearGradient id="linear-gradient-15" x1="15.24" y1="62.15" x2="17.24" y2="62.15" xlink:href="#linear-gradient"/><linearGradient id="linear-gradient-16" x1="69.39" y1="62.15" x2="71.39" y2="62.15" xlink:href="#linear-gradient"/></defs><polygon class="cls-1" points="24.37 14.77 43.32 1.23 62.27 14.77 43.32 28.3 24.37 14.77"/><polyline class="cls-2" points="24.37 14.77 24.37 31.01 43.32 44.55 62.27 31.01 62.27 14.77"/><line class="cls-3" x1="32.49" y1="21.61" x2="51.44" y2="8.24"/><line class="cls-4" x1="43.32" y1="28.3" x2="43.32" y2="41.84"/><polygon class="cls-5" points="2.71 47.26 16.25 55.38 29.78 47.26 16.25 39.13 2.71 47.26"/><polyline class="cls-6" points="2.71 47.26 2.71 60.79 16.25 68.92 29.78 60.79 29.78 47.26"/><line class="cls-7" x1="16.24" y1="74.33" x2="16.24" y2="79.74"/><polygon class="cls-8" points="56.86 47.26 70.39 55.38 83.93 47.26 70.39 39.13 56.86 47.26"/><polyline class="cls-9" points="56.86 47.26 56.86 60.79 70.39 68.92 83.93 60.79 83.93 47.26"/><line class="cls-10" x1="70.39" y1="74.33" x2="70.39" y2="79.74"/><circle class="cls-11" cx="43.32" cy="74.33" r="8.12"/><polyline class="cls-12" points="0 82.45 27.07 82.45 35.2 77.04"/><polyline class="cls-13" points="86.64 82.45 59.56 82.45 51.44 77.04"/><line class="cls-14" x1="43.32" y1="74.33" x2="43.32" y2="52.67"/><line class="cls-15" x1="16.24" y1="55.38" x2="16.24" y2="68.91"/><line class="cls-16" x1="70.39" y1="55.38" x2="70.39" y2="68.91"/></svg>