<svg id="Camada_1" data-name="Camada 1" xmlns="http://www.w3.org/2000/svg" xmlns:xlink="http://www.w3.org/1999/xlink" viewBox="0 0 72.09 70.8"><defs><style>.cls-1,.cls-2,.cls-3,.cls-4,.cls-5,.cls-6,.cls-7{fill:none;stroke-miterlimit:10;stroke-width:2px;}.cls-1{stroke:url(#linear-gradient);}.cls-2{stroke:url(#linear-gradient-2);}.cls-3{stroke:url(#linear-gradient-3);}.cls-4{stroke:url(#linear-gradient-4);}.cls-5{stroke:url(#linear-gradient-5);}.cls-6{stroke:url(#linear-gradient-6);}.cls-7{stroke:url(#linear-gradient-7);}</style><linearGradient id="linear-gradient" x1="1.39" y1="40.26" x2="44.09" y2="40.26" gradientUnits="userSpaceOnUse"><stop offset="0" stop-color="#2c6bb2"/><stop offset="0.23" stop-color="#2b64a9"/><stop offset="0.6" stop-color="#285291"/><stop offset="1" stop-color="#24386f"/></linearGradient><linearGradient id="linear-gradient-2" x1="12.84" y1="22.84" x2="53.19" y2="22.84" xlink:href="#linear-gradient"/><linearGradient id="linear-gradient-3" x1="63.22" y1="29.39" x2="65.22" y2="29.39" xlink:href="#linear-gradient"/><linearGradient id="linear-gradient-4" x1="49.77" y1="56.41" x2="64.93" y2="56.41" xlink:href="#linear-gradient"/><linearGradient id="linear-gradient-5" x1="42.61" y1="56.06" x2="72.09" y2="56.06" xlink:href="#linear-gradient"/><linearGradient id="linear-gradient-6" x1="0" y1="14.84" x2="66.76" y2="14.84" xlink:href="#linear-gradient"/><linearGradient id="linear-gradient-7" x1="31.16" y1="46.43" x2="33.16" y2="46.43" xlink:href="#linear-gradient"/></defs><polyline class="cls-1" points="2.39 14.16 2.39 49.19 32.16 65.22 43.61 58.89"/><polyline class="cls-2" points="43.61 5.67 13.84 19.42 13.84 35.45 20.71 39.22 20.71 24 52.77 9.03"/><line class="cls-3" x1="64.22" y1="44.61" x2="64.22" y2="14.16"/><polyline class="cls-4" points="50.48 56.06 55.06 60.64 64.22 51.48"/><circle class="cls-5" cx="57.35" cy="56.06" r="13.74"/><polygon class="cls-6" points="2.39 14.84 32.16 1.09 64.22 14.84 32.16 28.58 2.39 14.84"/><line class="cls-7" x1="32.16" y1="28.58" x2="32.16" y2="64.28"/></svg>