<svg id="Camada_1" data-name="Camada 1" xmlns="http://www.w3.org/2000/svg" xmlns:xlink="http://www.w3.org/1999/xlink" viewBox="0 0 80.71 80.71"><defs><style>.cls-1,.cls-2,.cls-3,.cls-4,.cls-5,.cls-6,.cls-7{fill:none;stroke-miterlimit:10;stroke-width:2px;}.cls-1{stroke:url(#linear-gradient);}.cls-2{stroke:url(#linear-gradient-2);}.cls-3{stroke:url(#linear-gradient-3);}.cls-4{stroke:url(#linear-gradient-4);}.cls-5{stroke:url(#linear-gradient-5);}.cls-6{stroke:url(#linear-gradient-6);}.cls-7{stroke:url(#linear-gradient-7);}</style><linearGradient id="linear-gradient" x1="12.38" y1="39.08" x2="71.32" y2="39.08" gradientTransform="translate(71.23 -10.07) rotate(77.83)" gradientUnits="userSpaceOnUse"><stop offset="0" stop-color="#2c6bb2"/><stop offset="0.23" stop-color="#2b64a9"/><stop offset="0.6" stop-color="#285291"/><stop offset="1" stop-color="#24386f"/></linearGradient><linearGradient id="linear-gradient-2" x1="50.12" y1="56.16" x2="62.21" y2="56.16" gradientTransform="matrix(1, 0, 0, 1, 0, 0)" xlink:href="#linear-gradient"/><linearGradient id="linear-gradient-3" x1="68.91" y1="78.22" x2="93.09" y2="78.22" gradientTransform="translate(79.04 -34.36) rotate(45)" xlink:href="#linear-gradient"/><linearGradient id="linear-gradient-4" x1="9.72" y1="21.88" x2="49.7" y2="21.88" gradientTransform="matrix(1, 0, 0, 1, 0, 0)" xlink:href="#linear-gradient"/><linearGradient id="linear-gradient-5" x1="10.44" y1="36.85" x2="48.98" y2="36.85" gradientTransform="matrix(1, 0, 0, 1, 0, 0)" xlink:href="#linear-gradient"/><linearGradient id="linear-gradient-6" x1="18.69" y1="22.03" x2="38.11" y2="22.03" gradientTransform="matrix(1, 0, 0, 1, 0, 0)" xlink:href="#linear-gradient"/><linearGradient id="linear-gradient-7" x1="28.71" y1="41.45" x2="30.71" y2="41.45" gradientTransform="matrix(1, 0, 0, 1, 0, 0)" xlink:href="#linear-gradient"/></defs><circle class="cls-1" cx="41.85" cy="39.08" r="28.47" transform="translate(-17.55 62.14) rotate(-77.83)"/><line class="cls-2" x1="61.5" y1="61.5" x2="50.82" y2="50.82"/><rect class="cls-3" x="75.97" y="68.16" width="10.07" height="20.13" transform="translate(-43.97 70.58) rotate(-45)"/><polygon class="cls-4" points="11.44 21.88 29.71 8.83 47.98 21.88 29.71 34.93 11.44 21.88"/><polyline class="cls-5" points="11.44 21.88 11.44 37.54 29.71 50.59 47.98 37.54 47.98 21.88"/><line class="cls-6" x1="19.27" y1="28.48" x2="37.54" y2="15.58"/><line class="cls-7" x1="29.71" y1="34.93" x2="29.71" y2="47.98"/></svg>