<svg id="Camada_1" data-name="Camada 1" xmlns="http://www.w3.org/2000/svg" xmlns:xlink="http://www.w3.org/1999/xlink" viewBox="0 0 64.11 74.86"><defs><style>.cls-1,.cls-2,.cls-3,.cls-4,.cls-5,.cls-6,.cls-7{fill:none;}.cls-1,.cls-2,.cls-3,.cls-4,.cls-5,.cls-6,.cls-7,.cls-8{stroke-miterlimit:10;stroke-width:2px;}.cls-1{stroke:url(#linear-gradient);}.cls-2{stroke:url(#linear-gradient-2);}.cls-3{stroke:url(#linear-gradient-3);}.cls-4{stroke:url(#linear-gradient-4);}.cls-5{stroke:url(#linear-gradient-5);}.cls-6{stroke:url(#linear-gradient-6);}.cls-7{stroke:url(#linear-gradient-7);}.cls-8{fill:#fff;stroke:url(#linear-gradient-8);}.cls-9{fill:url(#linear-gradient-9);}</style><linearGradient id="linear-gradient" y1="30.6" x2="48.59" y2="30.6" gradientUnits="userSpaceOnUse"><stop offset="0" stop-color="#2c6bb2"/><stop offset="0.23" stop-color="#2b64a9"/><stop offset="0.6" stop-color="#285291"/><stop offset="1" stop-color="#24386f"/></linearGradient><linearGradient id="linear-gradient-2" x1="7.7" y1="9.76" x2="18.58" y2="9.76" xlink:href="#linear-gradient"/><linearGradient id="linear-gradient-3" x1="7.7" y1="17.78" x2="39.65" y2="17.78" xlink:href="#linear-gradient"/><linearGradient id="linear-gradient-4" x1="7.7" y1="25.94" x2="39.65" y2="25.94" xlink:href="#linear-gradient"/><linearGradient id="linear-gradient-5" x1="7.7" y1="34.09" x2="39.65" y2="34.09" xlink:href="#linear-gradient"/><linearGradient id="linear-gradient-6" x1="7.7" y1="42.24" x2="39.65" y2="42.24" xlink:href="#linear-gradient"/><linearGradient id="linear-gradient-7" x1="7.7" y1="50.4" x2="32.9" y2="50.4" xlink:href="#linear-gradient"/><linearGradient id="linear-gradient-8" x1="34.03" y1="59.82" x2="64.11" y2="59.82" xlink:href="#linear-gradient"/><linearGradient id="linear-gradient-9" x1="68.16" y1="73.41" x2="75.54" y2="73.41" xlink:href="#linear-gradient"/></defs><polygon class="cls-1" points="47.59 60.2 1 60.2 1 1 32.67 1 47.59 1 47.59 15.69 47.59 60.2"/><line class="cls-2" x1="7.7" y1="9.76" x2="18.58" y2="9.76"/><line class="cls-3" x1="7.7" y1="17.78" x2="39.65" y2="17.78"/><line class="cls-4" x1="7.7" y1="25.94" x2="39.65" y2="25.94"/><line class="cls-5" x1="7.7" y1="34.09" x2="39.65" y2="34.09"/><line class="cls-6" x1="7.7" y1="42.24" x2="39.65" y2="42.24"/><line class="cls-7" x1="7.7" y1="50.4" x2="32.9" y2="50.4"/><circle class="cls-8" cx="49.07" cy="59.82" r="14.04"/><path class="cls-9" d="M73.84,72.73a18.45,18.45,0,0,0-1.74-.8,4.39,4.39,0,0,1-.95-.52A.82.82,0,0,1,71.34,70a2.4,2.4,0,0,1,.57-.15,4.36,4.36,0,0,1,2.17.43c.33.19.47.09.56-.24A9.1,9.1,0,0,0,75,68.86c.1-.23,0-.42-.28-.52a6.23,6.23,0,0,0-1.37-.42c-.61-.1-.61-.1-.61-.71,0-.9,0-.9-.9-.9h-.37c-.43,0-.47.1-.52.52v.57c0,.57,0,.57-.52.75a3,3,0,0,0-2.17,2.74,2.81,2.81,0,0,0,1.6,2.69,16,16,0,0,0,2,.89,1.81,1.81,0,0,1,.71.43,1,1,0,0,1-.23,1.74,2.39,2.39,0,0,1-1.28.19,6.59,6.59,0,0,1-1.93-.57c-.38-.18-.47-.14-.57.24s-.19.66-.28,1-.09.56.38.75a5.64,5.64,0,0,0,1.74.52c.47.09.47.09.47.57V80c0,.28.15.42.43.47h1a.37.37,0,0,0,.42-.43v-.89a.53.53,0,0,1,.43-.57,3.56,3.56,0,0,0,1.74-1.08,3.19,3.19,0,0,0-1-4.81" transform="translate(-22.77 -13.59)"/></svg>