<svg id="Camada_1" data-name="Camada 1" xmlns="http://www.w3.org/2000/svg" xmlns:xlink="http://www.w3.org/1999/xlink" viewBox="0 0 75.81 83.19"><defs><style>.cls-1,.cls-10,.cls-11,.cls-12,.cls-13,.cls-14,.cls-2,.cls-3,.cls-4,.cls-5,.cls-6,.cls-7,.cls-8,.cls-9{fill:none;stroke-miterlimit:10;stroke-width:2px;}.cls-1{stroke:url(#linear-gradient);}.cls-2{stroke:url(#linear-gradient-2);}.cls-3{stroke:url(#linear-gradient-3);}.cls-4{stroke:url(#linear-gradient-4);}.cls-5{stroke:url(#linear-gradient-5);}.cls-6{stroke:url(#linear-gradient-6);}.cls-7{stroke:url(#linear-gradient-7);}.cls-8{stroke:url(#linear-gradient-8);}.cls-9{stroke:url(#linear-gradient-9);}.cls-10{stroke:url(#linear-gradient-10);}.cls-11{stroke:url(#linear-gradient-11);}.cls-12{stroke:url(#linear-gradient-12);}.cls-13{stroke:url(#linear-gradient-13);}.cls-14{stroke:url(#linear-gradient-14);}</style><linearGradient id="linear-gradient" x1="20.46" y1="51.64" x2="88.78" y2="51.64" gradientUnits="userSpaceOnUse"><stop offset="0" stop-color="#2c6bb2"/><stop offset="0.23" stop-color="#2b64a9"/><stop offset="0.6" stop-color="#285291"/><stop offset="1" stop-color="#24386f"/></linearGradient><linearGradient id="linear-gradient-2" x1="0" y1="75.4" x2="19.49" y2="75.4" xlink:href="#linear-gradient"/><linearGradient id="linear-gradient-3" x1="66.61" y1="75.4" x2="75.81" y2="75.4" xlink:href="#linear-gradient"/><linearGradient id="linear-gradient-4" x1="39.74" y1="11.63" x2="41.74" y2="11.63" xlink:href="#linear-gradient"/><linearGradient id="linear-gradient-5" x1="32.66" y1="11.63" x2="34.66" y2="11.63" xlink:href="#linear-gradient"/><linearGradient id="linear-gradient-6" x1="27.34" y1="4.54" x2="47.06" y2="4.54" xlink:href="#linear-gradient"/><linearGradient id="linear-gradient-7" x1="11.69" y1="19.6" x2="18.42" y2="19.6" xlink:href="#linear-gradient"/><linearGradient id="linear-gradient-8" x1="8.15" y1="16.94" x2="16.65" y2="16.94" xlink:href="#linear-gradient"/><linearGradient id="linear-gradient-9" x1="55.98" y1="19.6" x2="62.71" y2="19.6" xlink:href="#linear-gradient"/><linearGradient id="linear-gradient-10" x1="57.75" y1="16.94" x2="66.25" y2="16.94" xlink:href="#linear-gradient"/><linearGradient id="linear-gradient-11" x1="29.4" y1="35.38" x2="64.52" y2="35.38" xlink:href="#linear-gradient"/><linearGradient id="linear-gradient-12" x1="30.89" y1="45.29" x2="43.51" y2="45.29" xlink:href="#linear-gradient"/><linearGradient id="linear-gradient-13" x1="40.16" y1="35.06" x2="54.75" y2="35.06" xlink:href="#linear-gradient"/><linearGradient id="linear-gradient-14" x1="27.63" y1="51.5" x2="34.37" y2="51.5" xlink:href="#linear-gradient"/></defs><path class="cls-1" d="M67.52,77.19a30.11,30.11,0,1,0-15.94,4.57h37.2" transform="translate(-14.38 -6.36)"/><line class="cls-2" y1="75.4" x2="19.49" y2="75.4"/><polyline class="cls-3" points="67.31 68.31 74.4 75.4 67.31 82.48"/><line class="cls-4" x1="40.74" y1="8.09" x2="40.74" y2="15.17"/><line class="cls-5" x1="33.66" y1="15.17" x2="33.66" y2="8.09"/><rect class="cls-6" x="28.34" y="1" width="17.71" height="7.09"/><line class="cls-7" x1="17.71" y1="22.26" x2="12.4" y2="16.94"/><line class="cls-8" x1="8.86" y1="20.49" x2="15.94" y2="13.4"/><line class="cls-9" x1="56.69" y1="22.26" x2="62" y2="16.94"/><line class="cls-10" x1="65.54" y1="20.49" x2="58.46" y2="13.4"/><path class="cls-11" d="M30.32,42.77A23,23,0,0,1,64,32.23" transform="translate(-14.38 -6.36)"/><circle class="cls-12" cx="37.2" cy="45.29" r="5.31"/><line class="cls-13" x1="54.05" y1="28.48" x2="40.87" y2="41.65"/><line class="cls-14" x1="28.34" y1="54.18" x2="33.66" y2="48.83"/></svg>