<svg id="Camada_1" data-name="Camada 1" xmlns="http://www.w3.org/2000/svg" xmlns:xlink="http://www.w3.org/1999/xlink" viewBox="0 0 84.61 72.71"><defs><style>.cls-1,.cls-10,.cls-11,.cls-12,.cls-14,.cls-2,.cls-3,.cls-4,.cls-5,.cls-6,.cls-7,.cls-8,.cls-9{fill:none;}.cls-1,.cls-10,.cls-11,.cls-12,.cls-13,.cls-14,.cls-2,.cls-3,.cls-4,.cls-5,.cls-6,.cls-7,.cls-8,.cls-9{stroke-linecap:round;stroke-linejoin:round;stroke-width:2px;}.cls-1{stroke:url(#linear-gradient);}.cls-2{stroke:url(#linear-gradient-2);}.cls-3{stroke:url(#linear-gradient-3);}.cls-4{stroke:url(#linear-gradient-4);}.cls-5{stroke:url(#linear-gradient-5);}.cls-6{stroke:url(#linear-gradient-6);}.cls-7{stroke:url(#linear-gradient-7);}.cls-8{stroke:url(#linear-gradient-8);}.cls-9{stroke:url(#linear-gradient-9);}.cls-10{stroke:url(#linear-gradient-10);}.cls-11{stroke:url(#linear-gradient-11);}.cls-12{stroke:url(#linear-gradient-12);}.cls-13{fill:#f6f6f6;stroke:url(#linear-gradient-13);}.cls-14{stroke:url(#linear-gradient-14);}</style><linearGradient id="linear-gradient" x1="34.08" y1="38.39" x2="47.43" y2="38.39" gradientUnits="userSpaceOnUse"><stop offset="0" stop-color="#2f6cb3"/><stop offset="0.2" stop-color="#2b65a9"/><stop offset="0.54" stop-color="#2a5392"/><stop offset="0.95" stop-color="#253b73"/><stop offset="1" stop-color="#253970"/></linearGradient><linearGradient id="linear-gradient-2" x1="52.74" y1="38.39" x2="66.09" y2="38.39" xlink:href="#linear-gradient"/><linearGradient id="linear-gradient-3" x1="15.97" y1="54.96" x2="29.31" y2="54.96" xlink:href="#linear-gradient"/><linearGradient id="linear-gradient-4" x1="34.08" y1="54.96" x2="47.43" y2="54.96" xlink:href="#linear-gradient"/><linearGradient id="linear-gradient-5" x1="52.74" y1="54.96" x2="66.09" y2="54.96" xlink:href="#linear-gradient"/><linearGradient id="linear-gradient-6" x1="69.95" y1="38.39" x2="83.29" y2="38.39" xlink:href="#linear-gradient"/><linearGradient id="linear-gradient-7" x1="69.95" y1="54.96" x2="83.29" y2="54.96" xlink:href="#linear-gradient"/><linearGradient id="linear-gradient-8" x1="15.97" y1="71.53" x2="29.31" y2="71.53" xlink:href="#linear-gradient"/><linearGradient id="linear-gradient-9" x1="34.08" y1="71.53" x2="47.43" y2="71.53" xlink:href="#linear-gradient"/><linearGradient id="linear-gradient-10" x1="52.74" y1="71.53" x2="66.09" y2="71.53" xlink:href="#linear-gradient"/><linearGradient id="linear-gradient-11" x1="0" y1="32.88" x2="80.45" y2="32.88" xlink:href="#linear-gradient"/><linearGradient id="linear-gradient-12" x1="0" y1="11.24" x2="79.18" y2="11.24" xlink:href="#linear-gradient"/><linearGradient id="linear-gradient-13" x1="73.05" y1="21.31" x2="94.65" y2="21.31" gradientTransform="matrix(1, 0, 0, -1, -10.04, 83.23)" xlink:href="#linear-gradient"/><linearGradient id="linear-gradient-14" x1="78.1" y1="21.31" x2="89.6" y2="21.31" gradientTransform="matrix(1, 0, 0, -1, -10.04, 83.23)" xlink:href="#linear-gradient"/></defs><path class="cls-1" d="M35.08,43v-9.3a1,1,0,0,1,1-1h9.3a1,1,0,0,1,1,1V43a1,1,0,0,1-1,1H36.1a1,1,0,0,1-1-1Z" transform="translate(-10.04 -17.07)"/><path class="cls-2" d="M53.74,43v-9.3a1,1,0,0,1,1-1h9.31a1,1,0,0,1,1,1V43a1,1,0,0,1-1,1H54.76a1,1,0,0,1-1-1Z" transform="translate(-10.04 -17.07)"/><path class="cls-3" d="M17,59.61v-9.3a1,1,0,0,1,1-1h9.3a1,1,0,0,1,1,1v9.3a1,1,0,0,1-1,1H18a1,1,0,0,1-1-1Z" transform="translate(-10.04 -17.07)"/><path class="cls-4" d="M35.08,59.61v-9.3a1,1,0,0,1,1-1h9.3a1,1,0,0,1,1,1v9.3a1,1,0,0,1-1,1H36.1a1,1,0,0,1-1-1Z" transform="translate(-10.04 -17.07)"/><path class="cls-5" d="M53.74,59.61v-9.3a1,1,0,0,1,1-1h9.31a1,1,0,0,1,1,1v9.3a1,1,0,0,1-1,1H54.76a1,1,0,0,1-1-1Z" transform="translate(-10.04 -17.07)"/><path class="cls-6" d="M71,43v-9.3a1,1,0,0,1,1-1h9.3a1,1,0,0,1,1,1V43a1,1,0,0,1-1,1H72a1,1,0,0,1-1-1Z" transform="translate(-10.04 -17.07)"/><path class="cls-7" d="M71,59.61v-9.3a1,1,0,0,1,1-1h9.3a1,1,0,0,1,1,1v9.3a1,1,0,0,1-1,1H72a1,1,0,0,1-1-1Z" transform="translate(-10.04 -17.07)"/><path class="cls-8" d="M17,76.18v-9.3a1,1,0,0,1,1-1h9.3a1,1,0,0,1,1,1v9.3a1,1,0,0,1-1,1H18a1,1,0,0,1-1-1Z" transform="translate(-10.04 -17.07)"/><path class="cls-9" d="M35.08,76.18v-9.3a1,1,0,0,1,1-1h9.3a1,1,0,0,1,1,1v9.3a1,1,0,0,1-1,1H36.1a1,1,0,0,1-1-1Z" transform="translate(-10.04 -17.07)"/><path class="cls-10" d="M53.74,76.18v-9.3a1,1,0,0,1,1-1h9.31a1,1,0,0,1,1,1v9.3a1,1,0,0,1-1,1H54.76a1,1,0,0,1-1-1Z" transform="translate(-10.04 -17.07)"/><rect class="cls-11" x="1" y="1" width="78.45" height="63.75"/><line class="cls-12" x1="1" y1="11.24" x2="78.18" y2="11.24"/><circle class="cls-13" cx="73.81" cy="61.91" r="9.8"/><polyline class="cls-14" points="69.06 62.86 72.25 65.84 78.56 57.99"/></svg>