<svg id="Camada_1" data-name="Camada 1" xmlns="http://www.w3.org/2000/svg" xmlns:xlink="http://www.w3.org/1999/xlink" viewBox="0 0 100 100"><defs><style>.cls-1,.cls-2,.cls-4,.cls-5,.cls-6,.cls-7,.cls-8{fill:none;stroke-miterlimit:10;stroke-width:2px;}.cls-1{stroke:url(#linear-gradient);}.cls-2{stroke:url(#linear-gradient-2);}.cls-3{fill:url(#linear-gradient-3);}.cls-4{stroke:url(#linear-gradient-4);}.cls-5{stroke:url(#linear-gradient-5);}.cls-6{stroke:url(#linear-gradient-6);}.cls-7{stroke:url(#linear-gradient-7);}.cls-8{stroke:url(#linear-gradient-8);}</style><linearGradient id="linear-gradient" x1="39.38" y1="46.84" x2="71.88" y2="46.84" gradientUnits="userSpaceOnUse"><stop offset="0" stop-color="#2c6bb2"/><stop offset="0.23" stop-color="#2b64a9"/><stop offset="0.6" stop-color="#285291"/><stop offset="1" stop-color="#24386f"/></linearGradient><linearGradient id="linear-gradient-2" x1="15.61" y1="52.63" x2="83.23" y2="52.63" xlink:href="#linear-gradient"/><linearGradient id="linear-gradient-3" x1="60.46" y1="20.88" x2="83.39" y2="20.88" xlink:href="#linear-gradient"/><linearGradient id="linear-gradient-4" x1="24.54" y1="45.05" x2="35.63" y2="45.05" xlink:href="#linear-gradient"/><linearGradient id="linear-gradient-5" x1="39.38" y1="62.83" x2="71.88" y2="62.83" xlink:href="#linear-gradient"/><linearGradient id="linear-gradient-6" x1="24.54" y1="61.04" x2="35.63" y2="61.04" xlink:href="#linear-gradient"/><linearGradient id="linear-gradient-7" x1="39.38" y1="78.82" x2="71.88" y2="78.82" xlink:href="#linear-gradient"/><linearGradient id="linear-gradient-8" x1="24.54" y1="77.03" x2="35.63" y2="77.03" xlink:href="#linear-gradient"/></defs><line class="cls-1" x1="39.38" y1="46.84" x2="71.88" y2="46.84"/><polygon class="cls-2" points="82.23 94.31 16.61 94.31 16.61 10.94 61.22 10.94 71.89 21.48 82.23 31.63 82.23 94.31"/><polygon class="cls-3" points="61.2 9.56 60.46 9.56 61.57 32.2 83.39 32.2 83.39 32.11 61.2 9.56"/><polyline class="cls-4" points="25.22 45.58 28.45 48.6 34.85 40.65"/><line class="cls-5" x1="39.38" y1="62.83" x2="71.88" y2="62.83"/><polyline class="cls-6" points="25.22 61.58 28.45 64.6 34.85 56.64"/><line class="cls-7" x1="39.38" y1="78.82" x2="71.88" y2="78.82"/><polyline class="cls-8" points="25.22 77.57 28.45 80.59 34.85 72.63"/></svg>