<svg id="Camada_1" data-name="Camada 1" xmlns="http://www.w3.org/2000/svg" xmlns:xlink="http://www.w3.org/1999/xlink" viewBox="0 0 89.52 78.99"><defs><style>.cls-1,.cls-2,.cls-3,.cls-4,.cls-5,.cls-6,.cls-7,.cls-8{fill:none;stroke-miterlimit:10;stroke-width:2px;}.cls-1{stroke:url(#linear-gradient);}.cls-2{stroke:url(#linear-gradient-2);}.cls-3{stroke:url(#linear-gradient-3);}.cls-4{stroke:url(#linear-gradient-4);}.cls-5{stroke:url(#linear-gradient-5);}.cls-6{stroke:url(#linear-gradient-6);}.cls-7{stroke:url(#linear-gradient-7);}.cls-8{stroke:url(#linear-gradient-8);}</style><linearGradient id="linear-gradient" x1="57.24" y1="26.83" x2="89.33" y2="26.83" gradientUnits="userSpaceOnUse"><stop offset="0" stop-color="#2c6bb2"/><stop offset="0.23" stop-color="#2b64a9"/><stop offset="0.6" stop-color="#285291"/><stop offset="1" stop-color="#24386f"/></linearGradient><linearGradient id="linear-gradient-2" x1="11.38" y1="71.55" x2="41.73" y2="71.55" xlink:href="#linear-gradient"/><linearGradient id="linear-gradient-3" x1="50.42" y1="69.26" x2="89.91" y2="69.26" xlink:href="#linear-gradient"/><linearGradient id="linear-gradient-4" x1="77" y1="41.92" x2="89.52" y2="41.92" xlink:href="#linear-gradient"/><linearGradient id="linear-gradient-5" x1="10.91" y1="29.76" x2="50.4" y2="29.76" xlink:href="#linear-gradient"/><linearGradient id="linear-gradient-6" x1="0" y1="37.06" x2="12.52" y2="37.06" xlink:href="#linear-gradient"/><linearGradient id="linear-gradient-7" x1="38.83" y1="39.49" x2="52.17" y2="39.49" xlink:href="#linear-gradient"/><linearGradient id="linear-gradient-8" x1="31.64" y1="49.51" x2="70.66" y2="49.51" xlink:href="#linear-gradient"/></defs><path class="cls-1" d="M57.41,11.66c17.07,3,29.82,16,30.92,31.26" transform="translate(-5.65 -10.02)"/><path class="cls-2" d="M41.56,86.75C25.45,84,13.41,69.9,12.37,55.44" transform="translate(-5.65 -10.02)"/><path class="cls-3" d="M88.91,49.51A38.49,38.49,0,0,1,50.42,88" transform="translate(-5.65 -10.02)"/><polyline class="cls-4" points="77.71 45.06 83.26 39.49 88.81 45.06"/><path class="cls-5" d="M11.91,49.51A38.49,38.49,0,0,1,50.4,11" transform="translate(-5.65 -10.02)"/><polyline class="cls-6" points="11.81 33.92 6.26 39.49 0.71 33.92"/><circle class="cls-7" cx="45.5" cy="39.49" r="5.67"/><path class="cls-8" d="M63.13,44.73a3.36,3.36,0,0,0,2.13,1.38l3.4.54a1.15,1.15,0,0,1,1,1.15v3.42a1.15,1.15,0,0,1-1,1.15l-3.4.54a3.36,3.36,0,0,0-2.13,1.38l-.13.32a3.32,3.32,0,0,0,.53,2.47l2,2.79a1.15,1.15,0,0,1-.1,1.52L64.24,62.6,63,63.81a1.15,1.15,0,0,1-1.52.1l-2.79-2a3.34,3.34,0,0,0-2.48-.53l-.31.13a3.36,3.36,0,0,0-1.38,2.13L54,67a1.15,1.15,0,0,1-1.15,1H49.44a1.15,1.15,0,0,1-1.15-1l-.54-3.4a3.36,3.36,0,0,0-1.38-2.13l-.31-.13a3.34,3.34,0,0,0-2.48.53l-2.79,2a1.15,1.15,0,0,1-1.52-.1L38.06,62.6l-1.21-1.21a1.15,1.15,0,0,1-.1-1.52l2-2.79a3.32,3.32,0,0,0,.53-2.47l-.13-.32A3.36,3.36,0,0,0,37,52.91l-3.4-.54a1.15,1.15,0,0,1-1-1.15V47.8a1.15,1.15,0,0,1,1-1.15l3.4-.54a3.36,3.36,0,0,0,2.13-1.38l.13-.31a3.34,3.34,0,0,0-.53-2.48l-2-2.79a1.15,1.15,0,0,1,.1-1.52l1.21-1.21,1.21-1.21a1.15,1.15,0,0,1,1.52-.1l2.79,2a3.34,3.34,0,0,0,2.48.53l.31-.13a3.33,3.33,0,0,0,1.38-2.13l.54-3.4a1.15,1.15,0,0,1,1.15-1h3.42A1.15,1.15,0,0,1,54,32l.54,3.4a3.33,3.33,0,0,0,1.38,2.13l.31.13a3.34,3.34,0,0,0,2.48-.53l2.79-2a1.15,1.15,0,0,1,1.52.1l1.21,1.21,1.21,1.21a1.15,1.15,0,0,1,.1,1.52l-2,2.79A3.34,3.34,0,0,0,63,44.42Z" transform="translate(-5.65 -10.02)"/></svg>