<svg id="Camada_1" data-name="Camada 1" xmlns="http://www.w3.org/2000/svg" xmlns:xlink="http://www.w3.org/1999/xlink" viewBox="0 0 96.71 93.44"><defs><style>.cls-1{fill:url(#linear-gradient);}.cls-2{fill:url(#linear-gradient-2);}.cls-3{fill:url(#linear-gradient-3);}.cls-4{fill:url(#linear-gradient-4);}.cls-5{fill:url(#linear-gradient-5);}.cls-6{fill:url(#linear-gradient-6);}.cls-7{fill:url(#linear-gradient-7);}.cls-8{fill:url(#linear-gradient-8);}.cls-9{fill:url(#linear-gradient-9);}.cls-10{fill:url(#linear-gradient-10);}.cls-11{fill:url(#linear-gradient-11);}</style><linearGradient id="linear-gradient" x1="7.63" y1="27.04" x2="98.16" y2="27.04" gradientUnits="userSpaceOnUse"><stop offset="0" stop-color="#2c6bb2"/><stop offset="0.23" stop-color="#2b64a9"/><stop offset="0.6" stop-color="#285291"/><stop offset="1" stop-color="#24386f"/></linearGradient><linearGradient id="linear-gradient-2" x1="1.45" y1="42.71" x2="42.94" y2="42.71" xlink:href="#linear-gradient"/><linearGradient id="linear-gradient-3" x1="65.01" y1="74.94" x2="95.09" y2="74.94" xlink:href="#linear-gradient"/><linearGradient id="linear-gradient-4" x1="42.97" y1="72.34" x2="65.02" y2="72.34" xlink:href="#linear-gradient"/><linearGradient id="linear-gradient-5" x1="10.47" y1="41.16" x2="52.98" y2="41.16" xlink:href="#linear-gradient"/><linearGradient id="linear-gradient-6" x1="19.67" y1="29.1" x2="36.89" y2="29.1" xlink:href="#linear-gradient"/><linearGradient id="linear-gradient-7" x1="52.67" y1="56.03" x2="86.93" y2="56.03" xlink:href="#linear-gradient"/><linearGradient id="linear-gradient-8" x1="47.69" y1="35.57" x2="73.06" y2="35.57" xlink:href="#linear-gradient"/><linearGradient id="linear-gradient-9" x1="27.51" y1="19.61" x2="62" y2="19.61" xlink:href="#linear-gradient"/><linearGradient id="linear-gradient-10" x1="41.78" y1="18.46" x2="88.04" y2="18.46" xlink:href="#linear-gradient"/><linearGradient id="linear-gradient-11" x1="58.92" y1="41.63" x2="92.2" y2="41.63" xlink:href="#linear-gradient"/></defs><path class="cls-1" d="M97.74,25.35,76.23,3.91a1.42,1.42,0,0,0-1-.42H27.05a1.42,1.42,0,0,0-1,.42L13.76,16.16a4.26,4.26,0,1,0,2,2L27.64,6.33h47L95.31,26.94V40.16L93,42.47a4.26,4.26,0,1,0,2,2l2.74-2.73a1.47,1.47,0,0,0,.42-1V26.35A1.42,1.42,0,0,0,97.74,25.35Z" transform="translate(-1.45 -3.49)"/><path class="cls-2" d="M38.66,51.81a4.27,4.27,0,0,0-4,2.84H18.14l-11-11V33.38a4.28,4.28,0,1,0-2.84,0v10.9a1.41,1.41,0,0,0,.41,1L16.55,57.07a1.42,1.42,0,0,0,1,.42H34.62a4.28,4.28,0,1,0,4-5.68Z" transform="translate(-1.45 -3.49)"/><path class="cls-3" d="M90.81,53a4.26,4.26,0,0,0-1.42,8.29V62l-6,6H75.5a1.42,1.42,0,0,0-1,.42l-6.21,6.19a1.41,1.41,0,0,0-.41,1V88.65a4.28,4.28,0,1,0,2.84,0V76.1l5.38-5.36H84a1.4,1.4,0,0,0,1-.42l6.81-6.78a1.42,1.42,0,0,0,.42-1V61.24A4.27,4.27,0,0,0,90.81,53Z" transform="translate(-1.45 -3.49)"/><path class="cls-4" d="M62.17,80.34V73.76a1.38,1.38,0,0,0-.42-1L51.11,62.15a4.29,4.29,0,1,0-2,2L59.32,74.35v6a4.28,4.28,0,1,0,2.85,0Z" transform="translate(-1.45 -3.49)"/><path class="cls-5" d="M17.77,34.82a4.27,4.27,0,1,0-1.18,6.86l6.68,6.66a1.46,1.46,0,0,0,1,.41H39.42a1.46,1.46,0,0,0,1-.41l6.42-6.41a4.26,4.26,0,1,0-2-2l-6,6h-14l-6.26-6.24A4.26,4.26,0,0,0,17.77,34.82Z" transform="translate(-1.45 -3.49)"/><path class="cls-6" d="M20.92,17.09A4.27,4.27,0,0,0,25.79,24l5.4,5.38v4.75a4.28,4.28,0,1,0,2.84,0V28.74a1.45,1.45,0,0,0-.41-1L27.8,22a4.27,4.27,0,0,0-6.88-4.86Z" transform="translate(-1.45 -3.49)"/><path class="cls-7" d="M57,64.07a4.26,4.26,0,0,0,4-2.85h5.41a1.46,1.46,0,0,0,1-.41l7.16-7.14h4a4.27,4.27,0,1,0,0-2.83H74a1.46,1.46,0,0,0-1,.41L65.8,58.38H61a4.28,4.28,0,1,0-4,5.69Z" transform="translate(-1.45 -3.49)"/><path class="cls-8" d="M53.82,46a4.3,4.3,0,0,0-4.88.83A4.27,4.27,0,1,0,55.83,48l14-13.91a1.42,1.42,0,0,0,.42-1V25.32a4.28,4.28,0,1,0-2.85,0V32.5Z" transform="translate(-1.45 -3.49)"/><path class="cls-9" d="M34.82,10a4.27,4.27,0,1,0-1.18,6.86L44,27.21a1.4,1.4,0,0,0,1,.42h8.65a4.26,4.26,0,1,0,0-2.84H45.63l-10-9.95A4.24,4.24,0,0,0,34.82,10Z" transform="translate(-1.45 -3.49)"/><path class="cls-10" d="M81.91,20.5l-9-8.92a1.42,1.42,0,0,0-1-.42H50.09a4.27,4.27,0,1,0,0,2.84H71.36l8.54,8.51a4.27,4.27,0,1,0,6.88-1.18A4.29,4.29,0,0,0,81.91,20.5Z" transform="translate(-1.45 -3.49)"/><path class="cls-11" d="M92.2,34.44A4.28,4.28,0,0,0,83.89,33H77.63a1.46,1.46,0,0,0-1,.41L65.05,45a4.3,4.3,0,0,0-4.87.83A4.27,4.27,0,1,0,67.06,47L78.22,35.86h5.67a4.28,4.28,0,0,0,8.31-1.42Z" transform="translate(-1.45 -3.49)"/></svg>