<svg id="Camada_1" data-name="Camada 1" xmlns="http://www.w3.org/2000/svg" xmlns:xlink="http://www.w3.org/1999/xlink" viewBox="0 0 83.44 84.15"><defs><style>.cls-1,.cls-2,.cls-3,.cls-4,.cls-5,.cls-6{fill:none;stroke-miterlimit:10;stroke-width:2px;}.cls-1{stroke:url(#linear-gradient);}.cls-2{stroke:url(#linear-gradient-2);}.cls-3{stroke:url(#linear-gradient-3);}.cls-4{stroke:url(#linear-gradient-4);}.cls-5{stroke:url(#linear-gradient-5);}.cls-6{stroke:url(#linear-gradient-6);}</style><linearGradient id="linear-gradient" x1="15.14" y1="34.35" x2="44.08" y2="34.35" gradientUnits="userSpaceOnUse"><stop offset="0" stop-color="#2f6cb3"/><stop offset="0.2" stop-color="#2b65a9"/><stop offset="0.54" stop-color="#2a5392"/><stop offset="0.95" stop-color="#253b73"/><stop offset="1" stop-color="#253970"/></linearGradient><linearGradient id="linear-gradient-2" x1="72.05" y1="42.93" x2="90.3" y2="42.93" xlink:href="#linear-gradient"/><linearGradient id="linear-gradient-3" x1="25.45" y1="84.86" x2="69.15" y2="84.86" xlink:href="#linear-gradient"/><linearGradient id="linear-gradient-4" x1="31.81" y1="9.91" x2="51.63" y2="9.91" xlink:href="#linear-gradient"/><linearGradient id="linear-gradient-5" x1="63.61" y1="64.47" x2="83.44" y2="64.47" xlink:href="#linear-gradient"/><linearGradient id="linear-gradient-6" x1="0" y1="64.47" x2="19.82" y2="64.47" xlink:href="#linear-gradient"/></defs><path class="cls-1" d="M43.84,18.22A36.62,36.62,0,0,0,16.14,51.4" transform="translate(-10.96 -7.23)"/><path class="cls-2" d="M88,63.41A36.63,36.63,0,0,0,72.59,23" transform="translate(-10.96 -7.23)"/><path class="cls-3" d="M26.17,79a36.65,36.65,0,0,0,42.54,7.65" transform="translate(-10.96 -7.23)"/><circle class="cls-4" cx="41.72" cy="9.91" r="8.91"/><circle class="cls-5" cx="73.52" cy="64.47" r="8.91"/><circle class="cls-6" cx="9.91" cy="64.47" r="8.91"/></svg>