<svg id="Camada_1" data-name="Camada 1" xmlns="http://www.w3.org/2000/svg" xmlns:xlink="http://www.w3.org/1999/xlink" viewBox="0 0 74.33 79.27"><defs><style>.cls-1,.cls-2,.cls-3,.cls-4,.cls-5,.cls-6{fill:none;stroke-miterlimit:10;stroke-width:2px;}.cls-1{stroke:url(#linear-gradient);}.cls-2{stroke:url(#linear-gradient-2);}.cls-3{stroke:url(#linear-gradient-3);}.cls-4{stroke:url(#linear-gradient-4);}.cls-5{stroke:url(#linear-gradient-5);}.cls-6{stroke:url(#linear-gradient-6);}</style><linearGradient id="linear-gradient" x1="15.21" y1="22.93" x2="30.64" y2="22.93" gradientUnits="userSpaceOnUse"><stop offset="0" stop-color="#2c6bb2"/><stop offset="0.23" stop-color="#2b64a9"/><stop offset="0.6" stop-color="#285291"/><stop offset="1" stop-color="#24386f"/></linearGradient><linearGradient id="linear-gradient-2" x1="10.82" y1="32.3" x2="56.67" y2="32.3" xlink:href="#linear-gradient"/><linearGradient id="linear-gradient-3" x1="50.68" y1="42.02" x2="62.83" y2="42.02" xlink:href="#linear-gradient"/><linearGradient id="linear-gradient-4" x1="50" y1="51.39" x2="85.15" y2="51.39" xlink:href="#linear-gradient"/><linearGradient id="linear-gradient-5" x1="39.7" y1="67.99" x2="48.02" y2="67.99" xlink:href="#linear-gradient"/><linearGradient id="linear-gradient-6" x1="43.4" y1="77.37" x2="65.95" y2="77.37" xlink:href="#linear-gradient"/></defs><circle class="cls-1" cx="22.93" cy="22.93" r="6.72"/><path class="cls-2" d="M47.94,26.64a3.92,3.92,0,0,0,2.52,1.63l4,.65a1.35,1.35,0,0,1,1.18,1.35v4.06a1.37,1.37,0,0,1-1.18,1.36l-4,.64A4,4,0,0,0,47.94,38l-.15.38a3.91,3.91,0,0,0,.62,2.93l2.4,3.31a1.37,1.37,0,0,1-.12,1.79l-1.44,1.44-1.43,1.43a1.37,1.37,0,0,1-1.8.12L42.71,47a3.94,3.94,0,0,0-2.93-.63l-.37.16A3.94,3.94,0,0,0,37.77,49l-.64,4a1.36,1.36,0,0,1-1.35,1.19H31.72A1.37,1.37,0,0,1,30.36,53l-.64-4a4,4,0,0,0-1.63-2.51l-.38-.16a3.94,3.94,0,0,0-2.93.63l-3.31,2.39a1.35,1.35,0,0,1-1.79-.12l-1.44-1.43-1.43-1.44a1.35,1.35,0,0,1-.12-1.79l2.39-3.31a3.94,3.94,0,0,0,.63-2.93L19.55,38A4,4,0,0,0,17,36.33l-4-.64a1.37,1.37,0,0,1-1.18-1.36V30.27A1.35,1.35,0,0,1,13,28.92l4-.65a3.91,3.91,0,0,0,2.51-1.63l.16-.37a4,4,0,0,0-.63-2.94L16.69,20a1.37,1.37,0,0,1,.12-1.8l1.43-1.43,1.44-1.44a1.35,1.35,0,0,1,1.79-.12l3.31,2.4a4,4,0,0,0,2.93.62l.38-.15a4,4,0,0,0,1.63-2.52l.64-4a1.37,1.37,0,0,1,1.36-1.18h4.06a1.36,1.36,0,0,1,1.35,1.18l.64,4a4,4,0,0,0,1.64,2.52l.37.15a4,4,0,0,0,2.93-.62L46,15.24a1.37,1.37,0,0,1,1.8.12l1.43,1.44,1.44,1.43a1.38,1.38,0,0,1,.12,1.8l-2.4,3.3a3.92,3.92,0,0,0-.62,2.94Z" transform="translate(-10.82 -9.38)"/><circle class="cls-3" cx="56.76" cy="42.02" r="5.08"/><path class="cls-4" d="M78.3,47.12a3,3,0,0,0,1.91,1.23l3,.49a1,1,0,0,1,.9,1v3.07a1,1,0,0,1-.9,1l-3,.49a3,3,0,0,0-1.91,1.23l-.11.28a3,3,0,0,0,.47,2.22l1.81,2.5A1,1,0,0,1,80.38,62l-1.09,1.08L78.21,64.2a1,1,0,0,1-1.36.09l-2.5-1.81A3,3,0,0,0,72.14,62l-.29.12A3,3,0,0,0,70.62,64l-.49,3a1,1,0,0,1-1,.9H66a1,1,0,0,1-1-.9l-.49-3a3,3,0,0,0-1.23-1.9L63,62a3,3,0,0,0-2.22.48l-2.5,1.81a1,1,0,0,1-1.36-.09l-1.08-1.09L54.77,62a1,1,0,0,1-.09-1.36l1.81-2.5A3,3,0,0,0,57,56l-.12-.28A3,3,0,0,0,55,54.44L51.9,54a1,1,0,0,1-.9-1V49.86a1,1,0,0,1,.9-1L55,48.35a3,3,0,0,0,1.9-1.23l.12-.29a3,3,0,0,0-.48-2.21l-1.81-2.5a1,1,0,0,1,.09-1.36l1.09-1.08,1.08-1.09a1,1,0,0,1,1.36-.09l2.5,1.81a3,3,0,0,0,2.22.47l.28-.11a3,3,0,0,0,1.23-1.91l.49-3a1,1,0,0,1,1-.9h3.07a1,1,0,0,1,1,.9l.49,3a3,3,0,0,0,1.23,1.91l.29.11a2.93,2.93,0,0,0,2.21-.47l2.5-1.81a1,1,0,0,1,1.36.09l1.08,1.09,1.09,1.08a1,1,0,0,1,.09,1.36l-1.81,2.5a2.93,2.93,0,0,0-.47,2.21Z" transform="translate(-10.82 -9.38)"/><circle class="cls-5" cx="43.86" cy="67.99" r="3.16"/><path class="cls-6" d="M60.55,73.21a1.84,1.84,0,0,0,1.33.46l1.91-.15a.64.64,0,0,1,.7.49l.22.93.23.93a.65.65,0,0,1-.4.75l-1.77.74a1.87,1.87,0,0,0-1,1l0,.18a1.87,1.87,0,0,0,.61,1.28l1.47,1.24a.66.66,0,0,1,.14.84l-.5.82-.5.81a.64.64,0,0,1-.8.26l-1.78-.73a1.82,1.82,0,0,0-1.41,0l-.16.11a1.87,1.87,0,0,0-.47,1.33l.16,1.92a.65.65,0,0,1-.49.69l-.93.22-.93.23a.64.64,0,0,1-.75-.39l-.74-1.78a1.87,1.87,0,0,0-1-1l-.19,0a1.86,1.86,0,0,0-1.27.61L51,86.54a.64.64,0,0,1-.83.14l-.82-.5-.81-.5a.64.64,0,0,1-.26-.8L49,83.1a1.87,1.87,0,0,0,0-1.41l-.11-.16a1.87,1.87,0,0,0-1.33-.47l-1.92.16a.65.65,0,0,1-.69-.49l-.23-.93-.22-.93a.64.64,0,0,1,.39-.75l1.77-.74a1.87,1.87,0,0,0,1-1l0-.19A1.82,1.82,0,0,0,47,74.89l-1.46-1.25a.63.63,0,0,1-.14-.83l.49-.82.5-.81a.64.64,0,0,1,.81-.26l1.78.73a1.82,1.82,0,0,0,1.41,0l.15-.11A1.82,1.82,0,0,0,51,70.17l-.15-1.92a.64.64,0,0,1,.49-.69l.93-.23.93-.22a.64.64,0,0,1,.75.39l.74,1.78a1.87,1.87,0,0,0,1,1l.18,0a1.86,1.86,0,0,0,1.28-.62L58.4,68.2a.64.64,0,0,1,.84-.14l.82.5.81.49a.64.64,0,0,1,.25.81l-.73,1.78a1.87,1.87,0,0,0,0,1.41Z" transform="translate(-10.82 -9.38)"/></svg>