<svg id="Camada_1" data-name="Camada 1" xmlns="http://www.w3.org/2000/svg" xmlns:xlink="http://www.w3.org/1999/xlink" viewBox="0 0 58.32 64.95"><defs><style>.cls-1{fill:none;stroke-miterlimit:10;stroke-width:2px;stroke:url(#linear-gradient);}.cls-2{fill:url(#linear-gradient-2);}.cls-3{fill:url(#linear-gradient-3);}.cls-4{fill:url(#linear-gradient-4);}.cls-5{fill:url(#linear-gradient-5);}</style><linearGradient id="linear-gradient" x1="267.92" y1="264.3" x2="326.24" y2="264.3" gradientUnits="userSpaceOnUse"><stop offset="0" stop-color="#2c6bb2"/><stop offset="0.23" stop-color="#2b64a9"/><stop offset="0.6" stop-color="#285291"/><stop offset="1" stop-color="#24386f"/></linearGradient><linearGradient id="linear-gradient-2" x1="298.96" y1="263.66" x2="304.21" y2="263.66" xlink:href="#linear-gradient"/><linearGradient id="linear-gradient-3" x1="281.44" y1="251.52" x2="287.31" y2="251.52" xlink:href="#linear-gradient"/><linearGradient id="linear-gradient-4" x1="293.73" y1="245.73" x2="299.6" y2="245.73" xlink:href="#linear-gradient"/><linearGradient id="linear-gradient-5" x1="282.14" y1="254.56" x2="312.86" y2="254.56" xlink:href="#linear-gradient"/></defs><path class="cls-1" d="M269.05,231.83l-.13,28.27h0v17m56.88-44.2H268.49M325,276.4l.26-21h0V231.83m-57,44.56c.35,0,.71,0,1.07,0h26.18v5.26l-9.86,10.07a1.18,1.18,0,0,0-.14.22.7.7,0,0,0-.21.5.75.75,0,0,0,0,.54.7.7,0,0,0,.21.5,1.18,1.18,0,0,0,.14.22h0a1.27,1.27,0,0,0,.31.2,1.3,1.3,0,0,0,.15.1,1.45,1.45,0,0,0,.54.11,1.4,1.4,0,0,0,.53-.11c.06,0,.1-.07.15-.09a1.3,1.3,0,0,0,.31-.21l7.85-7.69v8.32a1.43,1.43,0,0,0,1.42,1.42.79.79,0,0,0,.22,0,.87.87,0,0,0,.22,0,1.43,1.43,0,0,0,1.42-1.42V286l7.85,7.69a1.27,1.27,0,0,0,.31.2,1.3,1.3,0,0,0,.15.1,1.16,1.16,0,0,0,1.23-.1,1.43,1.43,0,0,0,.3-.2h0a1.07,1.07,0,0,0,.15-.22,1.2,1.2,0,0,0,.15-.24A1.18,1.18,0,0,0,309,293a2.34,2.34,0,0,0,0-.26,1.28,1.28,0,0,0-.05-.27,1.09,1.09,0,0,0-.05-.26,1.2,1.2,0,0,0-.15-.24.86.86,0,0,0-.15-.22l-9.86-10.07V276.4H325c.36,0,.71,0,1.06,0m-3.39-17.17" transform="translate(-267.92 -231.83)"/><path class="cls-2" d="M301.59,266.23a2.56,2.56,0,0,1-2.63-2.59,2.63,2.63,0,0,1,5.25,0A2.55,2.55,0,0,1,301.59,266.23Zm1.34-2.58A1.35,1.35,0,1,0,301.6,265,1.33,1.33,0,0,0,302.93,263.65Z" transform="translate(-267.92 -231.83)"/><path class="cls-3" d="M283,251.54c-.44-.46-.87-.9-1.29-1.35a.89.89,0,0,1,.34-1.51.88.88,0,0,1,1,.27l1.35,1.3,1.34-1.31a.9.9,0,1,1,1.31,1.23c-.33.35-.69.69-1,1l-.32.29,1.33,1.36a.91.91,0,0,1,0,1.33.88.88,0,0,1-1.29-.06c-.44-.44-.83-.91-1.27-1.4-.56.55-1,1-1.48,1.43a.9.9,0,1,1-1.2-1.33l1.2-1.19S283,251.57,283,251.54Z" transform="translate(-267.92 -231.83)"/><path class="cls-4" d="M295.32,245.76,294,244.41a.9.9,0,0,1,.34-1.52.89.89,0,0,1,1,.27c.44.43.88.85,1.34,1.31l1.35-1.31a.88.88,0,0,1,1-.27.89.89,0,0,1,.35,1.49c-.33.36-.69.69-1,1l-.33.29L299.3,247a.92.92,0,0,1,0,1.33.88.88,0,0,1-1.29-.06c-.44-.43-.83-.9-1.27-1.39-.56.54-1,1-1.48,1.42a.9.9,0,1,1-1.2-1.33l1.2-1.18A.25.25,0,0,0,295.32,245.76Z" transform="translate(-267.92 -231.83)"/><path class="cls-5" d="M312.82,244.18a2.91,2.91,0,0,0-2.81-2.49h0a2.93,2.93,0,0,0-2.75,2.1A2.85,2.85,0,0,0,308.6,247c.21.11.21.13.19.26a7.12,7.12,0,0,1-4.48,5.66,12.33,12.33,0,0,1-4.56.74c-1.55,0-3.21.07-4.88.24a11.64,11.64,0,0,0-5.22,1.86,12.14,12.14,0,0,0-4.71,6.33c-.18.5-.32,1-.48,1.51,0,.05,0,.11,0,.16l-.15-.35c-.18-.4-.36-.82-.58-1.22a.93.93,0,0,0-.78-.45,1.08,1.08,0,0,0-.7.55.94.94,0,0,0,.05.75c.56,1.29,1.12,2.57,1.67,3.81a.88.88,0,0,0,.8.55,1,1,0,0,0,.57-.2l.66-.52.3-.24,2.43-1.94,0,0,.14-.12a.83.83,0,0,0,.09-1.19.79.79,0,0,0-.61-.3.92.92,0,0,0-.58.22c-.52.41-1.05.83-1.55,1.24l-.2.15.06-.22c.16-.53.32-1.08.5-1.61a10,10,0,0,1,7.66-6.88,21.13,21.13,0,0,1,4.59-.43H300a13.77,13.77,0,0,0,4.12-.57,8.58,8.58,0,0,0,6.24-7c.07-.38.14-.49.49-.59A2.8,2.8,0,0,0,312.82,244.18ZM310,246.25h0a1.7,1.7,0,0,1,0-3.39h0a1.69,1.69,0,0,1,1.68,1.7A1.72,1.72,0,0,1,310,246.25Z" transform="translate(-267.92 -231.83)"/></svg>