<svg id="Camada_1" data-name="Camada 1" xmlns="http://www.w3.org/2000/svg" xmlns:xlink="http://www.w3.org/1999/xlink" viewBox="0 0 78.87 78.87"><defs><style>.cls-1,.cls-10,.cls-2,.cls-3,.cls-4,.cls-5,.cls-6,.cls-7,.cls-8,.cls-9{fill:none;stroke-miterlimit:10;stroke-width:2px;}.cls-1{stroke:url(#linear-gradient);}.cls-2{stroke:url(#linear-gradient-2);}.cls-3{stroke:url(#linear-gradient-3);}.cls-4{stroke:url(#linear-gradient-4);}.cls-5{stroke:url(#linear-gradient-5);}.cls-6{stroke:url(#linear-gradient-6);}.cls-7{stroke:url(#linear-gradient-7);}.cls-8{stroke:url(#linear-gradient-8);}.cls-9{stroke:url(#linear-gradient-9);}.cls-10{stroke:url(#linear-gradient-10);}</style><linearGradient id="linear-gradient" x1="30.59" y1="39.44" x2="48.28" y2="39.44" gradientUnits="userSpaceOnUse"><stop offset="0" stop-color="#2c6bb2"/><stop offset="0.23" stop-color="#2b64a9"/><stop offset="0.6" stop-color="#285291"/><stop offset="1" stop-color="#24386f"/></linearGradient><linearGradient id="linear-gradient-2" x1="3.62" y1="39.44" x2="75.25" y2="39.44" xlink:href="#linear-gradient"/><linearGradient id="linear-gradient-3" x1="38.44" y1="4.62" x2="40.44" y2="4.62" xlink:href="#linear-gradient"/><linearGradient id="linear-gradient-4" x1="69.63" y1="39.44" x2="78.87" y2="39.44" xlink:href="#linear-gradient"/><linearGradient id="linear-gradient-5" x1="38.44" y1="74.25" x2="40.44" y2="74.25" xlink:href="#linear-gradient"/><linearGradient id="linear-gradient-6" x1="0" y1="39.44" x2="9.24" y2="39.44" xlink:href="#linear-gradient"/><linearGradient id="linear-gradient-7" x1="22.86" y1="39.44" x2="31.59" y2="39.44" xlink:href="#linear-gradient"/><linearGradient id="linear-gradient-8" x1="38.44" y1="27.22" x2="40.44" y2="27.22" xlink:href="#linear-gradient"/><linearGradient id="linear-gradient-9" x1="47.28" y1="39.44" x2="56.01" y2="39.44" xlink:href="#linear-gradient"/><linearGradient id="linear-gradient-10" x1="38.44" y1="51.65" x2="40.44" y2="51.65" xlink:href="#linear-gradient"/></defs><circle class="cls-1" cx="39.44" cy="39.44" r="7.84"/><circle class="cls-2" cx="39.44" cy="39.44" r="34.82"/><line class="cls-3" x1="39.44" x2="39.44" y2="9.24"/><line class="cls-4" x1="78.87" y1="39.44" x2="69.63" y2="39.44"/><line class="cls-5" x1="39.44" y1="78.87" x2="39.44" y2="69.63"/><line class="cls-6" y1="39.44" x2="9.24" y2="39.44"/><line class="cls-7" x1="22.86" y1="39.44" x2="31.59" y2="39.44"/><line class="cls-8" x1="39.44" y1="22.86" x2="39.44" y2="31.59"/><line class="cls-9" x1="56.01" y1="39.44" x2="47.28" y2="39.44"/><line class="cls-10" x1="39.44" y1="56.01" x2="39.44" y2="47.28"/></svg>