<svg id="Camada_1" data-name="Camada 1" xmlns="http://www.w3.org/2000/svg" xmlns:xlink="http://www.w3.org/1999/xlink" viewBox="0 0 83.9 62.54"><defs><style>.cls-1,.cls-2,.cls-3,.cls-4,.cls-5,.cls-6,.cls-7,.cls-8{fill:none;stroke-miterlimit:10;stroke-width:2px;}.cls-1{stroke:url(#linear-gradient);}.cls-2{stroke:url(#linear-gradient-2);}.cls-3{stroke:url(#linear-gradient-3);}.cls-4{stroke:url(#linear-gradient-4);}.cls-5{stroke:url(#linear-gradient-5);}.cls-6{stroke:url(#linear-gradient-6);}.cls-7{stroke:url(#linear-gradient-7);}.cls-8{stroke:url(#linear-gradient-8);}</style><linearGradient id="linear-gradient" x1="8.05" y1="74.93" x2="91.95" y2="74.93" gradientUnits="userSpaceOnUse"><stop offset="0" stop-color="#2f6cb3"/><stop offset="0.2" stop-color="#2b65a9"/><stop offset="0.54" stop-color="#2a5392"/><stop offset="0.95" stop-color="#253b73"/><stop offset="1" stop-color="#253970"/></linearGradient><linearGradient id="linear-gradient-2" x1="13.39" y1="44.16" x2="86.61" y2="44.16" xlink:href="#linear-gradient"/><linearGradient id="linear-gradient-3" x1="19.88" y1="13.82" x2="31.98" y2="13.82" xlink:href="#linear-gradient"/><linearGradient id="linear-gradient-4" x1="19.88" y1="26.28" x2="31.98" y2="26.28" xlink:href="#linear-gradient"/><linearGradient id="linear-gradient-5" x1="19.88" y1="38.74" x2="31.98" y2="38.74" xlink:href="#linear-gradient"/><linearGradient id="linear-gradient-6" x1="36.61" y1="13.46" x2="61.54" y2="13.46" xlink:href="#linear-gradient"/><linearGradient id="linear-gradient-7" x1="36.61" y1="25.93" x2="61.54" y2="25.93" xlink:href="#linear-gradient"/><linearGradient id="linear-gradient-8" x1="36.61" y1="38.39" x2="61.54" y2="38.39" xlink:href="#linear-gradient"/></defs><path class="cls-1" d="M91,69.59H58.9l-3.56,3.56h-8.9L41.1,69.59h-32v3.56a7.12,7.12,0,0,0,7.12,7.12H83.83A7.12,7.12,0,0,0,91,73.15Z" transform="translate(-8.05 -18.73)"/><path class="cls-2" d="M85.61,69.59V23.29a3.56,3.56,0,0,0-3.56-3.56H18a3.56,3.56,0,0,0-3.56,3.56v46.3" transform="translate(-8.05 -18.73)"/><polyline class="cls-3" points="20.59 13.46 24.15 17.02 31.27 9.9"/><polyline class="cls-4" points="20.59 25.93 24.15 29.49 31.27 22.37"/><polyline class="cls-5" points="20.59 38.39 24.15 41.95 31.27 34.83"/><line class="cls-6" x1="36.61" y1="13.46" x2="61.54" y2="13.46"/><line class="cls-7" x1="36.61" y1="25.93" x2="61.54" y2="25.93"/><line class="cls-8" x1="36.61" y1="38.39" x2="61.54" y2="38.39"/></svg>