<svg id="Camada_1" data-name="Camada 1" xmlns="http://www.w3.org/2000/svg" xmlns:xlink="http://www.w3.org/1999/xlink" viewBox="0 0 78.64 90.9"><defs><style>.cls-1{fill:url(#linear-gradient);}.cls-2{fill:url(#linear-gradient-2);}.cls-3{fill:url(#linear-gradient-3);}.cls-4{fill:url(#linear-gradient-4);}.cls-5{fill:url(#linear-gradient-5);}.cls-6{fill:url(#linear-gradient-6);}</style><linearGradient id="linear-gradient" x1="22.46" y1="38.76" x2="78.52" y2="38.76" gradientUnits="userSpaceOnUse"><stop offset="0" stop-color="#2c6bb2"/><stop offset="0.23" stop-color="#2b64a9"/><stop offset="0.6" stop-color="#285291"/><stop offset="1" stop-color="#24386f"/></linearGradient><linearGradient id="linear-gradient-2" x1="22.46" y1="52.73" x2="78.52" y2="52.73" xlink:href="#linear-gradient"/><linearGradient id="linear-gradient-3" x1="22.46" y1="66.7" x2="78.52" y2="66.7" xlink:href="#linear-gradient"/><linearGradient id="linear-gradient-4" x1="52.92" y1="80.68" x2="78.52" y2="80.68" xlink:href="#linear-gradient"/><linearGradient id="linear-gradient-5" x1="22.46" y1="24.79" x2="78.52" y2="24.79" xlink:href="#linear-gradient"/><linearGradient id="linear-gradient-6" x1="11.17" y1="50.82" x2="89.81" y2="50.82" xlink:href="#linear-gradient"/></defs><path class="cls-1" d="M24,40.3H77a1.54,1.54,0,0,0,0-3.08H24a1.54,1.54,0,0,0,0,3.08Z" transform="translate(-11.17 -5.37)"/><path class="cls-2" d="M24,54.27H77a1.54,1.54,0,0,0,0-3.08H24a1.54,1.54,0,1,0,0,3.08Z" transform="translate(-11.17 -5.37)"/><path class="cls-3" d="M24,68.24H77a1.54,1.54,0,1,0,0-3.07H24a1.54,1.54,0,1,0,0,3.07Z" transform="translate(-11.17 -5.37)"/><path class="cls-4" d="M77,79.14H54.45a1.54,1.54,0,0,0,0,3.07H77a1.54,1.54,0,1,0,0-3.07Z" transform="translate(-11.17 -5.37)"/><path class="cls-5" d="M24,26.32H77a1.54,1.54,0,1,0,0-3.07H24a1.54,1.54,0,1,0,0,3.07Z" transform="translate(-11.17 -5.37)"/><path class="cls-6" d="M88,5.37H13A1.83,1.83,0,0,0,11.17,7.2V94.44A1.83,1.83,0,0,0,13,96.27H88a1.83,1.83,0,0,0,1.82-1.83V7.2A1.83,1.83,0,0,0,88,5.37ZM86.73,93.19H14.24V8.44H86.73Z" transform="translate(-11.17 -5.37)"/></svg>